<svg id="Layer_1" data-name="Layer 1" xmlns="http://www.w3.org/2000/svg" width="64" height="64" viewBox="0 0 64 64"><title>Artboard 1</title><path d="M37,15.7c-.1,2.3,0,4.6,0,6.9,0,.7.2.9.9.9h9.2c.8,0,1.1.1,1,1q-.7,4.7-1.2,9.5c-.1.7-.3.9-1,.9H37.9c-.7,0-1,.2-1,.9q0,13.6,0,27.3h0v.2a.9.9,0,0,1-.9.7H26.2c-.8,0-.9-.5-.9-.7h0s0-.1,0-.2q0-13.7,0-27.4c0-.7-.2-.9-.9-.9h-8c-.7,0-.9-.1-.9-.9,0-3.2,0-6.4,0-9.6,0-.7.2-.9.9-.9h7.9c.9,0,1.1-.3,1.1-1.1,0-3-.1-6.1,0-9.1C25.7,6.5,29.7,1.7,36.3.4,40.2-.4,44.1.2,48,.4c.7,0,.5.5.5.9,0,2.9,0,5.7,0,8.6,0,.7-.2.8-.9.8H42.1C38.7,10.8,37.1,12.3,37,15.7Z" fill="#f9a43e"/></svg>