<svg xmlns="http://www.w3.org/2000/svg" width="500" height="420" data-name="Layer 1" viewBox="0 0 500 420"><path fill="#fff" d="M-10.7-8.4h521.4v436.7H-10.7z"/><circle cx="245.8" cy="180.3" r="6.7" fill="#7332d6"/><path fill="#7332d6" d="M430.7 186.1c-6.2 0-11 4.3-13.8 8.6q.1-1.6.1-2.8a6 6 0 0 0-11.9.1c0 3.6.8 9.1.8 14.9 0 1 0 1.9-.1 2.8-5.5 5.6-12.3 10-21 10-6.6 0-9.6-2.5-10.9-6.1 15.3-.1 23.1-6.2 23.1-15.4 0-7.1-6.2-12.1-15-12.1-11.5 0-21 8.7-21 22.3a22.4 22.4 0 0 0 1.4 8.3 6.4 6.4 0 0 1-5.5 2.7c-4.3 0-5.9-3.4-5.9-21.8 0-8.9.8-18.6.8-27.1a5.9 5.9 0 1 0-11.9-.1c0 4.8.4 10.1.6 18.2-2.1-1.3-5.2-2.4-10.1-2.4-15 0-23 11.7-23 21.9a23 23 0 0 0 1.5 8.6 9.4 9.4 0 0 1-6.2 2.6c-2.5 0-5.2-2.2-5.2-10.3 0-1.8.3-9 .3-11.7 0-7-5.1-11.2-12.6-11.2s-11.9 4-14.8 8.6c.1-1.1.1-2 .1-2.8a6 6 0 0 0-11.9.1c0 3.6.8 9.1.8 14.9 0 1 0 1.9-.1 2.8-.5 4.5-7.2 9.5-13 9.5-7.5 0-10.4-4.3-10.4-11.3 0-3.2 2.5-5.5 2.5-9.1a7.6 7.6 0 1 0-15.2-.1v.4c0 3.3 2.5 5.6 2.5 8.7 0 7-3.1 11.4-10.4 11.4-5.7 0-13.3-5.4-14-10.6 8.1-7.7 22.3-22.9 22.3-36 0-10-5.4-16.9-15.1-16.9-12 0-18.2 8.8-18.2 17.9 0 3.8.5 15.9.5 32.8v2.6c-2.8 4.3-6.8 10.3-12.4 10.3-3 0-4.9-2.1-5.7-5.4s-.7-8.4-.7-13.5c0-1.8 0-3.7.1-5.5h9.1a4.5 4.5 0 0 0 4.6-4.4c0-2.6-1.8-4.5-4.7-4.5h-8.6c.2-4.5.4-8.7.4-12.4a6 6 0 1 0-11.9.1c0 1.1.3 6.6.5 12.2H158a4.4 4.4 0 0 0-4.6 4.2v.3a4.5 4.5 0 0 0 4.6 4.6h3.8v.8c0 2-.3 6.7-.6 10.9-6.1 7-13.6 13.1-23.9 13.1-6.6 0-9.6-2.5-10.8-6.1 15.3-.1 23.1-6.2 23.1-15.4 0-7.1-6.2-12.1-15.1-12.1-11.5 0-21 8.7-21 22.3a26 26 0 0 0 .7 6 45.9 45.9 0 0 1-13.6 5.2 21.9 21.9 0 0 0 4.5-13.2c0-14.3-9.9-20.2-20.1-20.2a20.8 20.8 0 0 0-12.7 4.2 6 6 0 0 0-5.9-4.2 5.9 5.9 0 0 0-5.8 5.9c0 3.6.8 13.4.8 26.4s-.8 21.6-.8 26.7c0 3.5 1.9 5.9 5.1 5.9s6.9-2.4 6.9-5.9c0-1.3-.5-9.4-.7-19.6 4.9 2.2 10.5 2.6 18 2.6 12.3 0 22.3-4.5 27.6-7.4 3.7 4.8 10.1 7.4 19 7.4 11.1 0 19.8-6.4 24.9-11.2 1.2 7.6 6.5 11.3 15.3 11.3 6.6 0 11.3-4.1 14.3-7.8-.2 11.8-.7 21.4-.7 26.6 0 14.1 7.9 17.2 13.7 17.2 11.7 0 17.9-9.1 17.9-19.4a27.8 27.8 0 0 0-5.8-16.7c5.3-.1 10.7-1.3 14.9-7.4 4.2 6.6 11.2 7.4 15.3 7.4s9-2.1 12.4-5.4a6 6 0 0 0 11.9-.4c0-1.1-.4-5.9-.6-10.4 0-6.1 6.4-16.8 12.1-16.8 2.9 0 4.7 2.5 4.7 6s-.3 8-.3 11.5c0 8.3 2.1 15.6 13.8 15.6a19.8 19.8 0 0 0 13-5.2 20.9 20.9 0 0 0 14.4 5.2 21.2 21.2 0 0 0 15.7-6.8c1.4 3.4 4.6 6.7 11.6 6.7a15.2 15.2 0 0 0 11.9-5.3c3.8 3.4 9.6 5.3 17.1 5.3s16.2-4.1 21.4-8.2c0 .8-.1 1.6-.1 2.3a6 6 0 0 0 11.9.1c0-1.1-.4-6-.6-10.5.1-7.2 7.4-15.9 11-15.9s1.9 3.3 6.3 3.3a5.7 5.7 0 0 0 5.7-5.8c-.2-2.9-2.2-7.5-8.9-7.5zm-228.6-12c0-5.1 3-8.9 6.2-8.9s5.1 3.6 5.1 7.4c0 9.4-6.8 18.3-11.8 24.1.2-8.6.6-20.7.6-22.6zM81.3 219.3a13.3 13.3 0 0 1-9.6-3.8c0-2.6.1-5 .1-7.3v-.3c0-5.7 4.2-13.1 12-13.1 4.7 0 9.4 3.7 9.4 11.8s-6.3 12.7-11.9 12.7zm53.2-25.6a5.1 5.1 0 0 1 5.4 4.8v.3c0 4.7-3 7.7-14.2 7.8 0-10 5.5-12.9 8.9-12.9zm72.6 61.4c-3.2 0-4.9-3-4.9-7.8 0-.5-.2-11.6-.4-22.3 3.3 4.2 10.3 11.5 10.3 21.2 0 6.5-2.6 8.9-4.9 8.9zm133.6-48.5c0 5.7-4.3 13.1-12 13.1-4.7 0-9.4-3.7-9.4-11.8s6.3-13.2 12-13.2a12.1 12.1 0 0 1 9.4 4.1zm41.1-13a5.2 5.2 0 0 1 5.4 5c0 4.5-3 7.6-14.2 7.8 0-10 5.5-12.8 8.9-12.8zm47.9 31.1a3.5 3.5 0 0 1-3.3 3.7h-.3a3.5 3.5 0 0 1-3.6-3.7 3.6 3.6 0 1 1 7.3 0zm-6.5 0a2.8 2.8 0 0 0 2.6 3h.3a2.8 2.8 0 0 0 2.9-3 2.8 2.8 0 0 0-2.6-3h-.2a2.8 2.8 0 0 0-2.9 3zm3.6.5a1.2 1.2 0 0 0-.4-2.4h-1.7v3.8h.7v-1.4h.6l1.1 1.3h.8l-1.1-1.2zm-.4-1.7a.6.6 0 1 1 .2 1.2h-1.2v-1.2h1z"/></svg>