<svg id="Layer_1" data-name="Layer 1" xmlns="http://www.w3.org/2000/svg" width="500" height="420" viewBox="0 0 500 420"><title>Artboard 1</title><rect x="-32.1" y="-27" width="564.3" height="474" fill="#f9a43e"/><path d="M45.9,76.3V46.7H64.7v5.5H52.8v6.7H63.9v5.5H52.8V76.3Z" fill="#fff"/><path d="M90.4,65.3a10.9,10.9,0,0,1-3.3,8.4,11.7,11.7,0,0,1-8.3,3.1,11.6,11.6,0,0,1-8.3-3,10.5,10.5,0,0,1-3.2-8,10.9,10.9,0,0,1,3.3-8.3,11.9,11.9,0,0,1,8.6-3.1,11.2,11.2,0,0,1,8.2,3.1A10.6,10.6,0,0,1,90.4,65.3Zm-16.2.3a7.8,7.8,0,0,0,1.2,4.6,4,4,0,0,0,6.6,0,7.9,7.9,0,0,0,1.2-4.7,8.1,8.1,0,0,0-1.2-4.6,3.8,3.8,0,0,0-3.3-1.8A3.9,3.9,0,0,0,75.5,61,8.1,8.1,0,0,0,74.2,65.6Z" fill="#fff"/><path d="M93.4,75.3l1.2-4.8a12.5,12.5,0,0,0,2.9,1.2,11.8,11.8,0,0,0,3.1.5q2.9,0,2.9-1.8a1.6,1.6,0,0,0-.7-1.4,10.6,10.6,0,0,0-2.5-1.1q-6.3-2-6.3-6.4a6.3,6.3,0,0,1,2.5-5.1,10,10,0,0,1,6.5-2,14.6,14.6,0,0,1,6.2,1.3L108,60.3a11.2,11.2,0,0,0-4.8-1.2q-2.6,0-2.6,1.7a1.5,1.5,0,0,0,.8,1.3,12.5,12.5,0,0,0,2.8,1.2,10.1,10.1,0,0,1,4.5,2.6,5.8,5.8,0,0,1,1.5,4,6.1,6.1,0,0,1-2.5,5.1,11.4,11.4,0,0,1-7,1.9A15.9,15.9,0,0,1,93.4,75.3Z" fill="#fff"/><path d="M115.2,50.8l6.6-1.8v5.9h4.9v5h-4.9v7.6a5.3,5.3,0,0,0,.6,3,2.4,2.4,0,0,0,2.1.9l2.1-.2v5.1a12.8,12.8,0,0,1-4.4.6,7.1,7.1,0,0,1-5-1.8q-2-1.8-2-6.5V59.8h-2.9v-5h2.9Z" fill="#fff"/><path d="M150,67.7H135.7a3.8,3.8,0,0,0,1.9,3,8.2,8.2,0,0,0,4.4,1.1,19.7,19.7,0,0,0,6.2-.9l.9,4.5a20.6,20.6,0,0,1-8,1.4q-5.5,0-8.7-2.9a10.5,10.5,0,0,1-3.1-8.1,11.8,11.8,0,0,1,3-8.1,10.3,10.3,0,0,1,8.1-3.4,9.1,9.1,0,0,1,7.3,3,11.6,11.6,0,0,1,2.6,7.8A10.7,10.7,0,0,1,150,67.7Zm-14.3-4.7h8.3a5.2,5.2,0,0,0-.9-2.9,3.3,3.3,0,0,0-3-1.4,3.9,3.9,0,0,0-2.9,1.2A5.4,5.4,0,0,0,135.6,63.1Z" fill="#fff"/><path d="M154.3,76.3V62q0-4.8-.2-7.2H160l.2,4.1h.2a6.8,6.8,0,0,1,2.5-3.4,6,6,0,0,1,3.5-1.2h1.5v6.4l-1.8-.2a5.6,5.6,0,0,0-3.4,1.1q-1.5,1.1-1.5,3.8V76.3Z" fill="#fff"/><path d="M180.7,76.3V46.7h18.7v5.5H187.5v6.7h11.1v5.5H187.5V76.3Z" fill="#fff"/><path d="M222.7,67.7H208.4a3.8,3.8,0,0,0,1.9,3,8.2,8.2,0,0,0,4.4,1.1,19.7,19.7,0,0,0,6.2-.9l.9,4.5a20.6,20.6,0,0,1-8,1.4q-5.5,0-8.7-2.9a10.5,10.5,0,0,1-3.1-8.1,11.8,11.8,0,0,1,3-8.1,10.3,10.3,0,0,1,8.1-3.4,9.1,9.1,0,0,1,7.3,3,11.6,11.6,0,0,1,2.6,7.8A10.7,10.7,0,0,1,222.7,67.7Zm-14.3-4.7h8.3a5.2,5.2,0,0,0-.9-2.9,3.3,3.3,0,0,0-3-1.4,3.9,3.9,0,0,0-2.9,1.2A5.4,5.4,0,0,0,208.3,63.1Z" fill="#fff"/><path d="M245.3,63.6v7.5a31.1,31.1,0,0,0,.4,5.2h-6.1l-.4-2.2h-.2a7.8,7.8,0,0,1-6.3,2.6,7.1,7.1,0,0,1-5.1-1.9,6.3,6.3,0,0,1-2-4.7,6.8,6.8,0,0,1,3.4-6.1q3.4-2.1,9.6-2.1v-.3q0-2.7-4-2.7a12,12,0,0,0-6.1,1.6l-1.3-4.3a17.5,17.5,0,0,1,8.6-2q4.8,0,7.2,2.4T245.3,63.6Zm-6.6,4.8V66.2q-6.5,0-6.5,3.3a2.4,2.4,0,0,0,.7,1.9,2.8,2.8,0,0,0,2,.7,3.9,3.9,0,0,0,2.6-1A3.3,3.3,0,0,0,238.7,68.4Z" fill="#fff"/><path d="M251.3,50.8l6.6-1.8v5.9h4.9v5h-4.9v7.6a5.3,5.3,0,0,0,.6,3,2.4,2.4,0,0,0,2.1.9l2.1-.2v5.1a12.8,12.8,0,0,1-4.4.6,7.1,7.1,0,0,1-5-1.8q-2-1.8-2-6.5V59.8h-2.9v-5h2.9Z" fill="#fff"/><path d="M287.6,54.8V69.4q0,3.5.2,7h-5.9l-.3-3.1h-.2a7.6,7.6,0,0,1-6.9,3.6,7.1,7.1,0,0,1-5.7-2.4q-2-2.4-2-7V54.8h6.8V66.3q0,5.1,3.5,5.1a3.7,3.7,0,0,0,2.6-1.1,3.6,3.6,0,0,0,1.1-2.7V54.8Z" fill="#fff"/><path d="M293.2,76.3V62q0-4.8-.2-7.2h5.9l.2,4.1h.2a6.8,6.8,0,0,1,2.5-3.4,6,6,0,0,1,3.5-1.2h1.5v6.4l-1.8-.2a5.6,5.6,0,0,0-3.4,1.1q-1.5,1.1-1.5,3.8V76.3Z" fill="#fff"/><path d="M329.5,67.7H315.2a3.8,3.8,0,0,0,1.9,3,8.2,8.2,0,0,0,4.4,1.1,19.7,19.7,0,0,0,6.2-.9l.9,4.5a20.6,20.6,0,0,1-8,1.4q-5.5,0-8.7-2.9a10.5,10.5,0,0,1-3.1-8.1,11.8,11.8,0,0,1,3-8.1,10.3,10.3,0,0,1,8.1-3.4,9.1,9.1,0,0,1,7.3,3,11.6,11.6,0,0,1,2.6,7.8A10.7,10.7,0,0,1,329.5,67.7Zm-14.3-4.7h8.3a5.2,5.2,0,0,0-.9-2.9,3.3,3.3,0,0,0-3-1.4,3.9,3.9,0,0,0-2.9,1.2A5.4,5.4,0,0,0,315.1,63.1Z" fill="#fff"/><path d="M341,72.8a4,4,0,0,1-1.1,2.9,4.2,4.2,0,0,1-5.8,0,4.3,4.3,0,0,1,0-5.8,4.2,4.2,0,0,1,5.8,0A4,4,0,0,1,341,72.8Zm-1.5-6.2h-5.1l-1-19.9h7Z" fill="#fff"/><path d="M45.9,129.1V99.9a54,54,0,0,1,9.2-.7q6.7,0,9.7,2.2a7.5,7.5,0,0,1,2.9,6.4,7.3,7.3,0,0,1-1.5,4.5,7.9,7.9,0,0,1-3.8,2.8v.2q2.8,1,4,5.5,2.3,8,2.5,8.4H62a34.2,34.2,0,0,1-2.1-6.9,7.8,7.8,0,0,0-1.7-3.7,4.6,4.6,0,0,0-3.4-1.1H52.7v11.7Zm6.7-24.7v8.1h2.8a6.4,6.4,0,0,0,4-1.2,3.7,3.7,0,0,0,1.5-3.1,3.7,3.7,0,0,0-1.3-3,5.9,5.9,0,0,0-3.8-1.1A14.9,14.9,0,0,0,52.7,104.4Z" fill="#fff"/><path d="M94.4,118.1a10.9,10.9,0,0,1-3.3,8.4,11.7,11.7,0,0,1-8.3,3.1,11.6,11.6,0,0,1-8.3-3,10.5,10.5,0,0,1-3.2-8,10.9,10.9,0,0,1,3.3-8.3,11.9,11.9,0,0,1,8.6-3.1,11.2,11.2,0,0,1,8.2,3.1A10.6,10.6,0,0,1,94.4,118.1Zm-16.2.3a7.8,7.8,0,0,0,1.2,4.6,4,4,0,0,0,6.6,0,7.9,7.9,0,0,0,1.2-4.7,8.1,8.1,0,0,0-1.2-4.6,3.8,3.8,0,0,0-3.3-1.8,3.9,3.9,0,0,0-3.4,1.8A8.1,8.1,0,0,0,78.2,118.4Z" fill="#fff"/><path d="M97.3,128.1l1.2-4.8a12.5,12.5,0,0,0,2.9,1.2,11.8,11.8,0,0,0,3.1.5q2.9,0,2.9-1.8a1.6,1.6,0,0,0-.7-1.4,10.6,10.6,0,0,0-2.5-1.1q-6.3-2-6.3-6.4a6.3,6.3,0,0,1,2.5-5.1,10,10,0,0,1,6.5-2,14.6,14.6,0,0,1,6.2,1.3l-1.2,4.7a11.2,11.2,0,0,0-4.8-1.2q-2.6,0-2.6,1.7a1.5,1.5,0,0,0,.8,1.3,12.5,12.5,0,0,0,2.8,1.2,10.1,10.1,0,0,1,4.5,2.6,5.8,5.8,0,0,1,1.5,4,6.1,6.1,0,0,1-2.5,5.1,11.4,11.4,0,0,1-7,1.9A15.9,15.9,0,0,1,97.3,128.1Z" fill="#fff"/><path d="M137.7,120.5H123.4a3.8,3.8,0,0,0,1.9,3,8.2,8.2,0,0,0,4.4,1.1,19.7,19.7,0,0,0,6.2-.9l.9,4.5a20.6,20.6,0,0,1-8,1.4q-5.5,0-8.7-2.9a10.5,10.5,0,0,1-3.1-8.1,11.8,11.8,0,0,1,3-8.1,10.3,10.3,0,0,1,8.1-3.4,9.1,9.1,0,0,1,7.3,3A11.6,11.6,0,0,1,138,118,10.7,10.7,0,0,1,137.7,120.5Zm-14.3-4.7h8.3a5.2,5.2,0,0,0-.9-2.9,3.3,3.3,0,0,0-3-1.4,3.9,3.9,0,0,0-2.9,1.2A5.4,5.4,0,0,0,123.4,115.9Z" fill="#fff"/><path d="M142,129.1V114.5q0-3.2-.2-6.9h5.7l.3,3h.1a7.5,7.5,0,0,1,6.6-3.5,6.9,6.9,0,0,1,3.7,1,5.7,5.7,0,0,1,2.3,2.8h.1a8.3,8.3,0,0,1,7.1-3.8,6.6,6.6,0,0,1,5.4,2.5q2,2.5,2,7v12.5h-6.6V117.6q0-5-3.3-5a3.1,3.1,0,0,0-2.5,1.1,4.4,4.4,0,0,0-1,3v12.5h-6.6V117.2a6,6,0,0,0-.8-3.5,2.7,2.7,0,0,0-2.4-1.2,3.2,3.2,0,0,0-2.5,1.1,4.3,4.3,0,0,0-1,3v12.4Z" fill="#fff"/><path d="M199.1,116.4v7.5a31.1,31.1,0,0,0,.4,5.2h-6.1l-.4-2.2h-.2a7.8,7.8,0,0,1-6.3,2.6,7.1,7.1,0,0,1-5.1-1.9,6.3,6.3,0,0,1-2-4.7,6.8,6.8,0,0,1,3.4-6.1q3.4-2.1,9.6-2.1v-.3q0-2.7-4-2.7a12,12,0,0,0-6.1,1.6l-1.3-4.3a17.5,17.5,0,0,1,8.6-2q4.8,0,7.2,2.4T199.1,116.4Zm-6.6,4.8V119q-6.5,0-6.5,3.3a2.4,2.4,0,0,0,.7,1.9,2.8,2.8,0,0,0,2,.7,3.9,3.9,0,0,0,2.6-1A3.3,3.3,0,0,0,192.6,121.2Z" fill="#fff"/><path d="M204.6,129.1V114.8q0-4.8-.2-7.2h5.9l.2,4.1h.2a6.8,6.8,0,0,1,2.5-3.4,6,6,0,0,1,3.5-1.2h1.5v6.4l-1.8-.2a5.6,5.6,0,0,0-3.4,1.1q-1.5,1.1-1.5,3.8v10.9Z" fill="#fff"/><path d="M220,107.6h7.6q4.2,13.2,4.4,14.6h.1l3.8-14.6h7.3l-5,13.6a83.1,83.1,0,0,1-3.6,8.7,21.5,21.5,0,0,1-3.2,4.9,12.8,12.8,0,0,1-3.6,2.7,11.9,11.9,0,0,1-4.1,1.2l-1.4-5.7a8.6,8.6,0,0,0,4.5-2.2q1.7-1.7,1.7-2.5a4,4,0,0,0-.4-1.1Z" fill="#fff"/><path d="M277,123l1.1,5.3a19.6,19.6,0,0,1-8,1.4q-7.5,0-11.8-4.1a14.3,14.3,0,0,1-4.3-10.8,14.8,14.8,0,0,1,4.7-11.4,17,17,0,0,1,12-4.3,17.7,17.7,0,0,1,7.7,1.4l-1.4,5.4a14.9,14.9,0,0,0-6-1.2,9.8,9.8,0,0,0-7.1,2.6,10.9,10.9,0,0,0,0,14.2,9.8,9.8,0,0,0,7.2,2.6A16.4,16.4,0,0,0,277,123Z" fill="#fff"/><path d="M303.3,118.1a10.9,10.9,0,0,1-3.3,8.4,11.7,11.7,0,0,1-8.3,3.1,11.6,11.6,0,0,1-8.3-3,10.5,10.5,0,0,1-3.2-8,10.9,10.9,0,0,1,3.3-8.3,11.9,11.9,0,0,1,8.6-3.1,11.2,11.2,0,0,1,8.2,3.1A10.6,10.6,0,0,1,303.3,118.1Zm-16.2.3a7.8,7.8,0,0,0,1.2,4.6,4,4,0,0,0,6.6,0,7.9,7.9,0,0,0,1.2-4.7,8.1,8.1,0,0,0-1.2-4.6,3.8,3.8,0,0,0-3.3-1.8,3.9,3.9,0,0,0-3.4,1.8A8.1,8.1,0,0,0,287.2,118.4Z" fill="#fff"/><path d="M304,107.6h7.6q3.1,4.8,4,6.7h.1q.6-1.4,3.7-6.7h7.4l-7.3,10.2,7.4,11.3h-7.7q-3.2-5.5-4-7.1h-.1q-.6,1.3-3.8,7.1h-7.5l7.6-11Z" fill="#fff"/><path d="M366.6,129.1h-7.9l-2-2.2a13.3,13.3,0,0,1-8.4,2.6q-5,0-7.8-2.4a7.6,7.6,0,0,1-2.8-6q0-5.6,5.8-8.5v-.2a8.3,8.3,0,0,1-2.3-5.6,7.3,7.3,0,0,1,2.5-5.5,9.3,9.3,0,0,1,6.6-2.3,8.9,8.9,0,0,1,5.9,1.9,6.2,6.2,0,0,1,2.3,5q0,4.7-5.9,7.6h0l5,5.5a20,20,0,0,0,2.7-7.3h6.1q-1.3,7.3-5.1,11.4Zm-20-13.2a5,5,0,0,0-2.4,4.1,4.4,4.4,0,0,0,1.4,3.3,5.1,5.1,0,0,0,3.7,1.3,5.9,5.9,0,0,0,4.2-1.5Q351.3,121.1,346.6,115.9Zm2.9-5.5a10.7,10.7,0,0,0,2.5-2.1,3.4,3.4,0,0,0,.8-2.2,3.1,3.1,0,0,0-.7-2,2.4,2.4,0,0,0-1.9-.9,2.5,2.5,0,0,0-2,.9,3.1,3.1,0,0,0-.8,2.1A6.2,6.2,0,0,0,349.5,110.4Z" fill="#fff"/><path d="M44.8,180.5l1.4-5.6a16.9,16.9,0,0,0,7.7,1.9,6.2,6.2,0,0,0,3.5-.9,2.7,2.7,0,0,0,1.3-2.4,2.8,2.8,0,0,0-1.1-2.2,14,14,0,0,0-4-1.8q-8.5-2.8-8.5-8.8a7.9,7.9,0,0,1,3.1-6.4,12.9,12.9,0,0,1,8.3-2.5,19,19,0,0,1,7.9,1.5L63,158.7a15.1,15.1,0,0,0-6.5-1.5,5.7,5.7,0,0,0-3.2.8,2.4,2.4,0,0,0-1.2,2.1,2.5,2.5,0,0,0,1,2,18.1,18.1,0,0,0,4.7,2.1,14.3,14.3,0,0,1,6,3.6,7.7,7.7,0,0,1,1.9,5.3,8.1,8.1,0,0,1-3.2,6.6q-3.2,2.6-9,2.6A19.2,19.2,0,0,1,44.8,180.5Z" fill="#fff"/><path d="M70.9,156.4l6.6-1.8v5.9h4.9v5H77.5V173a5.3,5.3,0,0,0,.6,3,2.4,2.4,0,0,0,2.1.9l2.1-.2v5.1a12.8,12.8,0,0,1-4.4.6,7.1,7.1,0,0,1-5-1.8q-2-1.8-2-6.5v-8.7H68v-5h2.9Z" fill="#fff"/><path d="M104.7,169.2v7.5a31.1,31.1,0,0,0,.4,5.2H99l-.4-2.2h-.2a7.8,7.8,0,0,1-6.3,2.6,7.1,7.1,0,0,1-5.1-1.9,6.3,6.3,0,0,1-2-4.7,6.8,6.8,0,0,1,3.4-6.1q3.4-2.1,9.6-2.1v-.3q0-2.7-4-2.7a12,12,0,0,0-6.1,1.6l-1.3-4.3a17.5,17.5,0,0,1,8.6-2q4.8,0,7.2,2.4T104.7,169.2ZM98.2,174v-2.2q-6.5,0-6.5,3.3a2.4,2.4,0,0,0,.7,1.9,2.8,2.8,0,0,0,2,.7,3.9,3.9,0,0,0,2.6-1A3.3,3.3,0,0,0,98.2,174Z" fill="#fff"/><path d="M126,176.4l.8,5a16.2,16.2,0,0,1-6.3,1.1,11.8,11.8,0,0,1-8.5-3,10.6,10.6,0,0,1-3.2-8,10.8,10.8,0,0,1,3.4-8.2q3.4-3.2,9.2-3.2a15.1,15.1,0,0,1,5.3.9l-1.1,5a10,10,0,0,0-3.9-.7,5.8,5.8,0,0,0-4.3,1.7,5.9,5.9,0,0,0-1.6,4.3,5.7,5.7,0,0,0,1.7,4.4,6.1,6.1,0,0,0,4.4,1.6A11.4,11.4,0,0,0,126,176.4Z" fill="#fff"/><path d="M149.7,173.3H135.4a3.8,3.8,0,0,0,1.9,3,8.2,8.2,0,0,0,4.4,1.1,19.7,19.7,0,0,0,6.2-.9l.9,4.5a20.6,20.6,0,0,1-8,1.4q-5.5,0-8.7-2.9a10.5,10.5,0,0,1-3.1-8.1,11.8,11.8,0,0,1,3-8.1,10.3,10.3,0,0,1,8.1-3.4,9.1,9.1,0,0,1,7.3,3,11.6,11.6,0,0,1,2.6,7.8A10.7,10.7,0,0,1,149.7,173.3Zm-14.3-4.7h8.3a5.2,5.2,0,0,0-.9-2.9,3.3,3.3,0,0,0-3-1.4,3.9,3.9,0,0,0-2.9,1.2A5.4,5.4,0,0,0,135.3,168.7Z" fill="#fff"/><path d="M150.9,160.4h7.6q4.2,13.2,4.4,14.6h.1l3.8-14.6h7.3l-5,13.6a83.1,83.1,0,0,1-3.6,8.7,21.5,21.5,0,0,1-3.2,4.9,12.8,12.8,0,0,1-3.6,2.7,11.9,11.9,0,0,1-4.1,1.2l-1.4-5.7a8.6,8.6,0,0,0,4.5-2.2q1.7-1.7,1.7-2.5a4,4,0,0,0-.4-1.1Z" fill="#fff"/><path d="M186.3,181.8V152.7a50.2,50.2,0,0,1,8.9-.7q6.8,0,9.7,2.1a6.4,6.4,0,0,1,2.9,5.4,6,6,0,0,1-1.3,3.8,7.9,7.9,0,0,1-3.7,2.5h0a8.2,8.2,0,0,1,4.4,2.7,7.1,7.1,0,0,1,1.6,4.6,7.9,7.9,0,0,1-3.3,6.5q-3.3,2.6-11.9,2.6A54.2,54.2,0,0,1,186.3,181.8Zm6.7-24.6V164h2.3a7.5,7.5,0,0,0,4.2-1,3.1,3.1,0,0,0,1.5-2.7q0-3.4-4.9-3.4A14.6,14.6,0,0,0,193,157.2Zm0,11.7v8.3h2.7a7.5,7.5,0,0,0,4.4-1.1,3.6,3.6,0,0,0,1.6-3.2,3.4,3.4,0,0,0-1.6-3.1,8.5,8.5,0,0,0-4.6-1.1Z" fill="#fff"/><path d="M233.1,173.3H218.8a3.8,3.8,0,0,0,1.9,3,8.2,8.2,0,0,0,4.4,1.1,19.7,19.7,0,0,0,6.2-.9l.9,4.5a20.6,20.6,0,0,1-8,1.4q-5.5,0-8.7-2.9a10.5,10.5,0,0,1-3.1-8.1,11.8,11.8,0,0,1,3-8.1,10.3,10.3,0,0,1,8.1-3.4,9.1,9.1,0,0,1,7.3,3,11.6,11.6,0,0,1,2.6,7.8A10.7,10.7,0,0,1,233.1,173.3Zm-14.3-4.7H227a5.2,5.2,0,0,0-.9-2.9,3.3,3.3,0,0,0-3-1.4,3.9,3.9,0,0,0-2.9,1.2A5.4,5.4,0,0,0,218.8,168.7Z" fill="#fff"/><path d="M237.4,181.9V167.6q0-4.8-.2-7.2h5.9l.2,4.1h.2a6.8,6.8,0,0,1,2.5-3.4,6,6,0,0,1,3.5-1.2h1.5v6.4l-1.8-.2a5.6,5.6,0,0,0-3.4,1.1q-1.5,1.1-1.5,3.8v10.9Z" fill="#fff"/><path d="M256.4,156.4l6.6-1.8v5.9H268v5h-4.9V173a5.3,5.3,0,0,0,.6,3,2.4,2.4,0,0,0,2.1.9l2.1-.2v5.1a12.8,12.8,0,0,1-4.4.6,7.1,7.1,0,0,1-5-1.8q-2-1.8-2-6.5v-8.7h-2.9v-5h2.9Z" fill="#fff"/><path d="M272,181.9V167.6q0-4.8-.2-7.2h5.9l.2,4.1h.2a6.8,6.8,0,0,1,2.5-3.4,6,6,0,0,1,3.5-1.2h1.5v6.4l-1.8-.2a5.6,5.6,0,0,0-3.4,1.1q-1.5,1.1-1.5,3.8v10.9Z" fill="#fff"/><path d="M306.9,169.2v7.5a31.2,31.2,0,0,0,.4,5.2h-6.1l-.4-2.2h-.2a7.8,7.8,0,0,1-6.3,2.6,7.1,7.1,0,0,1-5.1-1.9,6.3,6.3,0,0,1-2-4.7,6.9,6.9,0,0,1,3.4-6.1q3.4-2.1,9.6-2.1v-.3q0-2.7-4-2.7a12,12,0,0,0-6.1,1.6l-1.3-4.3a17.5,17.5,0,0,1,8.6-2q4.8,0,7.2,2.4T306.9,169.2Zm-6.6,4.8v-2.2q-6.5,0-6.5,3.3a2.4,2.4,0,0,0,.7,1.9,2.8,2.8,0,0,0,2,.7,3.9,3.9,0,0,0,2.6-1A3.3,3.3,0,0,0,300.4,174Z" fill="#fff"/><path d="M312.4,181.9V167.3q0-3.2-.2-6.9h5.9l.3,3h.2a7.8,7.8,0,0,1,6.8-3.5,7.3,7.3,0,0,1,5.8,2.5q2.1,2.5,2.1,6.9v12.6h-6.8V170.2q0-4.8-3.6-4.8a3.6,3.6,0,0,0-2.6,1.1,4.1,4.1,0,0,0-1.1,3.1v12.3Z" fill="#fff"/><path d="M353.5,150.6h6.8v24.9q0,3.5.2,6.4h-6.1l-.3-3.3H354a7.6,7.6,0,0,1-7,3.7,8.6,8.6,0,0,1-6.7-3.1,11.5,11.5,0,0,1-2.7-8,11.8,11.8,0,0,1,2.9-8.3,9.2,9.2,0,0,1,7.1-3.1q4.1,0,5.9,2.5h.1Zm0,21.6v-2.5a4.6,4.6,0,0,0-1.2-3.3,3.9,3.9,0,0,0-3-1.3,4.3,4.3,0,0,0-3.5,1.7,6.9,6.9,0,0,0-1.3,4.4,6.5,6.5,0,0,0,1.3,4.3,4.5,4.5,0,0,0,6.4.4A4.7,4.7,0,0,0,353.5,172.2Z" fill="#fff"/></svg>