<svg id="Layer_1" data-name="Layer 1" xmlns="http://www.w3.org/2000/svg" width="500" height="420" viewBox="0 0 500 420"><title>Artboard 1</title><rect x="-32.1" y="-27" width="564.3" height="474" fill="#f9a43e"/><path d="M62,68.6H53.1l-2.2,7.7H43.8l9.4-29.7h9l9.6,29.7H64.4Zm-7.9-5H61q-2.7-8.7-3.5-11.9h-.1L56,57.3Z" fill="#fff"/><path d="M89.6,45h6.8V69.9q0,3.5.2,6.4H90.6l-.3-3.3h-.1a7.6,7.6,0,0,1-7,3.7,8.6,8.6,0,0,1-6.7-3.1,11.5,11.5,0,0,1-2.7-8,11.8,11.8,0,0,1,2.9-8.3,9.2,9.2,0,0,1,7.1-3.1q4.1,0,5.9,2.5h.1Zm0,21.6V64.1a4.6,4.6,0,0,0-1.2-3.3,3.9,3.9,0,0,0-3-1.3,4.3,4.3,0,0,0-3.5,1.7,6.9,6.9,0,0,0-1.3,4.4,6.5,6.5,0,0,0,1.3,4.3,4.5,4.5,0,0,0,6.4.4A4.7,4.7,0,0,0,89.6,66.6Z" fill="#fff"/><path d="M123.8,65.3a10.9,10.9,0,0,1-3.3,8.4,11.7,11.7,0,0,1-8.3,3.1,11.6,11.6,0,0,1-8.3-3,10.5,10.5,0,0,1-3.2-8,10.9,10.9,0,0,1,3.3-8.3,11.9,11.9,0,0,1,8.6-3.1,11.2,11.2,0,0,1,8.2,3.1A10.6,10.6,0,0,1,123.8,65.3Zm-16.2.3a7.8,7.8,0,0,0,1.2,4.6,4,4,0,0,0,6.6,0,7.9,7.9,0,0,0,1.2-4.7,8.1,8.1,0,0,0-1.2-4.6,3.8,3.8,0,0,0-3.3-1.8,3.9,3.9,0,0,0-3.4,1.8A8.1,8.1,0,0,0,107.6,65.6Z" fill="#fff"/><path d="M128,85v-23q0-3.3-.2-7.3h5.9l.3,3.1a8.9,8.9,0,0,1,7.6-3.6,8.4,8.4,0,0,1,6.5,3,11.4,11.4,0,0,1,2.7,7.9,11.8,11.8,0,0,1-2.9,8.4,9.5,9.5,0,0,1-7.2,3.1,8.7,8.7,0,0,1-3.4-.7,5.2,5.2,0,0,1-2.4-1.8h-.1V85Zm6.8-20.7V67a5.3,5.3,0,0,0,.5,2.3,4.2,4.2,0,0,0,1.5,1.6,4.1,4.1,0,0,0,2.3.7,4.3,4.3,0,0,0,3.5-1.6,6.8,6.8,0,0,0,1.3-4.4,6.9,6.9,0,0,0-1.3-4.3,4.1,4.1,0,0,0-3.4-1.6,4.2,4.2,0,0,0-3.1,1.3A4.6,4.6,0,0,0,134.8,64.3Z" fill="#fff"/><path d="M156,50.8l6.6-1.8v5.9h4.9v5h-4.9v7.6a5.3,5.3,0,0,0,.6,3,2.4,2.4,0,0,0,2.1.9l2.1-.2v5.1a12.8,12.8,0,0,1-4.4.6,7.1,7.1,0,0,1-5-1.8q-2-1.8-2-6.5V59.8h-2.9v-5H156Z" fill="#fff"/><path d="M178.7,48.4a3.4,3.4,0,0,1-1.1,2.6,4.3,4.3,0,0,1-5.5,0,3.6,3.6,0,0,1,0-5.1,4.3,4.3,0,0,1,5.5,0A3.4,3.4,0,0,1,178.7,48.4Zm-.4,27.9h-6.8V54.8h6.8Z" fill="#fff"/><path d="M183.8,76.3V61.7q0-3.2-.2-6.9h5.9l.3,3h.2a7.8,7.8,0,0,1,6.8-3.5,7.3,7.3,0,0,1,5.8,2.5q2.1,2.5,2.1,6.9V76.3H198V64.6q0-4.8-3.6-4.8a3.6,3.6,0,0,0-2.6,1.1,4.1,4.1,0,0,0-1.1,3.1V76.3Z" fill="#fff"/><path d="M231.1,61.2V73.1q0,6.3-2.9,9.4t-9.4,3.1a16.8,16.8,0,0,1-8-1.7l1.4-5.1a13.1,13.1,0,0,0,6.5,1.7,5.9,5.9,0,0,0,4.2-1.5,5.6,5.6,0,0,0,1.5-4.2V73.3h-.1a7.1,7.1,0,0,1-6,2.9,8.7,8.7,0,0,1-6.7-2.9,10.8,10.8,0,0,1-2.7-7.5,11.7,11.7,0,0,1,2.9-8.2,9.3,9.3,0,0,1,7.1-3.2,6.7,6.7,0,0,1,6.1,3.1h.1l.2-2.6h5.9Q231.1,57.4,231.1,61.2Zm-6.8,5.4V63.7a4.4,4.4,0,0,0-1.1-3.1,3.6,3.6,0,0,0-2.8-1.2,4,4,0,0,0-3.2,1.6,7,7,0,0,0-1.3,4.4,6.6,6.6,0,0,0,1.2,4.1,3.9,3.9,0,0,0,3.3,1.6,4.1,4.1,0,0,0,2.7-1Q224.3,69.1,224.3,66.6Z" fill="#fff"/><path d="M264.1,63.6v7.5a31.2,31.2,0,0,0,.4,5.2h-6.1l-.4-2.2h-.2a7.8,7.8,0,0,1-6.3,2.6,7.1,7.1,0,0,1-5.1-1.9,6.3,6.3,0,0,1-2-4.7,6.8,6.8,0,0,1,3.4-6.1q3.4-2.1,9.6-2.1v-.3q0-2.7-4-2.7a12,12,0,0,0-6.1,1.6l-1.3-4.3a17.5,17.5,0,0,1,8.6-2q4.8,0,7.2,2.4T264.1,63.6Zm-6.6,4.8V66.2q-6.5,0-6.5,3.3a2.4,2.4,0,0,0,.7,1.9,2.8,2.8,0,0,0,2,.7,3.9,3.9,0,0,0,2.6-1A3.3,3.3,0,0,0,257.5,68.4Z" fill="#fff"/><path d="M278.9,76.3V47.1a54,54,0,0,1,9.2-.7q6.7,0,9.7,2.2a7.5,7.5,0,0,1,2.9,6.4,7.3,7.3,0,0,1-1.5,4.5,7.9,7.9,0,0,1-3.8,2.8v.2q2.8,1,4,5.5,2.3,8,2.5,8.4h-7a34.2,34.2,0,0,1-2.1-6.9,7.8,7.8,0,0,0-1.7-3.7,4.6,4.6,0,0,0-3.4-1.1h-2.1V76.3Zm6.7-24.7v8.1h2.8a6.4,6.4,0,0,0,4-1.2,3.7,3.7,0,0,0,1.5-3.1,3.7,3.7,0,0,0-1.3-3,5.9,5.9,0,0,0-3.8-1.1A14.9,14.9,0,0,0,285.6,51.6Z" fill="#fff"/><path d="M324.9,67.7H310.6a3.8,3.8,0,0,0,1.9,3,8.2,8.2,0,0,0,4.4,1.1,19.7,19.7,0,0,0,6.2-.9l.9,4.5a20.6,20.6,0,0,1-8,1.4q-5.5,0-8.7-2.9a10.5,10.5,0,0,1-3.1-8.1,11.8,11.8,0,0,1,3-8.1,10.3,10.3,0,0,1,8.1-3.4,9.1,9.1,0,0,1,7.3,3,11.6,11.6,0,0,1,2.6,7.8A10.7,10.7,0,0,1,324.9,67.7Zm-14.3-4.7h8.3a5.2,5.2,0,0,0-.9-2.9,3.3,3.3,0,0,0-3-1.4A3.9,3.9,0,0,0,312,60,5.4,5.4,0,0,0,310.6,63.1Z" fill="#fff"/><path d="M327.9,75.3l1.2-4.8a12.5,12.5,0,0,0,2.9,1.2,11.8,11.8,0,0,0,3.1.5q2.9,0,2.9-1.8a1.6,1.6,0,0,0-.7-1.4,10.7,10.7,0,0,0-2.5-1.1q-6.3-2-6.3-6.4a6.3,6.3,0,0,1,2.5-5.1,10,10,0,0,1,6.5-2,14.6,14.6,0,0,1,6.2,1.3l-1.2,4.7a11.2,11.2,0,0,0-4.8-1.2q-2.6,0-2.6,1.7a1.5,1.5,0,0,0,.8,1.3,12.4,12.4,0,0,0,2.8,1.2,10.1,10.1,0,0,1,4.5,2.6,5.8,5.8,0,0,1,1.5,4,6.1,6.1,0,0,1-2.5,5.1,11.4,11.4,0,0,1-7,1.9A15.9,15.9,0,0,1,327.9,75.3Z" fill="#fff"/><path d="M364.7,70.8l.8,5a16.2,16.2,0,0,1-6.3,1.1,11.8,11.8,0,0,1-8.5-3,10.6,10.6,0,0,1-3.2-8,10.8,10.8,0,0,1,3.4-8.2q3.4-3.2,9.2-3.2a15.1,15.1,0,0,1,5.3.9l-1.1,5a10,10,0,0,0-3.9-.7,5.8,5.8,0,0,0-4.3,1.7,5.9,5.9,0,0,0-1.6,4.3,5.7,5.7,0,0,0,1.7,4.4,6.1,6.1,0,0,0,4.4,1.6A11.4,11.4,0,0,0,364.7,70.8Z" fill="#fff"/><path d="M390.2,54.8V69.4q0,3.5.2,7h-5.9l-.3-3.1H384a7.6,7.6,0,0,1-6.9,3.6,7.1,7.1,0,0,1-5.7-2.4q-2-2.4-2-7V54.8h6.8V66.3q0,5.1,3.5,5.1a3.7,3.7,0,0,0,2.6-1.1,3.6,3.6,0,0,0,1.1-2.7V54.8Z" fill="#fff"/><path d="M415.2,67.7H400.9a3.8,3.8,0,0,0,1.9,3,8.2,8.2,0,0,0,4.4,1.1,19.7,19.7,0,0,0,6.2-.9l.9,4.5a20.6,20.6,0,0,1-8,1.4q-5.5,0-8.7-2.9a10.5,10.5,0,0,1-3.1-8.1,11.8,11.8,0,0,1,3-8.1,10.3,10.3,0,0,1,8.1-3.4,9.1,9.1,0,0,1,7.3,3,11.6,11.6,0,0,1,2.6,7.8A10.7,10.7,0,0,1,415.2,67.7Zm-14.3-4.7h8.3a5.2,5.2,0,0,0-.9-2.9,3.3,3.3,0,0,0-3-1.4,3.9,3.9,0,0,0-2.9,1.2A5.4,5.4,0,0,0,400.8,63.1Z" fill="#fff"/><path d="M45.9,129V99.9a63.5,63.5,0,0,1,9.4-.7q9.5,0,13.6,4a13.7,13.7,0,0,1,4.1,10.4q0,7.6-4.7,11.7t-14.5,4.2A63.5,63.5,0,0,1,45.9,129Zm6.8-24.3V124h2.5q5.1,0,7.9-2.7t2.8-7.7q0-4.6-2.5-7T56,104.4A16.3,16.3,0,0,0,52.8,104.7Z" fill="#fff"/><path d="M99.5,118.1a10.9,10.9,0,0,1-3.3,8.4,11.7,11.7,0,0,1-8.3,3.1,11.6,11.6,0,0,1-8.3-3,10.5,10.5,0,0,1-3.2-8,10.9,10.9,0,0,1,3.3-8.3,11.9,11.9,0,0,1,8.6-3.1,11.2,11.2,0,0,1,8.2,3.1A10.6,10.6,0,0,1,99.5,118.1Zm-16.2.3a7.8,7.8,0,0,0,1.2,4.6,4,4,0,0,0,6.6,0,7.9,7.9,0,0,0,1.2-4.7,8.1,8.1,0,0,0-1.2-4.6A3.8,3.8,0,0,0,88,112a3.9,3.9,0,0,0-3.4,1.8A8.1,8.1,0,0,0,83.3,118.4Z" fill="#fff"/><path d="M124.7,114v11.9q0,6.3-2.9,9.4t-9.4,3.1a16.8,16.8,0,0,1-8-1.7l1.4-5.1a13.1,13.1,0,0,0,6.5,1.7,5.9,5.9,0,0,0,4.2-1.5,5.6,5.6,0,0,0,1.5-4.2v-1.4h-.1a7.1,7.1,0,0,1-6,2.9,8.7,8.7,0,0,1-6.7-2.9,10.8,10.8,0,0,1-2.7-7.5,11.7,11.7,0,0,1,2.9-8.2,9.3,9.3,0,0,1,7.1-3.2,6.7,6.7,0,0,1,6.1,3.1h.1l.2-2.6h5.9Q124.7,110.2,124.7,114Zm-6.8,5.4v-2.9a4.4,4.4,0,0,0-1.1-3.1,3.6,3.6,0,0,0-2.8-1.2,4,4,0,0,0-3.2,1.6,7,7,0,0,0-1.3,4.4,6.6,6.6,0,0,0,1.2,4.1,3.9,3.9,0,0,0,3.3,1.6,4.1,4.1,0,0,0,2.7-1Q117.8,121.9,117.8,119.4Z" fill="#fff"/><path d="M137.6,125.6a4,4,0,0,1-1.1,2.9,4.2,4.2,0,0,1-5.8,0,4,4,0,0,1-1.1-2.9,4,4,0,0,1,1.1-2.9,4.2,4.2,0,0,1,5.8,0A4.1,4.1,0,0,1,137.6,125.6Zm0-14.2a4,4,0,0,1-1.1,2.9,4.2,4.2,0,0,1-5.8,0,4,4,0,0,1-1.1-2.9,4.1,4.1,0,0,1,1.1-2.9,4.2,4.2,0,0,1,5.8,0A4.1,4.1,0,0,1,137.6,111.4Z" fill="#fff"/><path d="M157.1,129.1v-24h-8.3V99.5h23.6v5.7h-8.4v24Z" fill="#fff"/><path d="M175.2,129.1V97.8H182v12.5h.1a7.9,7.9,0,0,1,6.2-3.1,7.1,7.1,0,0,1,5.7,2.5q2.1,2.5,2.1,7.1v12.5h-6.8V117.5q0-4.8-3.6-4.8a3.7,3.7,0,0,0-2.6,1,3.6,3.6,0,0,0-1.1,2.8v12.7Z" fill="#fff"/><path d="M221.1,120.5H206.8a3.8,3.8,0,0,0,1.9,3,8.2,8.2,0,0,0,4.4,1.1,19.7,19.7,0,0,0,6.2-.9l.9,4.5a20.6,20.6,0,0,1-8,1.4q-5.5,0-8.7-2.9a10.5,10.5,0,0,1-3.1-8.1,11.8,11.8,0,0,1,3-8.1,10.3,10.3,0,0,1,8.1-3.4,9.1,9.1,0,0,1,7.3,3,11.6,11.6,0,0,1,2.6,7.8A10.7,10.7,0,0,1,221.1,120.5Zm-14.3-4.7H215a5.2,5.2,0,0,0-.9-2.9,3.3,3.3,0,0,0-3-1.4,3.9,3.9,0,0,0-2.9,1.2A5.4,5.4,0,0,0,206.7,115.9Z" fill="#fff"/><path d="M234.7,129.1V99.5h18.7V105H241.5v6.7h11.1v5.5H241.5v11.9Z" fill="#fff"/><path d="M264.7,101.2a3.4,3.4,0,0,1-1.1,2.6,4.3,4.3,0,0,1-5.5,0,3.6,3.6,0,0,1,0-5.1,4.3,4.3,0,0,1,5.5,0A3.4,3.4,0,0,1,264.7,101.2Zm-.4,27.9h-6.8V107.6h6.8Z" fill="#fff"/><path d="M269.8,129.1V114.8q0-4.8-.2-7.2h5.9l.2,4.1h.2a6.8,6.8,0,0,1,2.5-3.4,6,6,0,0,1,3.5-1.2h1.5v6.4l-1.8-.2a5.6,5.6,0,0,0-3.4,1.1q-1.5,1.1-1.5,3.8v10.9Z" fill="#fff"/><path d="M285.7,128.1l1.2-4.8a12.5,12.5,0,0,0,2.9,1.2,11.8,11.8,0,0,0,3.1.5q2.9,0,2.9-1.8a1.6,1.6,0,0,0-.7-1.4,10.7,10.7,0,0,0-2.5-1.1q-6.3-2-6.3-6.4a6.3,6.3,0,0,1,2.5-5.1,10,10,0,0,1,6.5-2,14.6,14.6,0,0,1,6.2,1.3l-1.2,4.7a11.2,11.2,0,0,0-4.8-1.2q-2.6,0-2.6,1.7a1.5,1.5,0,0,0,.8,1.3,12.4,12.4,0,0,0,2.8,1.2,10.1,10.1,0,0,1,4.5,2.6,5.8,5.8,0,0,1,1.5,4,6.1,6.1,0,0,1-2.5,5.1,11.4,11.4,0,0,1-7,1.9A15.9,15.9,0,0,1,285.7,128.1Z" fill="#fff"/><path d="M307.5,103.6l6.6-1.8v5.9H319v5h-4.9v7.6a5.3,5.3,0,0,0,.6,3,2.4,2.4,0,0,0,2.1.9l2.1-.2V129a12.8,12.8,0,0,1-4.4.6,7.1,7.1,0,0,1-5-1.8q-2-1.8-2-6.5v-8.7h-2.9v-5h2.9Z" fill="#fff"/><path d="M331.2,127.7l1.4-5.6a16.9,16.9,0,0,0,7.7,1.9,6.2,6.2,0,0,0,3.5-.9,2.7,2.7,0,0,0,1.3-2.4,2.8,2.8,0,0,0-1.1-2.2,14,14,0,0,0-4-1.8q-8.5-2.8-8.5-8.8a7.9,7.9,0,0,1,3.1-6.4A12.9,12.9,0,0,1,343,99a19,19,0,0,1,7.9,1.5l-1.5,5.4a15.1,15.1,0,0,0-6.5-1.5,5.7,5.7,0,0,0-3.2.8,2.4,2.4,0,0,0-1.2,2.1,2.5,2.5,0,0,0,1,2,18.2,18.2,0,0,0,4.7,2.1,14.3,14.3,0,0,1,6,3.6,7.7,7.7,0,0,1,1.9,5.3,8.1,8.1,0,0,1-3.2,6.6q-3.2,2.6-9,2.6A19.2,19.2,0,0,1,331.2,127.7Z" fill="#fff"/><path d="M376.4,120.5H362.1a3.8,3.8,0,0,0,1.9,3,8.2,8.2,0,0,0,4.4,1.1,19.7,19.7,0,0,0,6.2-.9l.9,4.5a20.6,20.6,0,0,1-8,1.4q-5.5,0-8.7-2.9a10.5,10.5,0,0,1-3.1-8.1,11.8,11.8,0,0,1,3-8.1,10.3,10.3,0,0,1,8.1-3.4,9.1,9.1,0,0,1,7.3,3,11.6,11.6,0,0,1,2.6,7.8A10.7,10.7,0,0,1,376.4,120.5ZM362,115.9h8.3a5.2,5.2,0,0,0-.9-2.9,3.3,3.3,0,0,0-3-1.4,3.9,3.9,0,0,0-2.9,1.2A5.4,5.4,0,0,0,362,115.9Z" fill="#fff"/><path d="M377.8,107.6h7.4q4.2,13.9,4.3,15.2h.2q.4-2.2,1.1-4.9l2.9-10.3H401l-8.3,21.5h-6.9Z" fill="#fff"/><path d="M422.8,120.5H408.5a3.8,3.8,0,0,0,1.9,3,8.2,8.2,0,0,0,4.4,1.1,19.7,19.7,0,0,0,6.2-.9l.9,4.5a20.6,20.6,0,0,1-8,1.4q-5.5,0-8.7-2.9a10.5,10.5,0,0,1-3.1-8.1,11.8,11.8,0,0,1,3-8.1,10.3,10.3,0,0,1,8.1-3.4,9.1,9.1,0,0,1,7.3,3A11.6,11.6,0,0,1,423,118,10.7,10.7,0,0,1,422.8,120.5Zm-14.3-4.7h8.3a5.2,5.2,0,0,0-.9-2.9,3.3,3.3,0,0,0-3-1.4,3.9,3.9,0,0,0-2.9,1.2A5.4,5.4,0,0,0,408.4,115.9Z" fill="#fff"/><path d="M427.1,129.1V114.5q0-3.2-.2-6.9h5.9l.3,3h.2a7.8,7.8,0,0,1,6.8-3.5,7.3,7.3,0,0,1,5.8,2.5q2.1,2.5,2.1,6.9v12.6h-6.8V117.4q0-4.8-3.6-4.8a3.6,3.6,0,0,0-2.6,1.1,4.1,4.1,0,0,0-1.1,3.1v12.3Z" fill="#fff"/><path d="M45.9,181.8V152.7a63.5,63.5,0,0,1,9.4-.7q9.5,0,13.6,4a13.7,13.7,0,0,1,4.1,10.4q0,7.6-4.7,11.7t-14.5,4.2A63.5,63.5,0,0,1,45.9,181.8Zm6.8-24.3v19.3h2.5q5.1,0,7.9-2.7t2.8-7.7q0-4.6-2.5-7T56,157.2A16.3,16.3,0,0,0,52.8,157.5Z" fill="#fff"/><path d="M95.8,169.2v7.5a31.1,31.1,0,0,0,.4,5.2H90l-.4-2.2h-.2a7.8,7.8,0,0,1-6.3,2.6,7.1,7.1,0,0,1-5.1-1.9,6.3,6.3,0,0,1-2-4.7,6.8,6.8,0,0,1,3.4-6.1q3.4-2.1,9.6-2.1v-.3q0-2.7-4-2.7a12,12,0,0,0-6.1,1.6l-1.3-4.3a17.5,17.5,0,0,1,8.6-2q4.8,0,7.2,2.4T95.8,169.2ZM89.2,174v-2.2q-6.5,0-6.5,3.3a2.4,2.4,0,0,0,.7,1.9,2.8,2.8,0,0,0,2,.7,3.9,3.9,0,0,0,2.6-1A3.3,3.3,0,0,0,89.2,174Z" fill="#fff"/><path d="M97.9,160.4h7.6q4.2,13.2,4.4,14.6h.1l3.8-14.6h7.3l-5,13.6a83.1,83.1,0,0,1-3.6,8.7,21.5,21.5,0,0,1-3.2,4.9,12.8,12.8,0,0,1-3.6,2.7,11.9,11.9,0,0,1-4.1,1.2l-1.4-5.7a8.6,8.6,0,0,0,4.5-2.2q1.7-1.7,1.7-2.5a4,4,0,0,0-.4-1.1Z" fill="#fff"/><path d="M122.3,180.9l1.2-4.8a12.5,12.5,0,0,0,2.9,1.2,11.8,11.8,0,0,0,3.1.5q2.9,0,2.9-1.8a1.6,1.6,0,0,0-.7-1.4,10.6,10.6,0,0,0-2.5-1.1q-6.3-2-6.3-6.4a6.3,6.3,0,0,1,2.5-5.1,10,10,0,0,1,6.5-2,14.6,14.6,0,0,1,6.2,1.3l-1.2,4.7a11.2,11.2,0,0,0-4.8-1.2q-2.6,0-2.6,1.7a1.5,1.5,0,0,0,.8,1.3,12.5,12.5,0,0,0,2.8,1.2,10.1,10.1,0,0,1,4.5,2.6,5.8,5.8,0,0,1,1.5,4,6.1,6.1,0,0,1-2.5,5.1,11.4,11.4,0,0,1-7,1.9A15.9,15.9,0,0,1,122.3,180.9Z" fill="#fff"/><path d="M152.5,181.9V152.3h18.7v5.5H159.3v6.7h11.1V170H159.3v11.9Z" fill="#fff"/><path d="M175.1,181.9V167.6q0-4.8-.2-7.2h5.9l.2,4.1h.2a6.8,6.8,0,0,1,2.5-3.4,6,6,0,0,1,3.5-1.2h1.5v6.4l-1.8-.2a5.6,5.6,0,0,0-3.4,1.1q-1.5,1.1-1.5,3.8v10.9Z" fill="#fff"/><path d="M213.9,170.9a10.9,10.9,0,0,1-3.3,8.4,11.7,11.7,0,0,1-8.3,3.1,11.6,11.6,0,0,1-8.3-3,10.5,10.5,0,0,1-3.2-8,10.9,10.9,0,0,1,3.3-8.3,11.9,11.9,0,0,1,8.6-3.1,11.2,11.2,0,0,1,8.2,3.1A10.6,10.6,0,0,1,213.9,170.9Zm-16.2.3a7.8,7.8,0,0,0,1.2,4.6,4,4,0,0,0,6.6,0,7.9,7.9,0,0,0,1.2-4.7,8.1,8.1,0,0,0-1.2-4.6,3.8,3.8,0,0,0-3.3-1.8,3.9,3.9,0,0,0-3.4,1.8A8.1,8.1,0,0,0,197.7,171.2Z" fill="#fff"/><path d="M218.1,181.9V167.3q0-3.2-.2-6.9h5.7l.3,3h.1a7.5,7.5,0,0,1,6.6-3.5,6.9,6.9,0,0,1,3.7,1,5.7,5.7,0,0,1,2.3,2.8h.1a8.3,8.3,0,0,1,7.1-3.8,6.6,6.6,0,0,1,5.4,2.5q2,2.5,2,7v12.5h-6.6V170.4q0-5-3.3-5a3.1,3.1,0,0,0-2.5,1.1,4.4,4.4,0,0,0-1,3v12.5h-6.6V170a6,6,0,0,0-.8-3.5,2.7,2.7,0,0,0-2.4-1.2,3.2,3.2,0,0,0-2.5,1.1,4.3,4.3,0,0,0-1,3v12.4Z" fill="#fff"/><path d="M265,180.5l1.4-5.6a16.9,16.9,0,0,0,7.7,1.9,6.2,6.2,0,0,0,3.5-.9,2.7,2.7,0,0,0,1.3-2.4,2.8,2.8,0,0,0-1.1-2.2,14,14,0,0,0-4-1.8q-8.5-2.8-8.5-8.8a7.9,7.9,0,0,1,3.1-6.4,12.9,12.9,0,0,1,8.3-2.5,19,19,0,0,1,7.9,1.5l-1.5,5.4a15.1,15.1,0,0,0-6.5-1.5,5.7,5.7,0,0,0-3.2.8,2.4,2.4,0,0,0-1.2,2.1,2.5,2.5,0,0,0,1,2,18.2,18.2,0,0,0,4.7,2.1,14.3,14.3,0,0,1,6,3.6,7.7,7.7,0,0,1,1.9,5.3,8.1,8.1,0,0,1-3.2,6.6q-3.2,2.6-9,2.6A19.2,19.2,0,0,1,265,180.5Z" fill="#fff"/><path d="M290.2,181.9V150.6H297v12.5h.1a7.9,7.9,0,0,1,6.2-3.1,7.1,7.1,0,0,1,5.7,2.5q2.1,2.5,2.1,7.1v12.5h-6.8V170.3q0-4.8-3.6-4.8a3.7,3.7,0,0,0-2.6,1,3.6,3.6,0,0,0-1.1,2.8v12.7Z" fill="#fff"/><path d="M336,173.3H321.7a3.8,3.8,0,0,0,1.9,3,8.2,8.2,0,0,0,4.4,1.1,19.7,19.7,0,0,0,6.2-.9l.9,4.5a20.6,20.6,0,0,1-8,1.4q-5.5,0-8.7-2.9a10.5,10.5,0,0,1-3.1-8.1,11.8,11.8,0,0,1,3-8.1,10.3,10.3,0,0,1,8.1-3.4,9.1,9.1,0,0,1,7.3,3,11.6,11.6,0,0,1,2.6,7.8A10.7,10.7,0,0,1,336,173.3Zm-14.3-4.7H330a5.2,5.2,0,0,0-.9-2.9,3.3,3.3,0,0,0-3-1.4,3.9,3.9,0,0,0-2.9,1.2A5.4,5.4,0,0,0,321.7,168.7Z" fill="#fff"/><path d="M340.3,181.9V150.6h6.8v31.3Z" fill="#fff"/><path d="M353.5,156.4l6.6-1.8v5.9h4.9v5h-4.9V173a5.3,5.3,0,0,0,.6,3,2.4,2.4,0,0,0,2.1.9l2.1-.2v5.1a12.8,12.8,0,0,1-4.4.6,7.1,7.1,0,0,1-5-1.8q-2-1.8-2-6.5v-8.7h-2.9v-5h2.9Z" fill="#fff"/><path d="M388.3,173.3H374a3.8,3.8,0,0,0,1.9,3,8.2,8.2,0,0,0,4.4,1.1,19.7,19.7,0,0,0,6.2-.9l.9,4.5a20.6,20.6,0,0,1-8,1.4q-5.5,0-8.7-2.9a10.5,10.5,0,0,1-3.1-8.1,11.8,11.8,0,0,1,3-8.1,10.3,10.3,0,0,1,8.1-3.4,9.1,9.1,0,0,1,7.3,3,11.6,11.6,0,0,1,2.6,7.8A10.7,10.7,0,0,1,388.3,173.3ZM374,168.7h8.3a5.2,5.2,0,0,0-.9-2.9,3.3,3.3,0,0,0-3-1.4,3.9,3.9,0,0,0-2.9,1.2A5.4,5.4,0,0,0,374,168.7Z" fill="#fff"/><path d="M392.6,181.9V167.6q0-4.8-.2-7.2h5.9l.2,4.1h.2a6.8,6.8,0,0,1,2.5-3.4,6,6,0,0,1,3.5-1.2h1.5v6.4l-1.8-.2a5.6,5.6,0,0,0-3.4,1.1q-1.5,1.1-1.5,3.8v10.9Z" fill="#fff"/><path d="M46.7,209.2l6.6-1.8v5.9h4.9v5H53.3v7.6a5.3,5.3,0,0,0,.6,3,2.4,2.4,0,0,0,2.1.9l2.1-.2v5.1a12.8,12.8,0,0,1-4.4.6,7.1,7.1,0,0,1-5-1.8q-2-1.8-2-6.5v-8.7H43.7v-5h2.9Z" fill="#fff"/><path d="M83.8,223.7a10.9,10.9,0,0,1-3.3,8.4,11.7,11.7,0,0,1-8.3,3.1,11.6,11.6,0,0,1-8.3-3,10.5,10.5,0,0,1-3.2-8,10.9,10.9,0,0,1,3.3-8.3,11.9,11.9,0,0,1,8.6-3.1,11.2,11.2,0,0,1,8.2,3.1A10.6,10.6,0,0,1,83.8,223.7Zm-16.2.3a7.8,7.8,0,0,0,1.2,4.6,4,4,0,0,0,6.6,0,7.9,7.9,0,0,0,1.2-4.7,8.1,8.1,0,0,0-1.2-4.6,3.8,3.8,0,0,0-3.3-1.8,3.9,3.9,0,0,0-3.4,1.8A8.1,8.1,0,0,0,67.6,224Z" fill="#fff"/><path d="M97.3,205.1h6.8v11.4h11.7V205.1h6.8v29.7h-6.8V222.4H104.2v12.4H97.3Z" fill="#fff"/><path d="M150.2,223.7a10.9,10.9,0,0,1-3.3,8.4,11.7,11.7,0,0,1-8.3,3.1,11.6,11.6,0,0,1-8.3-3,10.5,10.5,0,0,1-3.2-8,10.9,10.9,0,0,1,3.3-8.3,11.9,11.9,0,0,1,8.6-3.1,11.2,11.2,0,0,1,8.2,3.1A10.6,10.6,0,0,1,150.2,223.7ZM134,224a7.8,7.8,0,0,0,1.2,4.6,4,4,0,0,0,6.6,0,7.9,7.9,0,0,0,1.2-4.7,8.1,8.1,0,0,0-1.2-4.6,3.8,3.8,0,0,0-3.3-1.8,3.9,3.9,0,0,0-3.4,1.8A8.1,8.1,0,0,0,134,224Z" fill="#fff"/><path d="M154.4,234.7V220.1q0-3.2-.2-6.9H160l.3,3h.1a7.5,7.5,0,0,1,6.6-3.5,6.9,6.9,0,0,1,3.7,1,5.7,5.7,0,0,1,2.3,2.8h.1a8.3,8.3,0,0,1,7.1-3.8,6.6,6.6,0,0,1,5.4,2.5q2,2.5,2,7v12.5h-6.6V223.2q0-5-3.3-5a3.1,3.1,0,0,0-2.5,1.1,4.4,4.4,0,0,0-1,3v12.5h-6.6V222.8a6,6,0,0,0-.8-3.5,2.7,2.7,0,0,0-2.4-1.2,3.2,3.2,0,0,0-2.5,1.1,4.3,4.3,0,0,0-1,3v12.4Z" fill="#fff"/><path d="M212.7,226.1H198.4a3.8,3.8,0,0,0,1.9,3,8.3,8.3,0,0,0,4.4,1.1,19.7,19.7,0,0,0,6.2-.9l.9,4.5a20.6,20.6,0,0,1-8,1.4q-5.5,0-8.7-2.9a10.5,10.5,0,0,1-3.1-8.1,11.8,11.8,0,0,1,3-8.1,10.3,10.3,0,0,1,8.1-3.4,9.1,9.1,0,0,1,7.3,3,11.6,11.6,0,0,1,2.6,7.8A10.7,10.7,0,0,1,212.7,226.1Zm-14.3-4.7h8.3a5.2,5.2,0,0,0-.9-2.9,3.3,3.3,0,0,0-3-1.4,3.9,3.9,0,0,0-2.9,1.2A5.4,5.4,0,0,0,198.3,221.5Z" fill="#fff"/><path d="M223.7,231.1a4,4,0,0,1-1.1,2.9,3.9,3.9,0,0,1-2.9,1.1,3.8,3.8,0,0,1-2.9-1.2,4,4,0,0,1-1.1-2.9,4,4,0,0,1,1.1-2.9,3.9,3.9,0,0,1,2.9-1.2,3.9,3.9,0,0,1,2.9,1.1A4.1,4.1,0,0,1,223.7,231.1Z" fill="#fff"/></svg>