<svg id="Layer_1" data-name="Layer 1" xmlns="http://www.w3.org/2000/svg" width="500" height="420" viewBox="0 0 500 420"><title>Artboard 1</title><rect x="-36" y="-30.2" width="572" height="480.48" fill="#f9a43e"/><path d="M45.9,76.3V46.7h6.7V59.7l2.5-3.5,6.8-9.5h8.4L60.2,59.3,70.9,76.3H63L55.3,63.5l-2.6,3.2v9.7Z" fill="#fff"/><path d="M92.2,67.7H77.9a3.8,3.8,0,0,0,1.9,3,8.2,8.2,0,0,0,4.4,1.1,19.7,19.7,0,0,0,6.2-.9l.9,4.5a20.6,20.6,0,0,1-8,1.4q-5.5,0-8.7-2.9a10.5,10.5,0,0,1-3.1-8.1,11.8,11.8,0,0,1,3-8.1,10.3,10.3,0,0,1,8.1-3.4,9.1,9.1,0,0,1,7.3,3,11.6,11.6,0,0,1,2.6,7.8A10.7,10.7,0,0,1,92.2,67.7ZM77.8,63.1h8.3a5.2,5.2,0,0,0-.9-2.9,3.3,3.3,0,0,0-3-1.4A3.9,3.9,0,0,0,79.3,60,5.4,5.4,0,0,0,77.8,63.1Z" fill="#fff"/><path d="M116,67.7H101.7a3.8,3.8,0,0,0,1.9,3,8.2,8.2,0,0,0,4.4,1.1,19.7,19.7,0,0,0,6.2-.9l.9,4.5a20.6,20.6,0,0,1-8,1.4q-5.5,0-8.7-2.9a10.5,10.5,0,0,1-3.1-8.1,11.8,11.8,0,0,1,3-8.1,10.3,10.3,0,0,1,8.1-3.4,9.1,9.1,0,0,1,7.3,3,11.6,11.6,0,0,1,2.6,7.8A10.7,10.7,0,0,1,116,67.7Zm-14.3-4.7h8.3a5.2,5.2,0,0,0-.9-2.9,3.3,3.3,0,0,0-3-1.4A3.9,3.9,0,0,0,103,60,5.4,5.4,0,0,0,101.6,63.1Z" fill="#fff"/><path d="M120.2,85v-23q0-3.3-.2-7.3H126l.3,3.1a8.9,8.9,0,0,1,7.6-3.6,8.4,8.4,0,0,1,6.5,3,11.4,11.4,0,0,1,2.7,7.9,11.8,11.8,0,0,1-2.9,8.4,9.5,9.5,0,0,1-7.2,3.1,8.7,8.7,0,0,1-3.4-.7,5.2,5.2,0,0,1-2.4-1.8H127V85ZM127,64.3V67a5.3,5.3,0,0,0,.5,2.3,4.2,4.2,0,0,0,1.5,1.6,4.1,4.1,0,0,0,2.3.7,4.3,4.3,0,0,0,3.5-1.6,6.8,6.8,0,0,0,1.3-4.4,6.9,6.9,0,0,0-1.3-4.3,4.1,4.1,0,0,0-3.4-1.6,4.2,4.2,0,0,0-3.1,1.3A4.6,4.6,0,0,0,127,64.3Z" fill="#fff"/><path d="M154.5,48.4a3.4,3.4,0,0,1-1.1,2.6,4.3,4.3,0,0,1-5.5,0,3.6,3.6,0,0,1,0-5.1,4.3,4.3,0,0,1,5.5,0A3.4,3.4,0,0,1,154.5,48.4Zm-.4,27.9h-6.8V54.8h6.8Z" fill="#fff"/><path d="M159.6,76.3V61.7q0-3.2-.2-6.9h5.9l.3,3h.2a7.8,7.8,0,0,1,6.8-3.5,7.3,7.3,0,0,1,5.8,2.5q2.1,2.5,2.1,6.9V76.3h-6.8V64.6q0-4.8-3.6-4.8a3.6,3.6,0,0,0-2.6,1.1,4.1,4.1,0,0,0-1.1,3.1V76.3Z" fill="#fff"/><path d="M206.9,61.2V73.1q0,6.3-2.9,9.4t-9.4,3.1a16.8,16.8,0,0,1-8-1.7l1.4-5.1a13.1,13.1,0,0,0,6.5,1.7,5.9,5.9,0,0,0,4.2-1.5,5.6,5.6,0,0,0,1.5-4.2V73.3h-.1a7.1,7.1,0,0,1-6,2.9,8.7,8.7,0,0,1-6.7-2.9,10.8,10.8,0,0,1-2.7-7.5,11.7,11.7,0,0,1,2.9-8.2,9.3,9.3,0,0,1,7.1-3.2,6.7,6.7,0,0,1,6.1,3.1h.1l.2-2.6h5.9Q206.9,57.4,206.9,61.2Zm-6.8,5.4V63.7a4.4,4.4,0,0,0-1.1-3.1,3.6,3.6,0,0,0-2.8-1.2,4,4,0,0,0-3.2,1.6,7,7,0,0,0-1.3,4.4,6.6,6.6,0,0,0,1.2,4.1,3.9,3.9,0,0,0,3.3,1.6,4.1,4.1,0,0,0,2.7-1Q200.1,69.1,200.1,66.6Z" fill="#fff"/><path d="M239.9,63.6v7.5a31.1,31.1,0,0,0,.4,5.2h-6.1l-.4-2.2h-.2a7.8,7.8,0,0,1-6.3,2.6,7.1,7.1,0,0,1-5.1-1.9,6.3,6.3,0,0,1-2-4.7,6.8,6.8,0,0,1,3.4-6.1q3.4-2.1,9.6-2.1v-.3q0-2.7-4-2.7a12,12,0,0,0-6.1,1.6l-1.3-4.3a17.5,17.5,0,0,1,8.6-2q4.8,0,7.2,2.4T239.9,63.6Zm-6.6,4.8V66.2q-6.5,0-6.5,3.3a2.4,2.4,0,0,0,.7,1.9,2.8,2.8,0,0,0,2,.7,3.9,3.9,0,0,0,2.6-1A3.3,3.3,0,0,0,233.3,68.4Z" fill="#fff"/><path d="M269.2,45H276V69.9q0,3.5.2,6.4h-6.1l-.3-3.3h-.1a7.6,7.6,0,0,1-7,3.7,8.6,8.6,0,0,1-6.7-3.1,11.5,11.5,0,0,1-2.7-8,11.8,11.8,0,0,1,2.9-8.3,9.2,9.2,0,0,1,7.1-3.1q4.1,0,5.9,2.5h.1Zm0,21.6V64.1a4.6,4.6,0,0,0-1.2-3.3,3.9,3.9,0,0,0-3-1.3,4.3,4.3,0,0,0-3.5,1.7,6.9,6.9,0,0,0-1.3,4.4,6.5,6.5,0,0,0,1.3,4.3,4.5,4.5,0,0,0,6.4.4A4.7,4.7,0,0,0,269.2,66.6Z" fill="#fff"/><path d="M303.3,65.3a10.9,10.9,0,0,1-3.3,8.4,11.7,11.7,0,0,1-8.3,3.1,11.6,11.6,0,0,1-8.3-3,10.5,10.5,0,0,1-3.2-8,10.9,10.9,0,0,1,3.3-8.3,11.9,11.9,0,0,1,8.6-3.1,11.2,11.2,0,0,1,8.2,3.1A10.6,10.6,0,0,1,303.3,65.3Zm-16.2.3a7.8,7.8,0,0,0,1.2,4.6,4,4,0,0,0,6.6,0,7.9,7.9,0,0,0,1.2-4.7,8.1,8.1,0,0,0-1.2-4.6,3.8,3.8,0,0,0-3.3-1.8,3.9,3.9,0,0,0-3.4,1.8A8.1,8.1,0,0,0,287.2,65.6Z" fill="#fff"/><path d="M328.5,61.2V73.1q0,6.3-2.9,9.4t-9.3,3.1a16.8,16.8,0,0,1-8-1.7l1.4-5.1a13.1,13.1,0,0,0,6.5,1.7,5.9,5.9,0,0,0,4.2-1.5,5.6,5.6,0,0,0,1.5-4.2V73.3h-.1a7.1,7.1,0,0,1-6,2.9,8.7,8.7,0,0,1-6.7-2.9,10.8,10.8,0,0,1-2.7-7.5,11.7,11.7,0,0,1,2.9-8.2,9.3,9.3,0,0,1,7.1-3.2,6.7,6.7,0,0,1,6.1,3.1h.1l.2-2.6h5.9Q328.5,57.4,328.5,61.2Zm-6.8,5.4V63.7a4.4,4.4,0,0,0-1.1-3.1,3.6,3.6,0,0,0-2.8-1.2,4,4,0,0,0-3.2,1.6,7,7,0,0,0-1.3,4.4,6.6,6.6,0,0,0,1.2,4.1,3.9,3.9,0,0,0,3.3,1.6,4.1,4.1,0,0,0,2.7-1Q321.6,69.1,321.6,66.6Z" fill="#fff"/><path d="M341.4,72.8a4,4,0,0,1-1.1,2.9,4.2,4.2,0,0,1-5.8,0,4,4,0,0,1-1.1-2.9,4,4,0,0,1,1.1-2.9,4.2,4.2,0,0,1,5.8,0A4.1,4.1,0,0,1,341.4,72.8Zm0-14.2a4,4,0,0,1-1.1,2.9,4.2,4.2,0,0,1-5.8,0,4,4,0,0,1-1.1-2.9,4.1,4.1,0,0,1,1.1-2.9,4.2,4.2,0,0,1,5.8,0A4.1,4.1,0,0,1,341.4,58.6Z" fill="#fff"/><path d="M44.8,127.7l1.4-5.6a16.9,16.9,0,0,0,7.7,1.9,6.2,6.2,0,0,0,3.5-.9,2.7,2.7,0,0,0,1.3-2.4,2.8,2.8,0,0,0-1.1-2.2,14,14,0,0,0-4-1.8q-8.5-2.8-8.5-8.8a7.9,7.9,0,0,1,3.1-6.4A12.9,12.9,0,0,1,56.6,99a19,19,0,0,1,7.9,1.5L63,105.9a15.1,15.1,0,0,0-6.5-1.5,5.7,5.7,0,0,0-3.2.8,2.4,2.4,0,0,0-1.2,2.1,2.5,2.5,0,0,0,1,2,18.1,18.1,0,0,0,4.7,2.1,14.3,14.3,0,0,1,6,3.6,7.7,7.7,0,0,1,1.9,5.3,8.1,8.1,0,0,1-3.2,6.6q-3.2,2.6-9,2.6A19.2,19.2,0,0,1,44.8,127.7Z" fill="#fff"/><path d="M90,120.5H75.7a3.8,3.8,0,0,0,1.9,3,8.2,8.2,0,0,0,4.4,1.1,19.7,19.7,0,0,0,6.2-.9l.9,4.5a20.6,20.6,0,0,1-8,1.4q-5.5,0-8.7-2.9a10.5,10.5,0,0,1-3.1-8.1,11.8,11.8,0,0,1,3-8.1,10.3,10.3,0,0,1,8.1-3.4,9.1,9.1,0,0,1,7.3,3,11.6,11.6,0,0,1,2.6,7.8A10.7,10.7,0,0,1,90,120.5Zm-14.3-4.7H84a5.2,5.2,0,0,0-.9-2.9,3.3,3.3,0,0,0-3-1.4,3.9,3.9,0,0,0-2.9,1.2A5.4,5.4,0,0,0,75.7,115.9Z" fill="#fff"/><path d="M110.1,123.6l.8,5a16.2,16.2,0,0,1-6.3,1.1,11.8,11.8,0,0,1-8.5-3,10.6,10.6,0,0,1-3.2-8,10.8,10.8,0,0,1,3.4-8.2q3.4-3.2,9.2-3.2a15.1,15.1,0,0,1,5.3.9l-1.1,5a10,10,0,0,0-3.9-.7,5.8,5.8,0,0,0-4.3,1.7,5.9,5.9,0,0,0-1.6,4.3,5.7,5.7,0,0,0,1.7,4.4,6.1,6.1,0,0,0,4.4,1.6A11.4,11.4,0,0,0,110.1,123.6Z" fill="#fff"/><path d="M135.7,107.6v14.6q0,3.5.2,7h-5.9l-.3-3.1h-.2a7.6,7.6,0,0,1-6.9,3.6,7.1,7.1,0,0,1-5.7-2.4q-2-2.4-2-7V107.6h6.8v11.5q0,5.1,3.5,5.1a3.7,3.7,0,0,0,2.6-1.1,3.6,3.6,0,0,0,1.1-2.7V107.6Z" fill="#fff"/><path d="M141.2,129.1V114.8q0-4.8-.2-7.2h5.9l.2,4.1h.2a6.8,6.8,0,0,1,2.5-3.4,6,6,0,0,1,3.5-1.2h1.5v6.4l-1.8-.2a5.6,5.6,0,0,0-3.4,1.1q-1.5,1.1-1.5,3.8v10.9Z" fill="#fff"/><path d="M177.5,120.5H163.2a3.8,3.8,0,0,0,1.9,3,8.2,8.2,0,0,0,4.4,1.1,19.7,19.7,0,0,0,6.2-.9l.9,4.5a20.6,20.6,0,0,1-8,1.4q-5.5,0-8.7-2.9a10.5,10.5,0,0,1-3.1-8.1,11.8,11.8,0,0,1,3-8.1,10.3,10.3,0,0,1,8.1-3.4,9.1,9.1,0,0,1,7.3,3,11.6,11.6,0,0,1,2.6,7.8A10.7,10.7,0,0,1,177.5,120.5Zm-14.3-4.7h8.3a5.2,5.2,0,0,0-.9-2.9,3.3,3.3,0,0,0-3-1.4,3.9,3.9,0,0,0-2.9,1.2A5.4,5.4,0,0,0,163.2,115.9Z" fill="#fff"/><path d="M188.5,107.6H196q4.2,13.2,4.4,14.6h.1l3.8-14.6h7.3l-5,13.6a83.1,83.1,0,0,1-3.6,8.7,21.5,21.5,0,0,1-3.2,4.9,12.8,12.8,0,0,1-3.6,2.7,11.9,11.9,0,0,1-4.1,1.2l-1.4-5.7a8.6,8.6,0,0,0,4.5-2.2q1.7-1.7,1.7-2.5a4,4,0,0,0-.4-1.1Z" fill="#fff"/><path d="M235.8,118.1a10.9,10.9,0,0,1-3.3,8.4,11.7,11.7,0,0,1-8.3,3.1,11.6,11.6,0,0,1-8.3-3,10.5,10.5,0,0,1-3.2-8,10.9,10.9,0,0,1,3.3-8.3,11.9,11.9,0,0,1,8.6-3.1,11.2,11.2,0,0,1,8.2,3.1A10.6,10.6,0,0,1,235.8,118.1Zm-16.2.3a7.8,7.8,0,0,0,1.2,4.6,4,4,0,0,0,6.6,0,7.9,7.9,0,0,0,1.2-4.7,8.1,8.1,0,0,0-1.2-4.6,3.8,3.8,0,0,0-3.3-1.8,3.9,3.9,0,0,0-3.4,1.8A8.1,8.1,0,0,0,219.6,118.4Z" fill="#fff"/><path d="M260.8,107.6v14.6q0,3.5.2,7h-5.9l-.3-3.1h-.2a7.6,7.6,0,0,1-6.9,3.6,7.1,7.1,0,0,1-5.7-2.4q-2-2.4-2-7V107.6h6.8v11.5q0,5.1,3.5,5.1a3.7,3.7,0,0,0,2.6-1.1,3.6,3.6,0,0,0,1.1-2.7V107.6Z" fill="#fff"/><path d="M266.4,129.1V114.8q0-4.8-.2-7.2h5.9l.2,4.1h.2a6.8,6.8,0,0,1,2.5-3.4,6,6,0,0,1,3.5-1.2h1.5v6.4l-1.8-.2a5.6,5.6,0,0,0-3.4,1.1q-1.5,1.1-1.5,3.8v10.9Z" fill="#fff"/><path d="M54.8,175.5V150.6h6.8v12.5h.1a7.8,7.8,0,0,1,6.8-3.1,8.3,8.3,0,0,1,6.6,3,11.6,11.6,0,0,1,2.6,7.9,13.5,13.5,0,0,1-1.3,6,9.8,9.8,0,0,1-8.9,5.6,7.3,7.3,0,0,1-6.7-3.5h-.1l-.3,3H54.7Q54.8,179,54.8,175.5Zm6.8-5.7v2.8a4.2,4.2,0,0,0,1.3,3.3,4.4,4.4,0,0,0,3,1.2,4.3,4.3,0,0,0,3.5-1.6,6.8,6.8,0,0,0,1.3-4.4,6.8,6.8,0,0,0-1.3-4.3,4.3,4.3,0,0,0-3.6-1.6,4.1,4.1,0,0,0-3,1.3A4.6,4.6,0,0,0,61.7,169.8Z" fill="#fff"/><path d="M101.4,173.3H87.1a3.8,3.8,0,0,0,1.9,3,8.2,8.2,0,0,0,4.4,1.1,19.7,19.7,0,0,0,6.2-.9l.9,4.5a20.6,20.6,0,0,1-8,1.4q-5.5,0-8.7-2.9a10.5,10.5,0,0,1-3.1-8.1,11.8,11.8,0,0,1,3-8.1,10.3,10.3,0,0,1,8.1-3.4,9.1,9.1,0,0,1,7.3,3,11.6,11.6,0,0,1,2.6,7.8A10.7,10.7,0,0,1,101.4,173.3ZM87,168.7h8.3a5.2,5.2,0,0,0-.9-2.9,3.3,3.3,0,0,0-3-1.4,3.9,3.9,0,0,0-2.9,1.2A5.4,5.4,0,0,0,87,168.7Z" fill="#fff"/><path d="M105.7,181.9V150.6h6.8v31.3Z" fill="#fff"/><path d="M139.9,170.9a10.9,10.9,0,0,1-3.3,8.4,11.7,11.7,0,0,1-8.3,3.1,11.6,11.6,0,0,1-8.3-3,10.5,10.5,0,0,1-3.2-8,10.9,10.9,0,0,1,3.3-8.3,11.9,11.9,0,0,1,8.6-3.1,11.2,11.2,0,0,1,8.2,3.1A10.6,10.6,0,0,1,139.9,170.9Zm-16.2.3a7.8,7.8,0,0,0,1.2,4.6,4,4,0,0,0,6.6,0,7.9,7.9,0,0,0,1.2-4.7,8.1,8.1,0,0,0-1.2-4.6,3.8,3.8,0,0,0-3.3-1.8,3.9,3.9,0,0,0-3.4,1.8A8.1,8.1,0,0,0,123.7,171.2Z" fill="#fff"/><path d="M144.1,181.9V167.3q0-3.2-.2-6.9h5.9l.3,3h.2a7.8,7.8,0,0,1,6.8-3.5,7.3,7.3,0,0,1,5.8,2.5q2.1,2.5,2.1,6.9v12.6h-6.8V170.2q0-4.8-3.6-4.8a3.6,3.6,0,0,0-2.6,1.1,4.1,4.1,0,0,0-1.1,3.1v12.3Z" fill="#fff"/><path d="M191.4,166.8v11.9q0,6.3-2.9,9.4t-9.4,3.1a16.8,16.8,0,0,1-8-1.7l1.4-5.1A13.1,13.1,0,0,0,179,186a5.9,5.9,0,0,0,4.2-1.5,5.6,5.6,0,0,0,1.5-4.2v-1.4h-.1a7.1,7.1,0,0,1-6,2.9,8.7,8.7,0,0,1-6.7-2.9,10.8,10.8,0,0,1-2.7-7.5,11.7,11.7,0,0,1,2.9-8.2,9.3,9.3,0,0,1,7.1-3.2,6.7,6.7,0,0,1,6.1,3.1h.1l.2-2.6h5.9Q191.4,163,191.4,166.8Zm-6.8,5.4v-2.9a4.4,4.4,0,0,0-1.1-3.1,3.6,3.6,0,0,0-2.8-1.2,4,4,0,0,0-3.2,1.6,7,7,0,0,0-1.3,4.4,6.6,6.6,0,0,0,1.2,4.1,3.9,3.9,0,0,0,3.3,1.6,4.1,4.1,0,0,0,2.7-1Q184.6,174.7,184.6,172.2Z" fill="#fff"/><path d="M204.2,154a3.4,3.4,0,0,1-1.1,2.6,4.3,4.3,0,0,1-5.5,0,3.6,3.6,0,0,1,0-5.1,4.3,4.3,0,0,1,5.5,0A3.4,3.4,0,0,1,204.2,154Zm-.4,27.9H197V160.4h6.8Z" fill="#fff"/><path d="M209.3,181.9V167.3q0-3.2-.2-6.9H215l.3,3h.2a7.8,7.8,0,0,1,6.8-3.5,7.3,7.3,0,0,1,5.8,2.5q2.1,2.5,2.1,6.9v12.6h-6.8V170.2q0-4.8-3.6-4.8a3.6,3.6,0,0,0-2.6,1.1,4.1,4.1,0,0,0-1.1,3.1v12.3Z" fill="#fff"/><path d="M256.6,166.8v11.9q0,6.3-2.9,9.4t-9.4,3.1a16.8,16.8,0,0,1-8-1.7l1.4-5.1a13.1,13.1,0,0,0,6.5,1.7,5.9,5.9,0,0,0,4.2-1.5,5.6,5.6,0,0,0,1.5-4.2v-1.4h-.1a7.1,7.1,0,0,1-6,2.9,8.7,8.7,0,0,1-6.7-2.9,10.8,10.8,0,0,1-2.7-7.5,11.7,11.7,0,0,1,2.9-8.2,9.3,9.3,0,0,1,7.1-3.2,6.7,6.7,0,0,1,6.1,3.1h.1l.2-2.6h5.9Q256.6,163,256.6,166.8Zm-6.8,5.4v-2.9a4.4,4.4,0,0,0-1.1-3.1,3.6,3.6,0,0,0-2.8-1.2,4,4,0,0,0-3.2,1.6,7,7,0,0,0-1.3,4.4,6.6,6.6,0,0,0,1.2,4.1,3.9,3.9,0,0,0,3.3,1.6,4.1,4.1,0,0,0,2.7-1Q249.8,174.7,249.8,172.2Z" fill="#fff"/><path d="M260.8,180.9l1.2-4.8a12.5,12.5,0,0,0,2.9,1.2,11.8,11.8,0,0,0,3.1.5q2.9,0,2.9-1.8a1.6,1.6,0,0,0-.7-1.4,10.7,10.7,0,0,0-2.5-1.1q-6.3-2-6.3-6.4a6.3,6.3,0,0,1,2.5-5.1,10,10,0,0,1,6.5-2,14.6,14.6,0,0,1,6.2,1.3l-1.2,4.7a11.2,11.2,0,0,0-4.8-1.2q-2.6,0-2.6,1.7a1.5,1.5,0,0,0,.8,1.3,12.5,12.5,0,0,0,2.8,1.2,10.1,10.1,0,0,1,4.5,2.6,5.8,5.8,0,0,1,1.5,4,6.1,6.1,0,0,1-2.5,5.1,11.4,11.4,0,0,1-7,1.9A15.9,15.9,0,0,1,260.8,180.9Z" fill="#fff"/><path d="M309.2,169.2v7.5a31.2,31.2,0,0,0,.4,5.2h-6.1l-.4-2.2h-.2a7.8,7.8,0,0,1-6.3,2.6,7.1,7.1,0,0,1-5.1-1.9,6.3,6.3,0,0,1-2-4.7,6.9,6.9,0,0,1,3.4-6.1q3.4-2.1,9.6-2.1v-.3q0-2.7-4-2.7a12,12,0,0,0-6.1,1.6l-1.3-4.3a17.5,17.5,0,0,1,8.6-2q4.8,0,7.2,2.4T309.2,169.2Zm-6.6,4.8v-2.2q-6.5,0-6.5,3.3a2.4,2.4,0,0,0,.7,1.9,2.8,2.8,0,0,0,2,.7,3.9,3.9,0,0,0,2.6-1A3.3,3.3,0,0,0,302.6,174Z" fill="#fff"/><path d="M314.7,181.9V167.3q0-3.2-.2-6.9h5.9l.3,3h.2a7.8,7.8,0,0,1,6.8-3.5,7.3,7.3,0,0,1,5.8,2.5q2.1,2.5,2.1,6.9v12.6h-6.8V170.2q0-4.8-3.6-4.8a3.6,3.6,0,0,0-2.6,1.1,4.1,4.1,0,0,0-1.1,3.1v12.3Z" fill="#fff"/><path d="M355.7,150.6h6.8v24.9q0,3.5.2,6.4h-6.1l-.3-3.3h-.1a7.6,7.6,0,0,1-7,3.7,8.6,8.6,0,0,1-6.7-3.1,11.5,11.5,0,0,1-2.7-8,11.8,11.8,0,0,1,2.9-8.3,9.2,9.2,0,0,1,7.1-3.1q4.1,0,5.9,2.5h.1Zm0,21.6v-2.5a4.6,4.6,0,0,0-1.2-3.3,3.9,3.9,0,0,0-3-1.3,4.3,4.3,0,0,0-3.5,1.7,6.9,6.9,0,0,0-1.3,4.4,6.5,6.5,0,0,0,1.3,4.3,4.5,4.5,0,0,0,6.4.4A4.7,4.7,0,0,0,355.7,172.2Z" fill="#fff"/><path d="M43.3,213.2h7.6q4.2,13.2,4.4,14.6h.1l3.8-14.6h7.3l-5,13.6a83.1,83.1,0,0,1-3.6,8.7,21.5,21.5,0,0,1-3.2,5,12.8,12.8,0,0,1-3.6,2.7,11.9,11.9,0,0,1-4.1,1.2l-1.4-5.7a8.6,8.6,0,0,0,4.5-2.2q1.7-1.7,1.7-2.5a4,4,0,0,0-.4-1.1Z" fill="#fff"/><path d="M90.7,223.7a10.9,10.9,0,0,1-3.3,8.4,11.7,11.7,0,0,1-8.3,3.1,11.6,11.6,0,0,1-8.3-3,10.5,10.5,0,0,1-3.2-8,10.9,10.9,0,0,1,3.3-8.3,11.9,11.9,0,0,1,8.6-3.1,11.2,11.2,0,0,1,8.2,3.1A10.6,10.6,0,0,1,90.7,223.7Zm-16.2.3a7.8,7.8,0,0,0,1.2,4.6,4,4,0,0,0,6.6,0,7.9,7.9,0,0,0,1.2-4.7,8.1,8.1,0,0,0-1.2-4.6,3.8,3.8,0,0,0-3.3-1.8,3.9,3.9,0,0,0-3.4,1.8A8.1,8.1,0,0,0,74.5,224Z" fill="#fff"/><path d="M115.7,213.2v14.6q0,3.5.2,7H110l-.3-3.1h-.2a7.6,7.6,0,0,1-6.9,3.6,7.1,7.1,0,0,1-5.7-2.4q-2-2.4-2-7V213.2h6.8v11.5q0,5.1,3.5,5.1a3.7,3.7,0,0,0,2.6-1.1,3.6,3.6,0,0,0,1.1-2.7V213.2Z" fill="#fff"/><path d="M121.2,234.7V220.4q0-4.8-.2-7.2h5.9l.2,4.1h.2a6.8,6.8,0,0,1,2.5-3.4,6,6,0,0,1,3.5-1.2h1.5v6.4l-1.8-.2a5.6,5.6,0,0,0-3.4,1.1q-1.5,1.1-1.5,3.8v10.9Z" fill="#fff"/><path d="M147.5,243.4v-23q0-3.3-.2-7.3h5.9l.3,3.1a8.9,8.9,0,0,1,7.6-3.6,8.4,8.4,0,0,1,6.5,3,11.4,11.4,0,0,1,2.7,7.9,11.8,11.8,0,0,1-2.9,8.4,9.5,9.5,0,0,1-7.2,3.1,8.7,8.7,0,0,1-3.4-.7,5.2,5.2,0,0,1-2.4-1.8h-.1v10.7Zm6.8-20.7v2.6a5.3,5.3,0,0,0,.5,2.3,4.2,4.2,0,0,0,1.5,1.6,4.1,4.1,0,0,0,2.3.7,4.3,4.3,0,0,0,3.5-1.6,6.8,6.8,0,0,0,1.3-4.4,6.9,6.9,0,0,0-1.3-4.3,4.1,4.1,0,0,0-3.4-1.6,4.2,4.2,0,0,0-3.1,1.3A4.6,4.6,0,0,0,154.3,222.7Z" fill="#fff"/><path d="M194,226.1H179.7a3.8,3.8,0,0,0,1.9,3,8.3,8.3,0,0,0,4.4,1.1,19.7,19.7,0,0,0,6.2-.9l.9,4.5a20.6,20.6,0,0,1-8,1.4q-5.5,0-8.7-2.9a10.5,10.5,0,0,1-3.1-8.1,11.8,11.8,0,0,1,3-8.1,10.3,10.3,0,0,1,8.1-3.4,9.1,9.1,0,0,1,7.3,3,11.6,11.6,0,0,1,2.6,7.8A10.7,10.7,0,0,1,194,226.1Zm-14.3-4.7h8.3a5.2,5.2,0,0,0-.9-2.9,3.3,3.3,0,0,0-3-1.4,3.9,3.9,0,0,0-2.9,1.2A5.4,5.4,0,0,0,179.7,221.5Z" fill="#fff"/><path d="M199.2,209.2l6.6-1.8v5.9h4.9v5h-4.9v7.6a5.3,5.3,0,0,0,.6,3,2.4,2.4,0,0,0,2.1.9l2.1-.2v5.1a12.8,12.8,0,0,1-4.4.6,7.1,7.1,0,0,1-5-1.8q-2-1.8-2-6.5v-8.7h-2.9v-5h2.9Z" fill="#fff"/><path d="M213.5,233.7l1.2-4.8a12.5,12.5,0,0,0,2.9,1.2,11.8,11.8,0,0,0,3.1.5q2.9,0,2.9-1.8a1.6,1.6,0,0,0-.7-1.4,10.6,10.6,0,0,0-2.5-1.1q-6.3-2-6.3-6.4a6.3,6.3,0,0,1,2.5-5.1,10,10,0,0,1,6.5-2,14.6,14.6,0,0,1,6.2,1.3l-1.2,4.7a11.1,11.1,0,0,0-4.8-1.2q-2.6,0-2.6,1.7a1.5,1.5,0,0,0,.8,1.3,12.4,12.4,0,0,0,2.8,1.2,10.1,10.1,0,0,1,4.5,2.6,5.8,5.8,0,0,1,1.5,4,6.1,6.1,0,0,1-2.5,5.1,11.4,11.4,0,0,1-7,1.9A15.9,15.9,0,0,1,213.5,233.7Z" fill="#fff"/><path d="M242.2,233.7l1.2-4.8a12.5,12.5,0,0,0,2.9,1.2,11.8,11.8,0,0,0,3.1.5q2.9,0,2.9-1.8a1.6,1.6,0,0,0-.7-1.4,10.6,10.6,0,0,0-2.5-1.1q-6.3-2-6.3-6.4a6.3,6.3,0,0,1,2.5-5.1,10,10,0,0,1,6.5-2A14.6,14.6,0,0,1,258,214l-1.2,4.7a11.1,11.1,0,0,0-4.8-1.2q-2.6,0-2.6,1.7a1.5,1.5,0,0,0,.8,1.3,12.4,12.4,0,0,0,2.8,1.2,10.1,10.1,0,0,1,4.5,2.6,5.8,5.8,0,0,1,1.5,4,6.1,6.1,0,0,1-2.5,5.1,11.3,11.3,0,0,1-7,1.9A15.9,15.9,0,0,1,242.2,233.7Z" fill="#fff"/><path d="M281.5,222v7.5a31.2,31.2,0,0,0,.4,5.2h-6.1l-.4-2.2h-.2a7.8,7.8,0,0,1-6.3,2.6,7.1,7.1,0,0,1-5.1-1.9,6.3,6.3,0,0,1-2-4.7,6.9,6.9,0,0,1,3.4-6.1q3.4-2.1,9.6-2.1v-.3q0-2.7-4-2.7a12,12,0,0,0-6.1,1.6l-1.3-4.3a17.5,17.5,0,0,1,8.6-2q4.8,0,7.2,2.4T281.5,222Zm-6.6,4.8v-2.2q-6.5,0-6.5,3.3a2.4,2.4,0,0,0,.7,1.9,2.8,2.8,0,0,0,2,.7,4,4,0,0,0,2.6-1A3.3,3.3,0,0,0,274.9,226.8Z" fill="#fff"/><path d="M294.5,234.7h-6.8V218.2h-2.8v-5h2.8v-.8a11.6,11.6,0,0,1,1.1-5,7.2,7.2,0,0,1,3.2-3.4,9.6,9.6,0,0,1,4.5-1.1,15,15,0,0,1,3.6.4l-.2,5.2a7.4,7.4,0,0,0-2.2-.3,2.8,2.8,0,0,0-2.3,1,4.3,4.3,0,0,0-.8,2.8v1.1h4.4v5h-4.3Z" fill="#fff"/><path d="M321.4,226.1H307.1a3.8,3.8,0,0,0,1.9,3,8.3,8.3,0,0,0,4.4,1.1,19.7,19.7,0,0,0,6.2-.9l.9,4.5a20.6,20.6,0,0,1-8,1.4q-5.5,0-8.7-2.9a10.5,10.5,0,0,1-3.1-8.1,11.8,11.8,0,0,1,3-8.1,10.3,10.3,0,0,1,8.1-3.4,9.1,9.1,0,0,1,7.3,3,11.6,11.6,0,0,1,2.6,7.8A10.7,10.7,0,0,1,321.4,226.1ZM307,221.5h8.3a5.2,5.2,0,0,0-.9-2.9,3.3,3.3,0,0,0-3-1.4,3.9,3.9,0,0,0-2.9,1.2A5.4,5.4,0,0,0,307,221.5Z" fill="#fff"/><path d="M326.6,209.2l6.6-1.8v5.9h4.9v5h-4.9v7.6a5.3,5.3,0,0,0,.6,3,2.4,2.4,0,0,0,2.1.9l2.1-.2v5.1a12.8,12.8,0,0,1-4.4.6,7.1,7.1,0,0,1-5-1.8q-2-1.8-2-6.5v-8.7h-2.9v-5h2.9Z" fill="#fff"/><path d="M339.9,213.2h7.6q4.2,13.2,4.4,14.6h.1l3.8-14.6h7.3l-5,13.6a83.3,83.3,0,0,1-3.6,8.7,21.5,21.5,0,0,1-3.2,5,12.8,12.8,0,0,1-3.6,2.7,11.9,11.9,0,0,1-4.1,1.2l-1.4-5.7a8.6,8.6,0,0,0,4.5-2.2q1.7-1.7,1.7-2.5a4,4,0,0,0-.4-1.1Z" fill="#fff"/><path d="M371.4,231.1a4,4,0,0,1-1.1,2.9,3.9,3.9,0,0,1-2.9,1.1,3.8,3.8,0,0,1-2.9-1.2,4,4,0,0,1-1.1-2.9,4,4,0,0,1,1.1-2.9,3.9,3.9,0,0,1,2.9-1.2,3.9,3.9,0,0,1,2.9,1.1A4.1,4.1,0,0,1,371.4,231.1Z" fill="#fff"/></svg>