<svg id="Layer_1" data-name="Layer 1" xmlns="http://www.w3.org/2000/svg" width="500" height="420" viewBox="0 0 500 420"><title>Artboard 1</title><rect x="-42.9" y="-36" width="585.7" height="492" fill="#f9a43e"/><path d="M62,68.6H53.1l-2.2,7.7H43.8l9.4-29.7h9l9.6,29.7H64.4Zm-7.9-5H61q-2.7-8.7-3.5-11.9h-.1L56,57.3Z" fill="#fff"/><path d="M75.4,69.9V45h6.8V57.5h.1a7.8,7.8,0,0,1,6.8-3.1,8.3,8.3,0,0,1,6.6,3,11.6,11.6,0,0,1,2.6,7.9,13.5,13.5,0,0,1-1.3,6,9.8,9.8,0,0,1-8.9,5.6,7.3,7.3,0,0,1-6.7-3.5h-.1l-.3,3H75.2Q75.4,73.4,75.4,69.9Zm6.8-5.7V67a4.2,4.2,0,0,0,1.3,3.3,4.4,4.4,0,0,0,3,1.2,4.3,4.3,0,0,0,3.5-1.6,6.8,6.8,0,0,0,1.3-4.4,6.8,6.8,0,0,0-1.3-4.3,4.3,4.3,0,0,0-3.6-1.6,4.1,4.1,0,0,0-3,1.3A4.6,4.6,0,0,0,82.2,64.2Z" fill="#fff"/><path d="M124.4,65.3a10.9,10.9,0,0,1-3.3,8.4,11.7,11.7,0,0,1-8.3,3.1,11.6,11.6,0,0,1-8.3-3,10.5,10.5,0,0,1-3.2-8,10.9,10.9,0,0,1,3.3-8.3,11.9,11.9,0,0,1,8.6-3.1,11.2,11.2,0,0,1,8.2,3.1A10.6,10.6,0,0,1,124.4,65.3Zm-16.2.3a7.8,7.8,0,0,0,1.2,4.6,4,4,0,0,0,6.6,0,7.9,7.9,0,0,0,1.2-4.7,8.1,8.1,0,0,0-1.2-4.6,3.8,3.8,0,0,0-3.3-1.8,3.9,3.9,0,0,0-3.4,1.8A8.1,8.1,0,0,0,108.2,65.6Z" fill="#fff"/><path d="M149.4,54.8V69.4q0,3.5.2,7h-5.9l-.3-3.1h-.2a7.6,7.6,0,0,1-6.9,3.6,7.1,7.1,0,0,1-5.7-2.4q-2-2.4-2-7V54.8h6.8V66.3q0,5.1,3.5,5.1a3.7,3.7,0,0,0,2.6-1.1,3.6,3.6,0,0,0,1.1-2.7V54.8Z" fill="#fff"/><path d="M155.8,50.8l6.6-1.8v5.9h4.9v5h-4.9v7.6a5.3,5.3,0,0,0,.6,3,2.4,2.4,0,0,0,2.1.9l2.1-.2v5.1a12.8,12.8,0,0,1-4.4.6,7.1,7.1,0,0,1-5-1.8q-2-1.8-2-6.5V59.8h-2.9v-5h2.9Z" fill="#fff"/><path d="M180.6,76.3V47a65.4,65.4,0,0,1,9.4-.6q6.5,0,9.5,2.6a8.6,8.6,0,0,1,2.9,6.7,9,9,0,0,1-3.4,7.6q-3.4,2.6-9.3,2.6l-2.4-.2V76.3Zm6.7-24.6v8.8l2.4.2a6.9,6.9,0,0,0,4.4-1.3,4.2,4.2,0,0,0,1.6-3.5,3.9,3.9,0,0,0-1.4-3.2,6.3,6.3,0,0,0-4-1.1A13,13,0,0,0,187.4,51.8Z" fill="#fff"/><path d="M227,54.8V69.4q0,3.5.2,7h-5.9l-.3-3.1h-.2a7.6,7.6,0,0,1-6.9,3.6,7.1,7.1,0,0,1-5.7-2.4q-2-2.4-2-7V54.8h6.8V66.3q0,5.1,3.5,5.1a3.7,3.7,0,0,0,2.6-1.1,3.6,3.6,0,0,0,1.1-2.7V54.8Z" fill="#fff"/><path d="M232.5,85v-23q0-3.3-.2-7.3h5.9l.3,3.1a8.9,8.9,0,0,1,7.6-3.6,8.4,8.4,0,0,1,6.5,3,11.4,11.4,0,0,1,2.7,7.9,11.8,11.8,0,0,1-2.9,8.4,9.5,9.5,0,0,1-7.2,3.1,8.7,8.7,0,0,1-3.4-.7,5.2,5.2,0,0,1-2.4-1.8h-.1V85Zm6.8-20.7V67a5.3,5.3,0,0,0,.5,2.3,4.2,4.2,0,0,0,1.5,1.6,4.1,4.1,0,0,0,2.3.7,4.3,4.3,0,0,0,3.5-1.6,6.8,6.8,0,0,0,1.3-4.4,6.9,6.9,0,0,0-1.3-4.3,4.1,4.1,0,0,0-3.4-1.6,4.2,4.2,0,0,0-3.1,1.3A4.6,4.6,0,0,0,239.3,64.3Z" fill="#fff"/><path d="M259.5,85v-23q0-3.3-.2-7.3h5.9l.3,3.1a8.9,8.9,0,0,1,7.6-3.6,8.4,8.4,0,0,1,6.5,3,11.4,11.4,0,0,1,2.7,7.9,11.8,11.8,0,0,1-2.9,8.4,9.5,9.5,0,0,1-7.2,3.1,8.7,8.7,0,0,1-3.4-.7,5.2,5.2,0,0,1-2.4-1.8h-.1V85Zm6.8-20.7V67a5.2,5.2,0,0,0,.5,2.3,4.2,4.2,0,0,0,1.5,1.6,4.1,4.1,0,0,0,2.3.7,4.3,4.3,0,0,0,3.5-1.6,6.8,6.8,0,0,0,1.3-4.4,6.9,6.9,0,0,0-1.3-4.3,4.1,4.1,0,0,0-3.4-1.6,4.2,4.2,0,0,0-3.1,1.3A4.6,4.6,0,0,0,266.3,64.3Z" fill="#fff"/><path d="M283.6,54.8h7.6q4.2,13.2,4.4,14.6h.1l3.8-14.6h7.3l-5,13.6a83.3,83.3,0,0,1-3.6,8.7,21.5,21.5,0,0,1-3.2,4.9,12.8,12.8,0,0,1-3.6,2.7,11.9,11.9,0,0,1-4.1,1.2l-1.4-5.7a8.6,8.6,0,0,0,4.5-2.2q1.7-1.7,1.7-2.5a4,4,0,0,0-.4-1.1Z" fill="#fff"/><path d="M345.4,76.3q-.7-17.6-.7-23.9h-.1q-1.1,4.7-7.2,23.5H332q-3.7-12.9-4.4-15.8t-1.7-7.6h-.1q-.3,8.9-.5,12.8l-.6,11.1h-6.3l1.9-29.7h9.2q3.4,11.4,4.1,14t1.4,6.4h.2q1.6-6.9,2.8-10.3l3.4-10.1h9.1l1.6,29.7Z" fill="#fff"/><path d="M364.7,48.4a3.4,3.4,0,0,1-1.1,2.6,4.3,4.3,0,0,1-5.5,0,3.6,3.6,0,0,1,0-5.1,4.3,4.3,0,0,1,5.5,0A3.4,3.4,0,0,1,364.7,48.4Zm-.4,27.9h-6.8V54.8h6.8Z" fill="#fff"/><path d="M369.8,76.3V45h6.8V76.3Z" fill="#fff"/><path d="M382.1,76.3V45H389V76.3Z" fill="#fff"/><path d="M393.2,75.3l1.2-4.8a12.5,12.5,0,0,0,2.9,1.2,11.8,11.8,0,0,0,3.1.5q2.9,0,2.9-1.8a1.6,1.6,0,0,0-.7-1.4,10.7,10.7,0,0,0-2.5-1.1q-6.3-2-6.3-6.4a6.3,6.3,0,0,1,2.5-5.1,10,10,0,0,1,6.5-2,14.6,14.6,0,0,1,6.2,1.3l-1.2,4.7A11.2,11.2,0,0,0,403,59q-2.6,0-2.6,1.7a1.5,1.5,0,0,0,.8,1.3,12.4,12.4,0,0,0,2.8,1.2,10.1,10.1,0,0,1,4.5,2.6,5.8,5.8,0,0,1,1.5,4,6.1,6.1,0,0,1-2.5,5.1,11.4,11.4,0,0,1-7,1.9A15.9,15.9,0,0,1,393.2,75.3Z" fill="#fff"/><path d="M421.5,72.8a4,4,0,0,1-1.1,2.9,4.2,4.2,0,0,1-5.8,0,4,4,0,0,1-1.1-2.9,4,4,0,0,1,1.1-2.9,4.2,4.2,0,0,1,5.8,0A4.1,4.1,0,0,1,421.5,72.8Zm0-14.2a4,4,0,0,1-1.1,2.9,4.2,4.2,0,0,1-5.8,0,4,4,0,0,1-1.1-2.9,4.1,4.1,0,0,1,1.1-2.9,4.2,4.2,0,0,1,5.8,0A4.1,4.1,0,0,1,421.6,58.6Z" fill="#fff"/><path d="M45.9,129.1V99.5h6.8v23.9H65v5.7Z" fill="#fff"/><path d="M87.8,120.5H73.5a3.8,3.8,0,0,0,1.9,3,8.2,8.2,0,0,0,4.4,1.1,19.7,19.7,0,0,0,6.2-.9l.9,4.5a20.6,20.6,0,0,1-8,1.4q-5.5,0-8.7-2.9a10.5,10.5,0,0,1-3.1-8.1,11.8,11.8,0,0,1,3-8.1,10.3,10.3,0,0,1,8.1-3.4,9.1,9.1,0,0,1,7.3,3,11.6,11.6,0,0,1,2.6,7.8A10.7,10.7,0,0,1,87.8,120.5Zm-14.3-4.7h8.3a5.2,5.2,0,0,0-.9-2.9,3.3,3.3,0,0,0-3-1.4,3.9,3.9,0,0,0-2.9,1.2A5.4,5.4,0,0,0,73.5,115.9Z" fill="#fff"/><path d="M110.5,116.4v7.5a31.1,31.1,0,0,0,.4,5.2h-6.1l-.4-2.2h-.2a7.8,7.8,0,0,1-6.3,2.6,7.1,7.1,0,0,1-5.1-1.9,6.3,6.3,0,0,1-2-4.7,6.8,6.8,0,0,1,3.4-6.1q3.4-2.1,9.6-2.1v-.3q0-2.7-4-2.7a12,12,0,0,0-6.1,1.6l-1.3-4.3a17.5,17.5,0,0,1,8.6-2q4.8,0,7.2,2.4T110.5,116.4Zm-6.6,4.8V119q-6.5,0-6.5,3.3a2.4,2.4,0,0,0,.7,1.9,2.8,2.8,0,0,0,2,.7,3.9,3.9,0,0,0,2.6-1A3.3,3.3,0,0,0,103.9,121.2Z" fill="#fff"/><path d="M116,129.1V114.8q0-4.8-.2-7.2h5.9l.2,4.1h.2a6.8,6.8,0,0,1,2.5-3.4,6,6,0,0,1,3.5-1.2h1.5v6.4l-1.8-.2a5.6,5.6,0,0,0-3.4,1.1q-1.5,1.1-1.5,3.8v10.9Z" fill="#fff"/><path d="M133.1,129.1V114.5q0-3.2-.2-6.9h5.9l.3,3h.2a7.8,7.8,0,0,1,6.8-3.5,7.3,7.3,0,0,1,5.8,2.5q2.1,2.5,2.1,6.9v12.6h-6.8V117.4q0-4.8-3.6-4.8a3.6,3.6,0,0,0-2.6,1.1,4.1,4.1,0,0,0-1.1,3.1v12.3Z" fill="#fff"/><path d="M181.3,129.1h-7.5l-7.3-29.7h7.3q3.1,15.8,4.2,22.6h.1q.6-4.3,4.5-22.6H190q3.5,18,4,22.4h.1q.4-3.4,4.3-22.4h7l-7.9,29.7h-7.4q-2.9-14.6-3.3-16.6T186,107H186q-.8,5-1.7,9.1Z" fill="#fff"/><path d="M208.3,129.1V97.8h6.8v12.5h.1a7.9,7.9,0,0,1,6.2-3.1,7.1,7.1,0,0,1,5.7,2.5q2.1,2.5,2.1,7.1v12.5h-6.8V117.5q0-4.8-3.6-4.8a3.7,3.7,0,0,0-2.6,1,3.6,3.6,0,0,0-1.1,2.8v12.7Z" fill="#fff"/><path d="M253.1,116.4v7.5a31.1,31.1,0,0,0,.4,5.2h-6.1l-.4-2.2h-.2a7.8,7.8,0,0,1-6.3,2.6,7.1,7.1,0,0,1-5.1-1.9,6.3,6.3,0,0,1-2-4.7,6.8,6.8,0,0,1,3.4-6.1q3.4-2.1,9.6-2.1v-.3q0-2.7-4-2.7a12,12,0,0,0-6.1,1.6l-1.3-4.3a17.5,17.5,0,0,1,8.6-2q4.8,0,7.2,2.4T253.1,116.4Zm-6.6,4.8V119q-6.5,0-6.5,3.3a2.4,2.4,0,0,0,.7,1.9,2.8,2.8,0,0,0,2,.7,3.9,3.9,0,0,0,2.6-1A3.3,3.3,0,0,0,246.5,121.2Z" fill="#fff"/><path d="M259.1,103.6l6.6-1.8v5.9h4.9v5h-4.9v7.6a5.3,5.3,0,0,0,.6,3,2.4,2.4,0,0,0,2.1.9l2.1-.2V129a12.8,12.8,0,0,1-4.4.6,7.1,7.1,0,0,1-5-1.8q-2-1.8-2-6.5v-8.7h-2.9v-5h2.9Z" fill="#fff"/><path d="M283.9,129.1V99.9a54,54,0,0,1,9.2-.7q6.7,0,9.7,2.2a7.5,7.5,0,0,1,2.9,6.4,7.3,7.3,0,0,1-1.5,4.5,7.9,7.9,0,0,1-3.8,2.8v.2q2.8,1,4,5.5,2.3,8,2.5,8.4h-7a34.2,34.2,0,0,1-2.1-6.9,7.8,7.8,0,0,0-1.7-3.7,4.6,4.6,0,0,0-3.4-1.1h-2.1v11.7Zm6.7-24.7v8.1h2.8a6.4,6.4,0,0,0,4-1.2,3.7,3.7,0,0,0,1.5-3.1,3.7,3.7,0,0,0-1.3-3,5.9,5.9,0,0,0-3.8-1.1A14.9,14.9,0,0,0,290.6,104.4Z" fill="#fff"/><path d="M329.9,120.5H315.6a3.8,3.8,0,0,0,1.9,3,8.2,8.2,0,0,0,4.4,1.1,19.7,19.7,0,0,0,6.2-.9l.9,4.5a20.6,20.6,0,0,1-8,1.4q-5.5,0-8.7-2.9a10.5,10.5,0,0,1-3.1-8.1,11.8,11.8,0,0,1,3-8.1,10.3,10.3,0,0,1,8.1-3.4,9.1,9.1,0,0,1,7.3,3,11.6,11.6,0,0,1,2.6,7.8A10.7,10.7,0,0,1,329.9,120.5Zm-14.3-4.7h8.3a5.2,5.2,0,0,0-.9-2.9,3.3,3.3,0,0,0-3-1.4,3.9,3.9,0,0,0-2.9,1.2A5.4,5.4,0,0,0,315.6,115.9Z" fill="#fff"/><path d="M352.5,116.4v7.5a31.2,31.2,0,0,0,.4,5.2h-6.1l-.4-2.2h-.2a7.8,7.8,0,0,1-6.3,2.6,7.1,7.1,0,0,1-5.1-1.9,6.3,6.3,0,0,1-2-4.7,6.9,6.9,0,0,1,3.4-6.1q3.4-2.1,9.6-2.1v-.3q0-2.7-4-2.7a12,12,0,0,0-6.1,1.6l-1.3-4.3a17.5,17.5,0,0,1,8.6-2q4.8,0,7.2,2.4T352.5,116.4Zm-6.6,4.8V119q-6.5,0-6.5,3.3a2.4,2.4,0,0,0,.7,1.9,2.8,2.8,0,0,0,2,.7,3.9,3.9,0,0,0,2.6-1A3.3,3.3,0,0,0,346,121.2Z" fill="#fff"/><path d="M358,129.1V97.8h6.8v31.3Z" fill="#fff"/><path d="M370.4,129.1V97.8h6.8v31.3Z" fill="#fff"/><path d="M380.2,107.6h7.6q4.2,13.2,4.4,14.6h.1l3.8-14.6h7.3l-5,13.6a83.3,83.3,0,0,1-3.6,8.7,21.5,21.5,0,0,1-3.2,4.9,12.8,12.8,0,0,1-3.6,2.7,11.9,11.9,0,0,1-4.1,1.2l-1.4-5.7a8.6,8.6,0,0,0,4.5-2.2q1.7-1.7,1.7-2.5a4,4,0,0,0-.4-1.1Z" fill="#fff"/><path d="M71.7,164.9v15.6a34.1,34.1,0,0,1-10.3,1.7q-8.4,0-12.6-4.1a15.6,15.6,0,0,1,.6-21.9q4.8-4.2,12.7-4.2a20.9,20.9,0,0,1,8.6,1.5l-1.5,5.4a18.2,18.2,0,0,0-7.3-1.3,10.5,10.5,0,0,0-7.4,2.5,9,9,0,0,0-2.8,7,9.5,9.5,0,0,0,2.7,7.1,9.7,9.7,0,0,0,7.1,2.7,9.8,9.8,0,0,0,3.5-.4v-6.2H60.3v-5.3Z" fill="#fff"/><path d="M99,170.9a10.9,10.9,0,0,1-3.3,8.4,11.7,11.7,0,0,1-8.3,3.1,11.6,11.6,0,0,1-8.3-3,10.5,10.5,0,0,1-3.2-8,10.9,10.9,0,0,1,3.3-8.3,11.9,11.9,0,0,1,8.6-3.1,11.2,11.2,0,0,1,8.2,3.1A10.6,10.6,0,0,1,99,170.9Zm-16.2.3a7.8,7.8,0,0,0,1.2,4.6,4,4,0,0,0,6.6,0,7.9,7.9,0,0,0,1.2-4.7,8.1,8.1,0,0,0-1.2-4.6,3.8,3.8,0,0,0-3.3-1.8,3.9,3.9,0,0,0-3.4,1.8A8.1,8.1,0,0,0,82.8,171.2Z" fill="#fff"/><path d="M122.7,173.3H108.4a3.8,3.8,0,0,0,1.9,3,8.2,8.2,0,0,0,4.4,1.1,19.7,19.7,0,0,0,6.2-.9l.9,4.5a20.6,20.6,0,0,1-8,1.4q-5.5,0-8.7-2.9a10.5,10.5,0,0,1-3.1-8.1,11.8,11.8,0,0,1,3-8.1,10.3,10.3,0,0,1,8.1-3.4,9.1,9.1,0,0,1,7.3,3,11.6,11.6,0,0,1,2.6,7.8A10.7,10.7,0,0,1,122.7,173.3Zm-14.3-4.7h8.3a5.2,5.2,0,0,0-.9-2.9,3.3,3.3,0,0,0-3-1.4,3.9,3.9,0,0,0-2.9,1.2A5.4,5.4,0,0,0,108.3,168.7Z" fill="#fff"/><path d="M125.7,180.9,127,176a12.5,12.5,0,0,0,2.9,1.2,11.8,11.8,0,0,0,3.1.5q2.9,0,2.9-1.8a1.6,1.6,0,0,0-.7-1.4,10.6,10.6,0,0,0-2.5-1.1q-6.3-2-6.3-6.4a6.3,6.3,0,0,1,2.5-5.1,10,10,0,0,1,6.5-2,14.6,14.6,0,0,1,6.2,1.3l-1.2,4.7a11.2,11.2,0,0,0-4.8-1.2q-2.6,0-2.6,1.7a1.5,1.5,0,0,0,.8,1.3,12.5,12.5,0,0,0,2.8,1.2,10.1,10.1,0,0,1,4.5,2.6,5.8,5.8,0,0,1,1.5,4,6.1,6.1,0,0,1-2.5,5.1,11.4,11.4,0,0,1-7,1.9A15.9,15.9,0,0,1,125.7,180.9Z" fill="#fff"/><path d="M184.2,166.8q0,7.1-4.1,11.3a14.5,14.5,0,0,1-10.9,4.3,13.9,13.9,0,0,1-10.6-4.2,15.2,15.2,0,0,1-4-10.9,15.5,15.5,0,0,1,4.2-11.2,14.2,14.2,0,0,1,10.8-4.4,14,14,0,0,1,10.6,4.2A15.1,15.1,0,0,1,184.2,166.8Zm-22.4.3a11.5,11.5,0,0,0,2.1,7.1,6.9,6.9,0,0,0,11,0,11.7,11.7,0,0,0,2.1-7.2,11.6,11.6,0,0,0-2.1-7.1,6.8,6.8,0,0,0-11,0A11.7,11.7,0,0,0,161.8,167.1Z" fill="#fff"/><path d="M188.5,181.9V167.3q0-3.2-.2-6.9h5.9l.3,3h.2a7.8,7.8,0,0,1,6.8-3.5,7.3,7.3,0,0,1,5.8,2.5q2.1,2.5,2.1,6.9v12.6h-6.8V170.2q0-4.8-3.6-4.8a3.6,3.6,0,0,0-2.6,1.1,4.1,4.1,0,0,0-1.1,3.1v12.3Z" fill="#fff"/><path d="M224.2,152.3h6.8v29.7h-6.8Z" fill="#fff"/><path d="M236.8,181.9V167.3q0-3.2-.2-6.9h5.9l.3,3h.2a7.8,7.8,0,0,1,6.8-3.5,7.3,7.3,0,0,1,5.8,2.5q2.1,2.5,2.1,6.9v12.6h-6.8V170.2q0-4.8-3.6-4.8a3.6,3.6,0,0,0-2.6,1.1,4.1,4.1,0,0,0-1.1,3.1v12.3Z" fill="#fff"/><path d="M273.2,156.4l6.6-1.8v5.9h4.9v5h-4.9V173a5.3,5.3,0,0,0,.6,3,2.4,2.4,0,0,0,2.1.9l2.1-.2v5.1a12.8,12.8,0,0,1-4.4.6,7.1,7.1,0,0,1-5-1.8q-2-1.8-2-6.5v-8.7h-2.9v-5h2.9Z" fill="#fff"/><path d="M288.7,181.9V150.6h6.8v12.5h.1a7.9,7.9,0,0,1,6.2-3.1,7.1,7.1,0,0,1,5.7,2.5q2.1,2.5,2.1,7.1v12.5h-6.8V170.3q0-4.8-3.6-4.8a3.7,3.7,0,0,0-2.6,1,3.6,3.6,0,0,0-1.1,2.8v12.7Z" fill="#fff"/><path d="M334.5,173.3H320.2a3.8,3.8,0,0,0,1.9,3,8.2,8.2,0,0,0,4.4,1.1,19.7,19.7,0,0,0,6.2-.9l.9,4.5a20.6,20.6,0,0,1-8,1.4q-5.5,0-8.7-2.9a10.5,10.5,0,0,1-3.1-8.1,11.8,11.8,0,0,1,3-8.1,10.3,10.3,0,0,1,8.1-3.4,9.1,9.1,0,0,1,7.3,3,11.6,11.6,0,0,1,2.6,7.8A10.7,10.7,0,0,1,334.5,173.3Zm-14.3-4.7h8.3a5.2,5.2,0,0,0-.9-2.9,3.3,3.3,0,0,0-3-1.4,3.9,3.9,0,0,0-2.9,1.2A5.4,5.4,0,0,0,320.2,168.7Z" fill="#fff"/><path d="M45.9,205.1h6.8v29.7H45.9Z" fill="#fff"/><path d="M58.5,234.7V220.1q0-3.2-.2-6.9h5.9l.3,3h.2a7.8,7.8,0,0,1,6.8-3.5,7.3,7.3,0,0,1,5.8,2.5q2.1,2.5,2.1,6.9v12.6H72.6V223q0-4.8-3.6-4.8a3.7,3.7,0,0,0-2.6,1.1,4.1,4.1,0,0,0-1.1,3.1v12.3Z" fill="#fff"/><path d="M99.5,203.4h6.8v24.9q0,3.5.2,6.4h-6.1l-.3-3.3h-.1a7.6,7.6,0,0,1-7,3.7,8.6,8.6,0,0,1-6.7-3.1,11.5,11.5,0,0,1-2.7-8,11.8,11.8,0,0,1,2.9-8.3,9.2,9.2,0,0,1,7.1-3.1q4.1,0,5.9,2.5h.1Zm0,21.6v-2.5a4.6,4.6,0,0,0-1.2-3.3,3.9,3.9,0,0,0-3-1.3,4.3,4.3,0,0,0-3.5,1.7,6.9,6.9,0,0,0-1.3,4.4,6.5,6.5,0,0,0,1.3,4.3,4.5,4.5,0,0,0,6.4.4A4.7,4.7,0,0,0,99.5,225Z" fill="#fff"/><path d="M132.7,213.2v14.6q0,3.5.2,7H127l-.3-3.1h-.2a7.6,7.6,0,0,1-6.9,3.6,7.1,7.1,0,0,1-5.7-2.4q-2-2.4-2-7V213.2h6.8v11.5q0,5.1,3.5,5.1a3.7,3.7,0,0,0,2.6-1.1,3.6,3.6,0,0,0,1.1-2.7V213.2Z" fill="#fff"/><path d="M136.9,233.7l1.2-4.8a12.5,12.5,0,0,0,2.9,1.2,11.8,11.8,0,0,0,3.1.5q2.9,0,2.9-1.8a1.6,1.6,0,0,0-.7-1.4,10.6,10.6,0,0,0-2.5-1.1q-6.3-2-6.3-6.4a6.3,6.3,0,0,1,2.5-5.1,10,10,0,0,1,6.5-2,14.6,14.6,0,0,1,6.2,1.3l-1.2,4.7a11.1,11.1,0,0,0-4.8-1.2q-2.6,0-2.6,1.7a1.5,1.5,0,0,0,.8,1.3,12.4,12.4,0,0,0,2.8,1.2,10.1,10.1,0,0,1,4.5,2.6,5.8,5.8,0,0,1,1.5,4,6.1,6.1,0,0,1-2.5,5.1,11.4,11.4,0,0,1-7,1.9A15.9,15.9,0,0,1,136.9,233.7Z" fill="#fff"/><path d="M158.8,209.2l6.6-1.8v5.9h4.9v5h-4.9v7.6a5.3,5.3,0,0,0,.6,3,2.4,2.4,0,0,0,2.1.9l2.1-.2v5.1a12.8,12.8,0,0,1-4.4.6,7.1,7.1,0,0,1-5-1.8q-2-1.8-2-6.5v-8.7h-2.9v-5h2.9Z" fill="#fff"/><path d="M174.3,234.7V220.4q0-4.8-.2-7.2H180l.2,4.1h.2a6.8,6.8,0,0,1,2.5-3.4,6,6,0,0,1,3.5-1.2h1.5v6.4L186,219a5.6,5.6,0,0,0-3.4,1.1q-1.5,1.1-1.5,3.8v10.9Z" fill="#fff"/><path d="M189.7,213.2h7.6q4.2,13.2,4.4,14.6h.1l3.8-14.6h7.3l-5,13.6a83.1,83.1,0,0,1-3.6,8.7,21.5,21.5,0,0,1-3.2,5,12.8,12.8,0,0,1-3.6,2.7,11.9,11.9,0,0,1-4.1,1.2l-1.4-5.7a8.6,8.6,0,0,0,4.5-2.2q1.7-1.7,1.7-2.5a4,4,0,0,0-.4-1.1Z" fill="#fff"/><path d="M221.2,231.1a4,4,0,0,1-1.1,2.9,3.9,3.9,0,0,1-2.9,1.1,3.8,3.8,0,0,1-2.9-1.2,4,4,0,0,1-1.1-2.9,4,4,0,0,1,1.1-2.9,3.9,3.9,0,0,1,2.9-1.2,3.9,3.9,0,0,1,2.9,1.1A4.1,4.1,0,0,1,221.2,231.1Z" fill="#fff"/></svg>