<svg id="Layer_1" data-name="Layer 1" xmlns="http://www.w3.org/2000/svg" width="72" height="72" viewBox="0 0 72 72"><title>Artboard 1</title><path d="M58.9,0H13.1A4.1,4.1,0,0,0,9,4.1V67.9A4.1,4.1,0,0,0,13.1,72H58.9A4.1,4.1,0,0,0,63,67.9V4.1A4.1,4.1,0,0,0,58.9,0ZM54.7,58.3a3,3,0,0,1-2.1.9H19.4a3,3,0,0,1-3-3,3,3,0,0,1,3-3H52.6a3,3,0,0,1,2.1,5.1Zm0-13.5a3,3,0,0,1-2.1.9H19.4a3,3,0,0,1-3-3,3,3,0,0,1,3-3H52.6a3,3,0,0,1,2.1,5.1Zm0-13.5a3,3,0,0,1-2.1.9H19.4a3,3,0,0,1-3-3,3,3,0,0,1,3-3H52.6a3,3,0,0,1,2.1,5.1Zm0-13.5a3,3,0,0,1-2.1.9H19.4a3,3,0,0,1-3-3,3,3,0,0,1,3-3H52.6a3,3,0,0,1,2.1,5.1Z" fill="#f9a43e"/></svg>