<svg id="Layer_1" data-name="Layer 1" xmlns="http://www.w3.org/2000/svg" width="500" height="420" viewBox="0 0 500 420"><title>Artboard 1</title><rect x="-45" y="-37.8" width="590" height="495.6" fill="#f9a43e"/><path d="M58.4,76.3H50.9L43.7,46.7H51Q54,62.5,55.1,69.3h.1q.6-4.3,4.5-22.6h7.4q3.5,18,4,22.4h.1q.4-3.4,4.3-22.4h7L74.6,76.3H67.2q-2.9-14.6-3.3-16.6t-.7-5.6h-.1q-.8,5-1.7,9.1Z" fill="#fff"/><path d="M102.2,63.6v7.5a31.1,31.1,0,0,0,.4,5.2H96.4L96,74.2h-.2a7.8,7.8,0,0,1-6.3,2.6,7.1,7.1,0,0,1-5.1-1.9,6.3,6.3,0,0,1-2-4.7,6.8,6.8,0,0,1,3.4-6.1q3.4-2.1,9.6-2.1v-.3q0-2.7-4-2.7a12,12,0,0,0-6.1,1.6L84,56.3a17.5,17.5,0,0,1,8.6-2q4.8,0,7.2,2.4T102.2,63.6Zm-6.6,4.8V66.2q-6.5,0-6.5,3.3a2.4,2.4,0,0,0,.7,1.9,2.8,2.8,0,0,0,2,.7,3.9,3.9,0,0,0,2.6-1A3.3,3.3,0,0,0,95.6,68.4Z" fill="#fff"/><path d="M107.7,76.3V61.7q0-3.2-.2-6.9h5.9l.3,3h.2a7.8,7.8,0,0,1,6.8-3.5,7.3,7.3,0,0,1,5.8,2.5q2.1,2.5,2.1,6.9V76.3h-6.8V64.6q0-4.8-3.6-4.8a3.6,3.6,0,0,0-2.6,1.1,4.1,4.1,0,0,0-1.1,3.1V76.3Z" fill="#fff"/><path d="M134.7,50.8l6.6-1.8v5.9h4.9v5h-4.9v7.6a5.3,5.3,0,0,0,.6,3,2.4,2.4,0,0,0,2.1.9l2.1-.2v5.1a12.8,12.8,0,0,1-4.4.6,7.1,7.1,0,0,1-5-1.8q-2-1.8-2-6.5V59.8h-2.9v-5h2.9Z" fill="#fff"/><path d="M160.2,50.8l6.6-1.8v5.9h4.9v5h-4.9v7.6a5.3,5.3,0,0,0,.6,3,2.4,2.4,0,0,0,2.1.9l2.1-.2v5.1a12.8,12.8,0,0,1-4.4.6,7.1,7.1,0,0,1-5-1.8q-2-1.8-2-6.5V59.8h-2.9v-5h2.9Z" fill="#fff"/><path d="M197.4,65.3a10.9,10.9,0,0,1-3.3,8.4,11.7,11.7,0,0,1-8.3,3.1,11.6,11.6,0,0,1-8.3-3,10.5,10.5,0,0,1-3.2-8,10.9,10.9,0,0,1,3.3-8.3,11.9,11.9,0,0,1,8.6-3.1,11.2,11.2,0,0,1,8.2,3.1A10.6,10.6,0,0,1,197.4,65.3Zm-16.2.3a7.8,7.8,0,0,0,1.2,4.6,4,4,0,0,0,6.6,0,7.9,7.9,0,0,0,1.2-4.7,8.1,8.1,0,0,0-1.2-4.6,3.8,3.8,0,0,0-3.3-1.8,3.9,3.9,0,0,0-3.4,1.8A8.1,8.1,0,0,0,181.2,65.6Z" fill="#fff"/><path d="M210.9,76.3V46.7h18.7v5.5H217.7v6.7h11.1v5.5H217.7V76.3Z" fill="#fff"/><path d="M255.4,65.3a10.9,10.9,0,0,1-3.3,8.4,11.7,11.7,0,0,1-8.3,3.1,11.6,11.6,0,0,1-8.3-3,10.5,10.5,0,0,1-3.2-8,10.9,10.9,0,0,1,3.3-8.3,11.9,11.9,0,0,1,8.6-3.1,11.2,11.2,0,0,1,8.2,3.1A10.6,10.6,0,0,1,255.4,65.3Zm-16.2.3a7.8,7.8,0,0,0,1.2,4.6,4,4,0,0,0,6.6,0,7.9,7.9,0,0,0,1.2-4.7,8.1,8.1,0,0,0-1.2-4.6,3.8,3.8,0,0,0-3.3-1.8,3.9,3.9,0,0,0-3.4,1.8A8.1,8.1,0,0,0,239.2,65.6Z" fill="#fff"/><path d="M258.3,75.3l1.2-4.8a12.5,12.5,0,0,0,2.9,1.2,11.7,11.7,0,0,0,3.1.5q2.9,0,2.9-1.8a1.6,1.6,0,0,0-.7-1.4,10.6,10.6,0,0,0-2.5-1.1q-6.3-2-6.3-6.4a6.3,6.3,0,0,1,2.5-5.1,10,10,0,0,1,6.5-2,14.6,14.6,0,0,1,6.2,1.3l-1.2,4.7a11.2,11.2,0,0,0-4.8-1.2q-2.6,0-2.6,1.7a1.5,1.5,0,0,0,.8,1.3,12.5,12.5,0,0,0,2.8,1.2,10.1,10.1,0,0,1,4.5,2.6,5.8,5.8,0,0,1,1.5,4,6.1,6.1,0,0,1-2.5,5.1,11.4,11.4,0,0,1-7,1.9A15.9,15.9,0,0,1,258.3,75.3Z" fill="#fff"/><path d="M280.2,50.8l6.6-1.8v5.9h4.9v5h-4.9v7.6a5.3,5.3,0,0,0,.6,3,2.4,2.4,0,0,0,2.1.9l2.1-.2v5.1a12.8,12.8,0,0,1-4.4.6,7.1,7.1,0,0,1-5-1.8q-2-1.8-2-6.5V59.8h-2.9v-5h2.9Z" fill="#fff"/><path d="M314.9,67.7H300.6a3.8,3.8,0,0,0,1.9,3,8.2,8.2,0,0,0,4.4,1.1,19.7,19.7,0,0,0,6.2-.9l.9,4.5a20.6,20.6,0,0,1-8,1.4q-5.5,0-8.7-2.9a10.5,10.5,0,0,1-3.1-8.1,11.8,11.8,0,0,1,3-8.1,10.3,10.3,0,0,1,8.1-3.4,9.1,9.1,0,0,1,7.3,3,11.6,11.6,0,0,1,2.6,7.8A10.7,10.7,0,0,1,314.9,67.7Zm-14.3-4.7h8.3a5.2,5.2,0,0,0-.9-2.9,3.3,3.3,0,0,0-3-1.4A3.9,3.9,0,0,0,302,60,5.4,5.4,0,0,0,300.6,63.1Z" fill="#fff"/><path d="M319.2,76.3V62q0-4.8-.2-7.2h5.9l.2,4.1h.2a6.8,6.8,0,0,1,2.5-3.4,6,6,0,0,1,3.5-1.2h1.5v6.4l-1.8-.2a5.6,5.6,0,0,0-3.4,1.1q-1.5,1.1-1.5,3.8V76.3Z" fill="#fff"/><path d="M345.9,66.6H340q0-1.3,0-1.5a9.6,9.6,0,0,1,2.6-6.4,16.3,16.3,0,0,0,2.2-2.9,3.9,3.9,0,0,0,.5-1.7q0-2.6-3.2-2.6a8,8,0,0,0-4.6,1.4L335.8,48a15.2,15.2,0,0,1,7.6-1.8,9.5,9.5,0,0,1,6.3,1.9,6.2,6.2,0,0,1,2.3,5,7.6,7.6,0,0,1-.8,3.2,17.5,17.5,0,0,1-3,4.1,7.7,7.7,0,0,0-2.3,5.5Zm.9,6.1a4,4,0,0,1-1.1,2.9,4.2,4.2,0,0,1-5.8,0,4.3,4.3,0,0,1,0-5.8,4.2,4.2,0,0,1,5.8,0A4,4,0,0,1,346.8,72.8Z" fill="#fff"/><path d="M45.9,129.1V99.8a65.4,65.4,0,0,1,9.4-.6q6.5,0,9.5,2.6a8.6,8.6,0,0,1,2.9,6.7,9,9,0,0,1-3.4,7.6q-3.4,2.6-9.3,2.6l-2.4-.2v10.6Zm6.7-24.6v8.8l2.4.2a6.9,6.9,0,0,0,4.4-1.3,4.2,4.2,0,0,0,1.6-3.5,3.9,3.9,0,0,0-1.4-3.2,6.3,6.3,0,0,0-4-1.1A13,13,0,0,0,52.7,104.6Z" fill="#fff"/><path d="M90.3,120.5H76a3.8,3.8,0,0,0,1.9,3,8.2,8.2,0,0,0,4.4,1.1,19.7,19.7,0,0,0,6.2-.9l.9,4.5a20.6,20.6,0,0,1-8,1.4q-5.5,0-8.7-2.9a10.5,10.5,0,0,1-3.1-8.1,11.8,11.8,0,0,1,3-8.1,10.3,10.3,0,0,1,8.1-3.4,9.1,9.1,0,0,1,7.3,3,11.6,11.6,0,0,1,2.6,7.8A10.7,10.7,0,0,1,90.3,120.5ZM76,115.9h8.3a5.2,5.2,0,0,0-.9-2.9,3.3,3.3,0,0,0-3-1.4,3.9,3.9,0,0,0-2.9,1.2A5.4,5.4,0,0,0,76,115.9Z" fill="#fff"/><path d="M95.5,103.6l6.6-1.8v5.9h4.9v5h-4.9v7.6a5.3,5.3,0,0,0,.6,3,2.4,2.4,0,0,0,2.1.9l2.1-.2V129a12.8,12.8,0,0,1-4.4.6,7.1,7.1,0,0,1-5-1.8q-2-1.8-2-6.5v-8.7H92.6v-5h2.9Z" fill="#fff"/><path d="M118.6,129.1h-6.8V112.6H109v-5h2.8v-.9a8.4,8.4,0,0,1,3.1-6.9,12.9,12.9,0,0,1,8.3-2.5,12.7,12.7,0,0,1,6.5,1.4l-1.4,5.1a10.3,10.3,0,0,0-5-1.1q-4.8,0-4.8,4.2v.7h13.4v21.5h-6.8V112.6h-6.5Z" fill="#fff"/><path d="M137.5,129.1V114.5q0-3.2-.2-6.9h5.9l.3,3h.2a7.8,7.8,0,0,1,6.8-3.5,7.3,7.3,0,0,1,5.8,2.5q2.1,2.5,2.1,6.9v12.6h-6.8V117.4q0-4.8-3.6-4.8a3.6,3.6,0,0,0-2.6,1.1,4.1,4.1,0,0,0-1.1,3.1v12.3Z" fill="#fff"/><path d="M178.5,97.8h6.8v24.9q0,3.5.2,6.4h-6.1l-.3-3.3h-.1a7.6,7.6,0,0,1-7,3.7,8.6,8.6,0,0,1-6.7-3.1,11.5,11.5,0,0,1-2.7-8,11.8,11.8,0,0,1,2.9-8.3,9.2,9.2,0,0,1,7.1-3.1q4.1,0,5.9,2.5h.1Zm0,21.6v-2.5a4.6,4.6,0,0,0-1.2-3.3,3.9,3.9,0,0,0-3-1.3,4.3,4.3,0,0,0-3.5,1.7,6.9,6.9,0,0,0-1.3,4.4,6.5,6.5,0,0,0,1.3,4.3,4.5,4.5,0,0,0,6.4.4A4.7,4.7,0,0,0,178.5,119.4Z" fill="#fff"/><path d="M210.3,120.5H196a3.8,3.8,0,0,0,1.9,3,8.2,8.2,0,0,0,4.4,1.1,19.7,19.7,0,0,0,6.2-.9l.9,4.5a20.6,20.6,0,0,1-8,1.4q-5.5,0-8.7-2.9a10.5,10.5,0,0,1-3.1-8.1,11.8,11.8,0,0,1,3-8.1,10.3,10.3,0,0,1,8.1-3.4,9.1,9.1,0,0,1,7.3,3,11.6,11.6,0,0,1,2.6,7.8A10.7,10.7,0,0,1,210.3,120.5Zm-14.3-4.7h8.3a5.2,5.2,0,0,0-.9-2.9,3.3,3.3,0,0,0-3-1.4,3.9,3.9,0,0,0-2.9,1.2A5.4,5.4,0,0,0,195.9,115.9Z" fill="#fff"/><path d="M214.6,129.1V114.8q0-4.8-.2-7.2h5.9l.2,4.1h.2a6.8,6.8,0,0,1,2.5-3.4,6,6,0,0,1,3.5-1.2h1.5v6.4l-1.8-.2a5.6,5.6,0,0,0-3.4,1.1q-1.5,1.1-1.5,3.8v10.9Z" fill="#fff"/><path d="M230.5,128.1l1.2-4.8a12.5,12.5,0,0,0,2.9,1.2,11.8,11.8,0,0,0,3.1.5q2.9,0,2.9-1.8a1.6,1.6,0,0,0-.7-1.4,10.6,10.6,0,0,0-2.5-1.1q-6.3-2-6.3-6.4a6.3,6.3,0,0,1,2.5-5.1,10,10,0,0,1,6.5-2,14.6,14.6,0,0,1,6.2,1.3l-1.2,4.7a11.2,11.2,0,0,0-4.8-1.2q-2.6,0-2.6,1.7a1.5,1.5,0,0,0,.8,1.3,12.5,12.5,0,0,0,2.8,1.2,10.1,10.1,0,0,1,4.5,2.6,5.8,5.8,0,0,1,1.5,4,6.1,6.1,0,0,1-2.5,5.1,11.4,11.4,0,0,1-7,1.9A15.9,15.9,0,0,1,230.5,128.1Z" fill="#fff"/><path d="M45.9,152.3h6.8v29.7H45.9Z" fill="#fff"/><path d="M58.5,181.9V167.3q0-3.2-.2-6.9h5.9l.3,3h.2a7.8,7.8,0,0,1,6.8-3.5,7.3,7.3,0,0,1,5.8,2.5q2.1,2.5,2.1,6.9v12.6H72.6V170.2q0-4.8-3.6-4.8a3.6,3.6,0,0,0-2.6,1.1,4.1,4.1,0,0,0-1.1,3.1v12.3Z" fill="#fff"/><path d="M85.5,156.4l6.6-1.8v5.9H97v5H92.1V173a5.3,5.3,0,0,0,.6,3,2.4,2.4,0,0,0,2.1.9l2.1-.2v5.1a12.8,12.8,0,0,1-4.4.6,7.1,7.1,0,0,1-5-1.8q-2-1.8-2-6.5v-8.7H82.6v-5h2.9Z" fill="#fff"/><path d="M101,181.9V167.6q0-4.8-.2-7.2h5.9l.2,4.1h.2a6.8,6.8,0,0,1,2.5-3.4,6,6,0,0,1,3.5-1.2h1.5v6.4l-1.8-.2a5.6,5.6,0,0,0-3.4,1.1q-1.5,1.1-1.5,3.8v10.9Z" fill="#fff"/><path d="M139.8,170.9a10.9,10.9,0,0,1-3.3,8.4,11.7,11.7,0,0,1-8.3,3.1,11.6,11.6,0,0,1-8.3-3,10.5,10.5,0,0,1-3.2-8,10.9,10.9,0,0,1,3.3-8.3,11.9,11.9,0,0,1,8.6-3.1,11.2,11.2,0,0,1,8.2,3.1A10.6,10.6,0,0,1,139.8,170.9Zm-16.2.3a7.8,7.8,0,0,0,1.2,4.6,4,4,0,0,0,6.6,0,7.9,7.9,0,0,0,1.2-4.7,8.1,8.1,0,0,0-1.2-4.6,3.8,3.8,0,0,0-3.3-1.8,3.9,3.9,0,0,0-3.4,1.8A8.1,8.1,0,0,0,123.6,171.2Z" fill="#fff"/><path d="M158.6,150.6h6.8v24.9q0,3.5.2,6.4h-6.1l-.3-3.3h-.1a7.6,7.6,0,0,1-7,3.7,8.6,8.6,0,0,1-6.7-3.1,11.5,11.5,0,0,1-2.7-8,11.8,11.8,0,0,1,2.9-8.3,9.2,9.2,0,0,1,7.1-3.1q4.1,0,5.9,2.5h.1Zm0,21.6v-2.5a4.6,4.6,0,0,0-1.2-3.3,3.9,3.9,0,0,0-3-1.3,4.3,4.3,0,0,0-3.5,1.7,6.9,6.9,0,0,0-1.3,4.4,6.5,6.5,0,0,0,1.3,4.3,4.5,4.5,0,0,0,6.4.4A4.7,4.7,0,0,0,158.6,172.2Z" fill="#fff"/><path d="M191.8,160.4V175q0,3.5.2,7H186l-.3-3.1h-.2a7.6,7.6,0,0,1-6.9,3.6,7.1,7.1,0,0,1-5.7-2.4q-2-2.4-2-7V160.4h6.8v11.5q0,5.1,3.5,5.1a3.7,3.7,0,0,0,2.6-1.1,3.6,3.6,0,0,0,1.1-2.7V160.4Z" fill="#fff"/><path d="M213.1,176.4l.8,5a16.2,16.2,0,0,1-6.3,1.1,11.8,11.8,0,0,1-8.5-3,10.6,10.6,0,0,1-3.2-8,10.8,10.8,0,0,1,3.4-8.2q3.4-3.2,9.2-3.2a15.1,15.1,0,0,1,5.3.9l-1.1,5a10,10,0,0,0-3.9-.7,5.8,5.8,0,0,0-4.3,1.7,5.9,5.9,0,0,0-1.6,4.3,5.7,5.7,0,0,0,1.7,4.4,6.1,6.1,0,0,0,4.4,1.6A11.4,11.4,0,0,0,213.1,176.4Z" fill="#fff"/><path d="M219.4,156.4l6.6-1.8v5.9h4.9v5H226V173a5.3,5.3,0,0,0,.6,3,2.4,2.4,0,0,0,2.1.9l2.1-.2v5.1a12.8,12.8,0,0,1-4.4.6,7.1,7.1,0,0,1-5-1.8q-2-1.8-2-6.5v-8.7h-2.9v-5h2.9Z" fill="#fff"/><path d="M242.1,154a3.4,3.4,0,0,1-1.1,2.6,4.3,4.3,0,0,1-5.5,0,3.6,3.6,0,0,1,0-5.1,4.3,4.3,0,0,1,5.5,0A3.4,3.4,0,0,1,242.1,154Zm-.4,27.9h-6.8V160.4h6.8Z" fill="#fff"/><path d="M269.1,170.9a10.9,10.9,0,0,1-3.3,8.4,11.7,11.7,0,0,1-8.3,3.1,11.6,11.6,0,0,1-8.3-3,10.5,10.5,0,0,1-3.2-8,10.9,10.9,0,0,1,3.3-8.3,11.9,11.9,0,0,1,8.6-3.1A11.2,11.2,0,0,1,266,163,10.6,10.6,0,0,1,269.1,170.9Zm-16.2.3a7.8,7.8,0,0,0,1.2,4.6,4,4,0,0,0,6.6,0,7.9,7.9,0,0,0,1.2-4.7,8.1,8.1,0,0,0-1.2-4.6,3.8,3.8,0,0,0-3.3-1.8,3.9,3.9,0,0,0-3.4,1.8A8.1,8.1,0,0,0,252.9,171.2Z" fill="#fff"/><path d="M273.3,181.9V167.3q0-3.2-.2-6.9h5.9l.3,3h.2a7.8,7.8,0,0,1,6.8-3.5,7.3,7.3,0,0,1,5.8,2.5q2.1,2.5,2.1,6.9v12.6h-6.8V170.2q0-4.8-3.6-4.8a3.6,3.6,0,0,0-2.6,1.1,4.1,4.1,0,0,0-1.1,3.1v12.3Z" fill="#fff"/><path d="M46.7,209.2l6.6-1.8v5.9h4.9v5H53.3v7.6a5.3,5.3,0,0,0,.6,3,2.4,2.4,0,0,0,2.1.9l2.1-.2v5.1a12.8,12.8,0,0,1-4.4.6,7.1,7.1,0,0,1-5-1.8q-2-1.8-2-6.5v-8.7H43.7v-5h2.9Z" fill="#fff"/><path d="M83.8,223.7a10.9,10.9,0,0,1-3.3,8.4,11.7,11.7,0,0,1-8.3,3.1,11.6,11.6,0,0,1-8.3-3,10.5,10.5,0,0,1-3.2-8,10.9,10.9,0,0,1,3.3-8.3,11.9,11.9,0,0,1,8.6-3.1,11.2,11.2,0,0,1,8.2,3.1A10.6,10.6,0,0,1,83.8,223.7Zm-16.2.3a7.8,7.8,0,0,0,1.2,4.6,4,4,0,0,0,6.6,0,7.9,7.9,0,0,0,1.2-4.7,8.1,8.1,0,0,0-1.2-4.6,3.8,3.8,0,0,0-3.3-1.8,3.9,3.9,0,0,0-3.4,1.8A8.1,8.1,0,0,0,67.6,224Z" fill="#fff"/><path d="M97.3,234.7V205.1h18.7v5.5H104.2v6.7h11.1v5.5H104.2v11.9Z" fill="#fff"/><path d="M141.8,223.7a10.9,10.9,0,0,1-3.3,8.4,11.7,11.7,0,0,1-8.3,3.1,11.6,11.6,0,0,1-8.3-3,10.5,10.5,0,0,1-3.2-8,10.9,10.9,0,0,1,3.3-8.3,11.9,11.9,0,0,1,8.6-3.1,11.2,11.2,0,0,1,8.2,3.1A10.6,10.6,0,0,1,141.8,223.7Zm-16.2.3a7.8,7.8,0,0,0,1.2,4.6,4,4,0,0,0,6.6,0,7.9,7.9,0,0,0,1.2-4.7,8.1,8.1,0,0,0-1.2-4.6,3.8,3.8,0,0,0-3.3-1.8,3.9,3.9,0,0,0-3.4,1.8A8.1,8.1,0,0,0,125.6,224Z" fill="#fff"/><path d="M144.8,233.7l1.2-4.8a12.5,12.5,0,0,0,2.9,1.2,11.8,11.8,0,0,0,3.1.5q2.9,0,2.9-1.8a1.6,1.6,0,0,0-.7-1.4,10.6,10.6,0,0,0-2.5-1.1q-6.3-2-6.3-6.4a6.3,6.3,0,0,1,2.5-5.1,10,10,0,0,1,6.5-2,14.6,14.6,0,0,1,6.2,1.3l-1.2,4.7a11.1,11.1,0,0,0-4.8-1.2q-2.6,0-2.6,1.7a1.5,1.5,0,0,0,.8,1.3,12.4,12.4,0,0,0,2.8,1.2,10.1,10.1,0,0,1,4.5,2.6,5.8,5.8,0,0,1,1.5,4,6.1,6.1,0,0,1-2.5,5.1,11.4,11.4,0,0,1-7,1.9A15.9,15.9,0,0,1,144.8,233.7Z" fill="#fff"/><path d="M166.6,209.2l6.6-1.8v5.9h4.9v5h-4.9v7.6a5.3,5.3,0,0,0,.6,3,2.4,2.4,0,0,0,2.1.9l2.1-.2v5.1a12.8,12.8,0,0,1-4.4.6,7.1,7.1,0,0,1-5-1.8q-2-1.8-2-6.5v-8.7h-2.9v-5h2.9Z" fill="#fff"/><path d="M201.4,226.1H187.1a3.8,3.8,0,0,0,1.9,3,8.3,8.3,0,0,0,4.4,1.1,19.7,19.7,0,0,0,6.2-.9l.9,4.5a20.6,20.6,0,0,1-8,1.4q-5.5,0-8.7-2.9a10.5,10.5,0,0,1-3.1-8.1,11.8,11.8,0,0,1,3-8.1,10.3,10.3,0,0,1,8.1-3.4,9.1,9.1,0,0,1,7.3,3,11.6,11.6,0,0,1,2.6,7.8A10.7,10.7,0,0,1,201.4,226.1ZM187,221.5h8.3a5.2,5.2,0,0,0-.9-2.9,3.3,3.3,0,0,0-3-1.4,3.9,3.9,0,0,0-2.9,1.2A5.4,5.4,0,0,0,187,221.5Z" fill="#fff"/><path d="M205.7,234.7V220.4q0-4.8-.2-7.2h5.9l.2,4.1h.2a6.8,6.8,0,0,1,2.5-3.4,6,6,0,0,1,3.5-1.2h1.5v6.4l-1.8-.2a5.6,5.6,0,0,0-3.4,1.1q-1.5,1.1-1.5,3.8v10.9Z" fill="#fff"/><path d="M253.7,228.6l1.1,5.3a19.6,19.6,0,0,1-8,1.4q-7.5,0-11.8-4.1a14.3,14.3,0,0,1-4.3-10.8,14.8,14.8,0,0,1,4.7-11.4,17,17,0,0,1,12-4.3,17.7,17.7,0,0,1,7.7,1.4l-1.4,5.4a14.9,14.9,0,0,0-6-1.2,9.8,9.8,0,0,0-7.1,2.6,10.9,10.9,0,0,0,0,14.2,9.8,9.8,0,0,0,7.2,2.6A16.4,16.4,0,0,0,253.7,228.6Z" fill="#fff"/><path d="M276.9,222v7.5a31.2,31.2,0,0,0,.4,5.2h-6.1l-.4-2.2h-.2a7.8,7.8,0,0,1-6.3,2.6,7.1,7.1,0,0,1-5.1-1.9,6.3,6.3,0,0,1-2-4.7,6.9,6.9,0,0,1,3.4-6.1q3.4-2.1,9.6-2.1v-.3q0-2.7-4-2.7A12,12,0,0,0,260,219l-1.3-4.3a17.5,17.5,0,0,1,8.6-2q4.8,0,7.2,2.4T276.9,222Zm-6.6,4.8v-2.2q-6.5,0-6.5,3.3a2.4,2.4,0,0,0,.7,1.9,2.8,2.8,0,0,0,2,.7,4,4,0,0,0,2.6-1A3.3,3.3,0,0,0,270.4,226.8Z" fill="#fff"/><path d="M282.4,234.7V220.4q0-4.8-.2-7.2h5.9l.2,4.1h.2a6.8,6.8,0,0,1,2.5-3.4,6,6,0,0,1,3.5-1.2H296v6.4l-1.8-.2a5.6,5.6,0,0,0-3.4,1.1q-1.5,1.1-1.5,3.8v10.9Z" fill="#fff"/><path d="M318.7,226.1H304.4a3.8,3.8,0,0,0,1.9,3,8.3,8.3,0,0,0,4.4,1.1,19.7,19.7,0,0,0,6.2-.9l.9,4.5a20.6,20.6,0,0,1-8,1.4q-5.5,0-8.7-2.9a10.5,10.5,0,0,1-3.1-8.1,11.8,11.8,0,0,1,3-8.1,10.3,10.3,0,0,1,8.1-3.4,9.1,9.1,0,0,1,7.3,3,11.6,11.6,0,0,1,2.6,7.8A10.7,10.7,0,0,1,318.7,226.1Zm-14.3-4.7h8.3a5.2,5.2,0,0,0-.9-2.9,3.3,3.3,0,0,0-3-1.4,3.9,3.9,0,0,0-2.9,1.2A5.4,5.4,0,0,0,304.4,221.5Z" fill="#fff"/><path d="M329.8,231.1a4,4,0,0,1-1.1,2.9,3.9,3.9,0,0,1-2.9,1.1,3.8,3.8,0,0,1-2.9-1.2,4,4,0,0,1-1.1-2.9,4,4,0,0,1,1.1-2.9,3.9,3.9,0,0,1,2.9-1.2,3.9,3.9,0,0,1,2.9,1.1A4.1,4.1,0,0,1,329.8,231.1Z" fill="#fff"/></svg>