<svg id="Layer_1" data-name="Layer 1" xmlns="http://www.w3.org/2000/svg" width="500" height="420" viewBox="0 0 500 420"><title>Artboard 1</title><rect x="-36" y="-30.2" width="572" height="480.48" fill="#f9a43e"/><path d="M44.8,74.9l1.4-5.6A16.9,16.9,0,0,0,54,71.3a6.2,6.2,0,0,0,3.5-.9,2.7,2.7,0,0,0,1.3-2.4,2.8,2.8,0,0,0-1.1-2.2,14,14,0,0,0-4-1.8q-8.5-2.8-8.5-8.8a7.9,7.9,0,0,1,3.1-6.4,12.9,12.9,0,0,1,8.3-2.5,19,19,0,0,1,7.9,1.5L63,53.1a15.1,15.1,0,0,0-6.5-1.5,5.7,5.7,0,0,0-3.2.8,2.4,2.4,0,0,0-1.2,2.1,2.5,2.5,0,0,0,1,2,18.1,18.1,0,0,0,4.7,2.1,14.3,14.3,0,0,1,6,3.6,7.7,7.7,0,0,1,1.9,5.3,8.1,8.1,0,0,1-3.2,6.6q-3.2,2.6-9,2.6A19.2,19.2,0,0,1,44.8,74.9Z" fill="#fff"/><path d="M70,76.3V45h6.8V57.5h.1a7.9,7.9,0,0,1,6.2-3.1,7.1,7.1,0,0,1,5.7,2.5Q91,59.3,91,63.9V76.3H84.1V64.7q0-4.8-3.6-4.8a3.7,3.7,0,0,0-2.6,1,3.6,3.6,0,0,0-1.1,2.8V76.3Z" fill="#fff"/><path d="M115.9,67.7H101.6a3.8,3.8,0,0,0,1.9,3,8.2,8.2,0,0,0,4.4,1.1,19.7,19.7,0,0,0,6.2-.9l.9,4.5a20.6,20.6,0,0,1-8,1.4q-5.5,0-8.7-2.9a10.5,10.5,0,0,1-3.1-8.1,11.8,11.8,0,0,1,3-8.1,10.3,10.3,0,0,1,8.1-3.4,9.1,9.1,0,0,1,7.3,3,11.6,11.6,0,0,1,2.6,7.8A10.7,10.7,0,0,1,115.9,67.7Zm-14.3-4.7h8.3a5.2,5.2,0,0,0-.9-2.9,3.3,3.3,0,0,0-3-1.4A3.9,3.9,0,0,0,103,60,5.4,5.4,0,0,0,101.5,63.1Z" fill="#fff"/><path d="M120.2,76.3V45H127V76.3Z" fill="#fff"/><path d="M133.4,50.8,140,49v5.9h4.9v5H140v7.6a5.3,5.3,0,0,0,.6,3,2.4,2.4,0,0,0,2.1.9l2.1-.2v5.1a12.8,12.8,0,0,1-4.4.6,7.1,7.1,0,0,1-5-1.8q-2-1.8-2-6.5V59.8h-2.9v-5h2.9Z" fill="#fff"/><path d="M168.1,67.7H153.8a3.8,3.8,0,0,0,1.9,3,8.2,8.2,0,0,0,4.4,1.1,19.7,19.7,0,0,0,6.2-.9l.9,4.5a20.6,20.6,0,0,1-8,1.4q-5.5,0-8.7-2.9a10.5,10.5,0,0,1-3.1-8.1,11.8,11.8,0,0,1,3-8.1,10.3,10.3,0,0,1,8.1-3.4,9.1,9.1,0,0,1,7.3,3,11.6,11.6,0,0,1,2.6,7.8A10.7,10.7,0,0,1,168.1,67.7Zm-14.3-4.7h8.3a5.2,5.2,0,0,0-.9-2.9,3.3,3.3,0,0,0-3-1.4,3.9,3.9,0,0,0-2.9,1.2A5.4,5.4,0,0,0,153.8,63.1Z" fill="#fff"/><path d="M172.4,76.3V62q0-4.8-.2-7.2h5.9l.2,4.1h.2a6.8,6.8,0,0,1,2.5-3.4,6,6,0,0,1,3.5-1.2H186v6.4l-1.8-.2a5.6,5.6,0,0,0-3.4,1.1q-1.5,1.1-1.5,3.8V76.3Z" fill="#fff"/><path d="M188.3,75.3l1.2-4.8a12.5,12.5,0,0,0,2.9,1.2,11.8,11.8,0,0,0,3.1.5q2.9,0,2.9-1.8a1.6,1.6,0,0,0-.7-1.4,10.6,10.6,0,0,0-2.5-1.1q-6.3-2-6.3-6.4a6.3,6.3,0,0,1,2.5-5.1,10,10,0,0,1,6.5-2,14.6,14.6,0,0,1,6.2,1.3l-1.2,4.7a11.2,11.2,0,0,0-4.8-1.2q-2.6,0-2.6,1.7a1.5,1.5,0,0,0,.8,1.3,12.5,12.5,0,0,0,2.8,1.2,10.1,10.1,0,0,1,4.5,2.6,5.8,5.8,0,0,1,1.5,4,6.1,6.1,0,0,1-2.5,5.1,11.4,11.4,0,0,1-7,1.9A15.9,15.9,0,0,1,188.3,75.3Z" fill="#fff"/><path d="M233.9,76.3h-8L216,46.7h7.5q6.2,20.5,6.6,23.1h.1q1.1-4.8,2.9-10.7L237,46.7h7.2Z" fill="#fff"/><path d="M246.1,74.9l1.4-5.6a16.9,16.9,0,0,0,7.7,1.9,6.2,6.2,0,0,0,3.5-.9,2.7,2.7,0,0,0,1.3-2.4,2.8,2.8,0,0,0-1.1-2.2,13.9,13.9,0,0,0-4-1.8q-8.5-2.8-8.5-8.8a7.9,7.9,0,0,1,3.1-6.4,12.9,12.9,0,0,1,8.3-2.5,19,19,0,0,1,7.9,1.5l-1.5,5.4a15.1,15.1,0,0,0-6.5-1.5,5.7,5.7,0,0,0-3.2.8,2.4,2.4,0,0,0-1.2,2.1,2.5,2.5,0,0,0,1,2,18.1,18.1,0,0,0,4.7,2.1,14.3,14.3,0,0,1,6,3.6,7.7,7.7,0,0,1,1.9,5.3,8.1,8.1,0,0,1-3.2,6.6q-3.2,2.6-9,2.6A19.2,19.2,0,0,1,246.1,74.9Z" fill="#fff"/><path d="M279,72.7a4,4,0,0,1-1.1,2.9,3.9,3.9,0,0,1-2.9,1.1,3.8,3.8,0,0,1-2.9-1.2,4,4,0,0,1-1.1-2.9,4,4,0,0,1,1.1-2.9,3.9,3.9,0,0,1,2.9-1.2,3.9,3.9,0,0,1,2.9,1.1A4.1,4.1,0,0,1,279,72.7Z" fill="#fff"/><path d="M45.9,129.1V99.9a54,54,0,0,1,9.2-.7q6.7,0,9.7,2.2a7.5,7.5,0,0,1,2.9,6.4,7.3,7.3,0,0,1-1.5,4.5,7.9,7.9,0,0,1-3.8,2.8v.2q2.8,1,4,5.5,2.3,8,2.5,8.4H62a34.2,34.2,0,0,1-2.1-6.9,7.8,7.8,0,0,0-1.7-3.7,4.6,4.6,0,0,0-3.4-1.1H52.7v11.7Zm6.7-24.7v8.1h2.8a6.4,6.4,0,0,0,4-1.2,3.7,3.7,0,0,0,1.5-3.1,3.7,3.7,0,0,0-1.3-3,5.9,5.9,0,0,0-3.8-1.1A14.9,14.9,0,0,0,52.7,104.4Z" fill="#fff"/><path d="M92,120.5H77.7a3.8,3.8,0,0,0,1.9,3,8.2,8.2,0,0,0,4.4,1.1,19.7,19.7,0,0,0,6.2-.9l.9,4.5a20.6,20.6,0,0,1-8,1.4q-5.5,0-8.7-2.9a10.5,10.5,0,0,1-3.1-8.1,11.8,11.8,0,0,1,3-8.1,10.3,10.3,0,0,1,8.1-3.4,9.1,9.1,0,0,1,7.3,3,11.6,11.6,0,0,1,2.6,7.8A10.7,10.7,0,0,1,92,120.5Zm-14.3-4.7h8.3A5.2,5.2,0,0,0,85,113a3.3,3.3,0,0,0-3-1.4,3.9,3.9,0,0,0-2.9,1.2A5.4,5.4,0,0,0,77.6,115.9Z" fill="#fff"/><path d="M95,128.1l1.2-4.8a12.5,12.5,0,0,0,2.9,1.2,11.8,11.8,0,0,0,3.1.5q2.9,0,2.9-1.8a1.6,1.6,0,0,0-.7-1.4,10.6,10.6,0,0,0-2.5-1.1q-6.3-2-6.3-6.4a6.3,6.3,0,0,1,2.5-5.1,10,10,0,0,1,6.5-2,14.6,14.6,0,0,1,6.2,1.3l-1.2,4.7a11.2,11.2,0,0,0-4.8-1.2q-2.6,0-2.6,1.7a1.5,1.5,0,0,0,.8,1.3,12.5,12.5,0,0,0,2.8,1.2,10.1,10.1,0,0,1,4.5,2.6,5.8,5.8,0,0,1,1.5,4,6.1,6.1,0,0,1-2.5,5.1,11.4,11.4,0,0,1-7,1.9A15.9,15.9,0,0,1,95,128.1Z" fill="#fff"/><path d="M131.7,123.6l.8,5a16.2,16.2,0,0,1-6.3,1.1,11.8,11.8,0,0,1-8.5-3,10.6,10.6,0,0,1-3.2-8,10.8,10.8,0,0,1,3.4-8.2q3.4-3.2,9.2-3.2a15.1,15.1,0,0,1,5.3.9l-1.1,5a10,10,0,0,0-3.9-.7,5.8,5.8,0,0,0-4.3,1.7,5.9,5.9,0,0,0-1.6,4.3,5.7,5.7,0,0,0,1.7,4.4,6.1,6.1,0,0,0,4.4,1.6A11.4,11.4,0,0,0,131.7,123.6Z" fill="#fff"/><path d="M157.3,107.6v14.6q0,3.5.2,7h-5.9l-.3-3.1h-.2a7.6,7.6,0,0,1-6.9,3.6,7.1,7.1,0,0,1-5.7-2.4q-2-2.4-2-7V107.6h6.8v11.5q0,5.1,3.5,5.1a3.7,3.7,0,0,0,2.6-1.1,3.6,3.6,0,0,0,1.1-2.7V107.6Z" fill="#fff"/><path d="M182.3,120.5H168a3.8,3.8,0,0,0,1.9,3,8.2,8.2,0,0,0,4.4,1.1,19.7,19.7,0,0,0,6.2-.9l.9,4.5a20.6,20.6,0,0,1-8,1.4q-5.5,0-8.7-2.9a10.5,10.5,0,0,1-3.1-8.1,11.8,11.8,0,0,1,3-8.1,10.3,10.3,0,0,1,8.1-3.4,9.1,9.1,0,0,1,7.3,3,11.6,11.6,0,0,1,2.6,7.8A10.7,10.7,0,0,1,182.3,120.5Zm-14.3-4.7h8.3a5.2,5.2,0,0,0-.9-2.9,3.3,3.3,0,0,0-3-1.4,3.9,3.9,0,0,0-2.9,1.2A5.4,5.4,0,0,0,167.9,115.9Z" fill="#fff"/><path d="M185.3,128.1l1.2-4.8a12.5,12.5,0,0,0,2.9,1.2,11.8,11.8,0,0,0,3.1.5q2.9,0,2.9-1.8a1.6,1.6,0,0,0-.7-1.4,10.6,10.6,0,0,0-2.5-1.1q-6.3-2-6.3-6.4a6.3,6.3,0,0,1,2.5-5.1,10,10,0,0,1,6.5-2,14.6,14.6,0,0,1,6.2,1.3l-1.2,4.7a11.2,11.2,0,0,0-4.8-1.2q-2.6,0-2.6,1.7a1.5,1.5,0,0,0,.8,1.3A12.5,12.5,0,0,0,196,116a10.1,10.1,0,0,1,4.5,2.6,5.8,5.8,0,0,1,1.5,4,6.1,6.1,0,0,1-2.5,5.1,11.4,11.4,0,0,1-7,1.9A15.9,15.9,0,0,1,185.3,128.1Z" fill="#fff"/><path d="M213.6,125.6a4,4,0,0,1-1.1,2.9,4.2,4.2,0,0,1-5.8,0,4,4,0,0,1-1.1-2.9,4,4,0,0,1,1.1-2.9,4.2,4.2,0,0,1,5.8,0A4.1,4.1,0,0,1,213.6,125.6Zm0-14.2a4,4,0,0,1-1.1,2.9,4.2,4.2,0,0,1-5.8,0,4,4,0,0,1-1.1-2.9,4.1,4.1,0,0,1,1.1-2.9,4.2,4.2,0,0,1,5.8,0A4.1,4.1,0,0,1,213.7,111.4Z" fill="#fff"/><path d="M239.6,129.1h-7.5l-7.3-29.7h7.3q3.1,15.8,4.2,22.6h.1q.6-4.3,4.5-22.6h7.4q3.5,18,4,22.4h.1q.4-3.4,4.3-22.4h7l-7.9,29.7h-7.4q-2.9-14.6-3.3-16.6t-.7-5.6h-.1q-.8,5-1.7,9.1Z" fill="#fff"/><path d="M266.6,129.1V97.8h6.8v12.5h.1a7.9,7.9,0,0,1,6.2-3.1,7.1,7.1,0,0,1,5.7,2.5q2.1,2.5,2.1,7.1v12.5h-6.8V117.5q0-4.8-3.6-4.8a3.7,3.7,0,0,0-2.6,1,3.6,3.6,0,0,0-1.1,2.8v12.7Z" fill="#fff"/><path d="M311.4,116.4v7.5a31.2,31.2,0,0,0,.4,5.2h-6.1l-.4-2.2H305a7.8,7.8,0,0,1-6.3,2.6,7.1,7.1,0,0,1-5.1-1.9,6.3,6.3,0,0,1-2-4.7,6.9,6.9,0,0,1,3.4-6.1q3.4-2.1,9.6-2.1v-.3q0-2.7-4-2.7a12,12,0,0,0-6.1,1.6l-1.3-4.3a17.5,17.5,0,0,1,8.6-2q4.8,0,7.2,2.4T311.4,116.4Zm-6.6,4.8V119q-6.5,0-6.5,3.3a2.4,2.4,0,0,0,.7,1.9,2.8,2.8,0,0,0,2,.7,3.9,3.9,0,0,0,2.6-1A3.3,3.3,0,0,0,304.8,121.2Z" fill="#fff"/><path d="M317.4,103.6l6.6-1.8v5.9h4.9v5H324v7.6a5.3,5.3,0,0,0,.6,3,2.4,2.4,0,0,0,2.1.9l2.1-.2V129a12.8,12.8,0,0,1-4.4.6,7.1,7.1,0,0,1-5-1.8q-2-1.8-2-6.5v-8.7h-2.9v-5h2.9Z" fill="#fff"/><path d="M45.9,181.8V152.7a63.5,63.5,0,0,1,9.4-.7q9.5,0,13.6,4a13.7,13.7,0,0,1,4.1,10.4q0,7.6-4.7,11.7t-14.5,4.2A63.5,63.5,0,0,1,45.9,181.8Zm6.8-24.3v19.3h2.5q5.1,0,7.9-2.7t2.8-7.7q0-4.6-2.5-7T56,157.2A16.3,16.3,0,0,0,52.8,157.5Z" fill="#fff"/><path d="M84.7,154a3.4,3.4,0,0,1-1.1,2.6,4.3,4.3,0,0,1-5.5,0,3.6,3.6,0,0,1,0-5.1,4.3,4.3,0,0,1,5.5,0A3.4,3.4,0,0,1,84.7,154Zm-.4,27.9H77.5V160.4h6.8Z" fill="#fff"/><path d="M97.3,181.9H90.5V165.4H87.7v-5h2.8v-.8a11.6,11.6,0,0,1,1.1-5,7.2,7.2,0,0,1,3.2-3.4,9.6,9.6,0,0,1,4.5-1.1,15,15,0,0,1,3.6.4l-.2,5.2a7.4,7.4,0,0,0-2.2-.3,2.8,2.8,0,0,0-2.3,1,4.3,4.3,0,0,0-.8,2.8v1.1h4.4v5H97.3Z" fill="#fff"/><path d="M112.6,181.9h-6.8V165.4H103v-5h2.8v-.8a11.6,11.6,0,0,1,1.1-5,7.2,7.2,0,0,1,3.2-3.4,9.6,9.6,0,0,1,4.5-1.1,15,15,0,0,1,3.6.4l-.2,5.2a7.4,7.4,0,0,0-2.2-.3,2.8,2.8,0,0,0-2.3,1,4.3,4.3,0,0,0-.8,2.8v1.1h4.4v5h-4.3Z" fill="#fff"/><path d="M139.5,173.3H125.2a3.8,3.8,0,0,0,1.9,3,8.2,8.2,0,0,0,4.4,1.1,19.7,19.7,0,0,0,6.2-.9l.9,4.5a20.6,20.6,0,0,1-8,1.4q-5.5,0-8.7-2.9a10.5,10.5,0,0,1-3.1-8.1,11.8,11.8,0,0,1,3-8.1,10.3,10.3,0,0,1,8.1-3.4,9.1,9.1,0,0,1,7.3,3,11.6,11.6,0,0,1,2.6,7.8A10.7,10.7,0,0,1,139.5,173.3Zm-14.3-4.7h8.3a5.2,5.2,0,0,0-.9-2.9,3.3,3.3,0,0,0-3-1.4,3.9,3.9,0,0,0-2.9,1.2A5.4,5.4,0,0,0,125.1,168.7Z" fill="#fff"/><path d="M143.8,181.9V167.6q0-4.8-.2-7.2h5.9l.2,4.1h.2a6.8,6.8,0,0,1,2.5-3.4,6,6,0,0,1,3.5-1.2h1.5v6.4l-1.8-.2a5.6,5.6,0,0,0-3.4,1.1q-1.5,1.1-1.5,3.8v10.9Z" fill="#fff"/><path d="M180.1,173.3H165.8a3.8,3.8,0,0,0,1.9,3,8.2,8.2,0,0,0,4.4,1.1,19.7,19.7,0,0,0,6.2-.9l.9,4.5a20.6,20.6,0,0,1-8,1.4q-5.5,0-8.7-2.9a10.5,10.5,0,0,1-3.1-8.1,11.8,11.8,0,0,1,3-8.1,10.3,10.3,0,0,1,8.1-3.4,9.1,9.1,0,0,1,7.3,3,11.6,11.6,0,0,1,2.6,7.8A10.7,10.7,0,0,1,180.1,173.3Zm-14.3-4.7H174a5.2,5.2,0,0,0-.9-2.9,3.3,3.3,0,0,0-3-1.4,3.9,3.9,0,0,0-2.9,1.2A5.4,5.4,0,0,0,165.8,168.7Z" fill="#fff"/><path d="M184.4,181.9V167.3q0-3.2-.2-6.9h5.9l.3,3h.2a7.8,7.8,0,0,1,6.8-3.5,7.3,7.3,0,0,1,5.8,2.5q2.1,2.5,2.1,6.9v12.6h-6.8V170.2q0-4.8-3.6-4.8a3.6,3.6,0,0,0-2.6,1.1,4.1,4.1,0,0,0-1.1,3.1v12.3Z" fill="#fff"/><path d="M226.6,176.4l.8,5a16.2,16.2,0,0,1-6.3,1.1,11.8,11.8,0,0,1-8.5-3,10.6,10.6,0,0,1-3.2-8,10.8,10.8,0,0,1,3.4-8.2q3.4-3.2,9.2-3.2a15.1,15.1,0,0,1,5.3.9l-1.1,5a10,10,0,0,0-3.9-.7,5.8,5.8,0,0,0-4.3,1.7,5.9,5.9,0,0,0-1.6,4.3,5.7,5.7,0,0,0,1.7,4.4,6.1,6.1,0,0,0,4.4,1.6A11.4,11.4,0,0,0,226.6,176.4Z" fill="#fff"/><path d="M250.2,173.3H235.9a3.8,3.8,0,0,0,1.9,3,8.2,8.2,0,0,0,4.4,1.1,19.7,19.7,0,0,0,6.2-.9l.9,4.5a20.6,20.6,0,0,1-8,1.4q-5.5,0-8.7-2.9a10.5,10.5,0,0,1-3.1-8.1,11.8,11.8,0,0,1,3-8.1,10.3,10.3,0,0,1,8.1-3.4,9.1,9.1,0,0,1,7.3,3,11.6,11.6,0,0,1,2.6,7.8A10.7,10.7,0,0,1,250.2,173.3Zm-14.3-4.7h8.3a5.2,5.2,0,0,0-.9-2.9,3.3,3.3,0,0,0-3-1.4,3.9,3.9,0,0,0-2.9,1.2A5.4,5.4,0,0,0,235.9,168.7Z" fill="#fff"/><path d="M253.3,180.9l1.2-4.8a12.5,12.5,0,0,0,2.9,1.2,11.8,11.8,0,0,0,3.1.5q2.9,0,2.9-1.8a1.6,1.6,0,0,0-.7-1.4,10.7,10.7,0,0,0-2.5-1.1q-6.3-2-6.3-6.4a6.3,6.3,0,0,1,2.5-5.1,10,10,0,0,1,6.5-2,14.6,14.6,0,0,1,6.2,1.3l-1.2,4.7a11.2,11.2,0,0,0-4.8-1.2q-2.6,0-2.6,1.7a1.5,1.5,0,0,0,.8,1.3,12.5,12.5,0,0,0,2.8,1.2,10.1,10.1,0,0,1,4.5,2.6,5.8,5.8,0,0,1,1.5,4,6.1,6.1,0,0,1-2.5,5.1,11.4,11.4,0,0,1-7,1.9A15.9,15.9,0,0,1,253.3,180.9Z" fill="#fff"/><path d="M301.6,169.2v7.5a31.2,31.2,0,0,0,.4,5.2h-6.1l-.4-2.2h-.2a7.8,7.8,0,0,1-6.3,2.6,7.1,7.1,0,0,1-5.1-1.9,6.3,6.3,0,0,1-2-4.7,6.9,6.9,0,0,1,3.4-6.1q3.4-2.1,9.6-2.1v-.3q0-2.7-4-2.7a12,12,0,0,0-6.1,1.6l-1.3-4.3a17.5,17.5,0,0,1,8.6-2q4.8,0,7.2,2.4T301.6,169.2Zm-6.6,4.8v-2.2q-6.5,0-6.5,3.3a2.4,2.4,0,0,0,.7,1.9,2.8,2.8,0,0,0,2,.7,3.9,3.9,0,0,0,2.6-1A3.3,3.3,0,0,0,295.1,174Z" fill="#fff"/><path d="M307.1,181.9V167.6q0-4.8-.2-7.2h5.9l.2,4.1h.2a6.8,6.8,0,0,1,2.5-3.4,6,6,0,0,1,3.5-1.2h1.5v6.4l-1.8-.2a5.6,5.6,0,0,0-3.4,1.1q-1.5,1.1-1.5,3.8v10.9Z" fill="#fff"/><path d="M343.4,173.3H329.1a3.8,3.8,0,0,0,1.9,3,8.2,8.2,0,0,0,4.4,1.1,19.7,19.7,0,0,0,6.2-.9l.9,4.5a20.6,20.6,0,0,1-8,1.4q-5.5,0-8.7-2.9a10.5,10.5,0,0,1-3.1-8.1,11.8,11.8,0,0,1,3-8.1,10.3,10.3,0,0,1,8.1-3.4,9.1,9.1,0,0,1,7.3,3,11.6,11.6,0,0,1,2.6,7.8A10.7,10.7,0,0,1,343.4,173.3Zm-14.3-4.7h8.3a5.2,5.2,0,0,0-.9-2.9,3.3,3.3,0,0,0-3-1.4,3.9,3.9,0,0,0-2.9,1.2A5.4,5.4,0,0,0,329.1,168.7Z" fill="#fff"/><path d="M46.7,209.2l6.6-1.8v5.9h4.9v5H53.3v7.6a5.3,5.3,0,0,0,.6,3,2.4,2.4,0,0,0,2.1.9l2.1-.2v5.1a12.8,12.8,0,0,1-4.4.6,7.1,7.1,0,0,1-5-1.8q-2-1.8-2-6.5v-8.7H43.7v-5h2.9Z" fill="#fff"/><path d="M62.2,234.7V203.4H69v12.5h.1a7.9,7.9,0,0,1,6.2-3.1,7.1,7.1,0,0,1,5.7,2.5q2.1,2.5,2.1,7.1v12.5H76.3V223.1q0-4.8-3.6-4.8a3.7,3.7,0,0,0-2.6,1,3.6,3.6,0,0,0-1.1,2.8v12.7Z" fill="#fff"/><path d="M108,226.1H93.7a3.8,3.8,0,0,0,1.9,3,8.3,8.3,0,0,0,4.4,1.1,19.7,19.7,0,0,0,6.2-.9l.9,4.5a20.6,20.6,0,0,1-8,1.4q-5.5,0-8.7-2.9a10.5,10.5,0,0,1-3.1-8.1,11.8,11.8,0,0,1,3-8.1,10.3,10.3,0,0,1,8.1-3.4,9.1,9.1,0,0,1,7.3,3,11.6,11.6,0,0,1,2.6,7.8A10.7,10.7,0,0,1,108,226.1Zm-14.3-4.7H102a5.2,5.2,0,0,0-.9-2.9,3.3,3.3,0,0,0-3-1.4,3.9,3.9,0,0,0-2.9,1.2A5.4,5.4,0,0,0,93.7,221.5Z" fill="#fff"/><path d="M112.3,234.7V220.4q0-4.8-.2-7.2H118l.2,4.1h.2a6.8,6.8,0,0,1,2.5-3.4,6,6,0,0,1,3.5-1.2h1.5v6.4L124,219a5.6,5.6,0,0,0-3.4,1.1q-1.5,1.1-1.5,3.8v10.9Z" fill="#fff"/><path d="M148.6,226.1H134.3a3.8,3.8,0,0,0,1.9,3,8.3,8.3,0,0,0,4.4,1.1,19.7,19.7,0,0,0,6.2-.9l.9,4.5a20.6,20.6,0,0,1-8,1.4q-5.5,0-8.7-2.9a10.5,10.5,0,0,1-3.1-8.1,11.8,11.8,0,0,1,3-8.1,10.3,10.3,0,0,1,8.1-3.4,9.1,9.1,0,0,1,7.3,3,11.6,11.6,0,0,1,2.6,7.8A10.7,10.7,0,0,1,148.6,226.1Zm-14.3-4.7h8.3a5.2,5.2,0,0,0-.9-2.9,3.3,3.3,0,0,0-3-1.4,3.9,3.9,0,0,0-2.9,1.2A5.4,5.4,0,0,0,134.3,221.5Z" fill="#fff"/><path d="M162.5,225h-5.9c0-.9,0-1.4,0-1.5a9.6,9.6,0,0,1,2.6-6.4,16.4,16.4,0,0,0,2.2-2.9,3.9,3.9,0,0,0,.5-1.7q0-2.6-3.2-2.6a8,8,0,0,0-4.6,1.4l-1.5-4.8a15.2,15.2,0,0,1,7.6-1.8,9.5,9.5,0,0,1,6.3,1.9,6.2,6.2,0,0,1,2.3,5,7.6,7.6,0,0,1-.8,3.2,17.5,17.5,0,0,1-3,4.1,7.7,7.7,0,0,0-2.3,5.5Zm.9,6.1a4,4,0,0,1-1.1,2.9,4.2,4.2,0,0,1-5.8,0,4.3,4.3,0,0,1,0-5.8,4.2,4.2,0,0,1,5.8,0A4,4,0,0,1,163.3,231.2Z" fill="#fff"/></svg>