<svg xmlns="http://www.w3.org/2000/svg"><symbol id="dog" viewBox="0 0 64 64"><path fill="#f9a43e" d="M54.2 64H15.9a7.7 7.7 0 0 1 0-3.5c.9-5.1 2.1-6.9 5.8-14.1s2.5-7.2 2.5-14.4-3.9-8-5.8-10c-5-5-8.5-7.4-9-10.4s3.3-10.3 3.3-10.3 1.3-3.8 8.5 1.6 7.2 5.3 12 3 3.8-1.8 7.9 1.3 9.7 7.7 9.9 17.9.2 22.4 2.3 29.5c1.6 5 1.6 7.6.9 9.4z"/></symbol><symbol id="form" viewBox="0 0 64 64"><path fill="#f9a43e" d="M52.4 0H11.6A3.6 3.6 0 0 0 8 3.6v56.8a3.6 3.6 0 0 0 3.6 3.6h40.8a3.6 3.6 0 0 0 3.6-3.6V3.6A3.6 3.6 0 0 0 52.4 0zm-3.8 51.9a2.7 2.7 0 0 1-1.9.8H17.3a2.7 2.7 0 0 1-2.7-2.7 2.7 2.7 0 0 1 2.7-2.7h29.4a2.7 2.7 0 0 1 1.9 4.5zm0-12a2.7 2.7 0 0 1-1.9.8H17.3a2.7 2.7 0 0 1-2.7-2.7 2.7 2.7 0 0 1 2.7-2.7h29.4a2.7 2.7 0 0 1 1.9 4.5zm0-12a2.7 2.7 0 0 1-1.9.8H17.3a2.7 2.7 0 0 1-2.7-2.7 2.7 2.7 0 0 1 2.7-2.7h29.4a2.7 2.7 0 0 1 1.9 4.5zm0-12a2.7 2.7 0 0 1-1.9.8H17.3a2.7 2.7 0 0 1-2.7-2.7 2.7 2.7 0 0 1 2.7-2.7h29.4a2.7 2.7 0 0 1 1.9 4.5z"/></symbol><symbol id="homev" viewBox="0 0 64 64"><path fill="#f9a43e" d="M61.3 28.4h-7.5V64H39.7V43.6H23.9V64H9.8V28.4H3A1.9 1.9 0 0 1 1.7 25L31.8 0l30.6 25.4a1.7 1.7 0 0 1-1.1 3z"/></symbol><symbol id="mail" viewBox="0 0 64 64"><path fill="#f9a43e" d="M64 20.8v33.4H0V20.5l32 11.7 32-11.4z"/><path fill="#f9a43e" d="M64 9.8v4.7l-14.1 5L32 25.9l-17.4-6.4L0 14.2V9.8h64z"/></symbol></svg>