<svg id="Layer_1" data-name="Layer 1" xmlns="http://www.w3.org/2000/svg" width="16" height="16" viewBox="0 0 16 16"><title>logo-16</title><path d="M14.1,11.2a10.3,10.3,0,0,0-3.2,0,3.7,3.7,0,0,1,.3,1.5,3.3,3.3,0,0,1,0,.4A13.6,13.6,0,0,0,8,11.8l-1.3.4a7.9,7.9,0,0,0-1.9.9,3.8,3.8,0,0,1,.3-2H1.9a3.6,3.6,0,0,1,1.2-1.2C.1,6.9,0,5,0,5l1.6.7a22.4,22.4,0,0,1,3,1.5A6.8,6.8,0,0,1,3.3,3.7l1.3.5A5.7,5.7,0,0,1,6.7,6a4.9,4.9,0,0,1,.6-2.3A4.7,4.7,0,0,1,8,2.8a4.7,4.7,0,0,1,.6.9A4.9,4.9,0,0,1,9.3,6a5.7,5.7,0,0,1,2.1-1.7l1.3-.5a6.8,6.8,0,0,1-1.3,3.5,22.4,22.4,0,0,1,3-1.5L16,5s-.1,1.9-3.1,5.1A3.6,3.6,0,0,1,14.1,11.2Z" fill="#f9a43e"/></svg>