<svg id="Layer_1" data-name="Layer 1" xmlns="http://www.w3.org/2000/svg" width="256" height="256" viewBox="0 0 256 256"><title>logo-256</title><path d="M206.7,160.9h0C254.4,110.5,256,79.8,256,79.8s-10.8,4-25.5,10.3-32.8,15.1-47.7,24.6C201.4,91.9,203,59.1,203,59.1a131.7,131.7,0,0,0-20.9,8.8c-11.5,6-25,15.1-33.2,27.8-.3-14.8-5.4-27.5-10.5-36.5a78.8,78.8,0,0,0-10.2-14.4,78.8,78.8,0,0,0-10.2,14.4c-5.1,9-10.2,21.7-10.5,36.5C99.3,82.9,85.8,73.8,74.3,67.8a131.7,131.7,0,0,0-20.9-8.8S55,91.9,73.6,114.7c-14.8-9.5-33.2-18.3-47.7-24.6S.4,79.8.4,79.8,2,110.5,49.7,160.8h0c-11.1,8.5-15.9,13.2-18.5,18.5h0c37.4-3.7,50.9,0,50.9,0s-6.9,13.2-4.8,31.8h0c13.2-10.6,50.9-21.7,50.9-21.7s37.6,11.1,50.9,21.7h0c2.1-18.6-4.8-31.8-4.8-31.8s13.5-3.7,50.9,0h0C222.6,174.1,217.8,169.3,206.7,160.9Zm-44.9,11.5a58.8,58.8,0,0,1,3.1,6.9,77,77,0,0,1,4.4,17.5c-14.2-9.9-41-16.6-41-16.6s-26.8,6.7-41,16.6a77.1,77.1,0,0,1,4.4-17.5,58.8,58.8,0,0,1,3.1-6.9s-25-6.2-39.2-3.5a53.5,53.5,0,0,1,11.3-7.4c-.1-.1-8.7-7.6-19.4-19.2s-23.7-27.4-32.5-44l-4.3-7.6c35.4,14.5,51.5,25,51.5,25s14.8,7.9,19.4,11.1l7.1,4.3c-1.7-19-1.4-28.6,3.5-42.7l2.8,2.5c16.2,14.8,33.4,46,33.4,46.1s17.2-31.3,33.4-46.1l2.8-2.5c4.9,14.1,5.3,23.7,3.5,42.7l7.1-4.3c4.6-3.2,19.4-11.1,19.4-11.1s16.2-10.5,51.5-25l-4.3,7.6c-8.8,16.6-21.8,32.3-32.5,44s-19.3,19.2-19.4,19.2a53.5,53.5,0,0,1,11.3,7.4C186.8,166.2,161.8,172.4,161.8,172.4Z" fill="#f9a43e"/></svg>