<?xml version="1.0" encoding="utf-8"?>
<!-- Generator: Adobe Illustrator 21.0.2, SVG Export Plug-In . SVG Version: 6.00 Build 0)  -->
<svg version="1.1" id="Layer_1" xmlns="http://www.w3.org/2000/svg" xmlns:xlink="http://www.w3.org/1999/xlink" x="0px" y="0px"
	 viewBox="0 0 886 336.2" style="enable-background:new 0 0 886 336.2;" xml:space="preserve">
<style type="text/css">
	.st0{fill:#F9A43E;}
	.st1{fill:#FFFFFF;}
</style>
<title>logo-886</title>
<path class="st0" d="M583.2,118.8L583.2,118.8c47.7-50.4,49.3-81.1,49.3-81.1S621.6,41.6,607,48s-32.8,15.1-47.7,24.6
	C577.8,49.9,579.4,17,579.4,17c-7.2,2.3-14.2,5.3-20.9,8.8c-11.5,6-25,15.1-33.2,27.8c-0.3-14.8-5.4-27.5-10.5-36.5
	c-2.8-5.2-6.2-10-10.1-14.4c-3.9,4.4-7.3,9.2-10.2,14.3c-5.1,9-10.2,21.7-10.5,36.5c-8.2-12.7-21.8-21.8-33.2-27.8
	c-6.7-3.5-13.7-6.4-20.9-8.7c0,0,1.6,32.9,20.1,55.7c-14.8-9.5-33.2-18.3-47.7-24.6s-25.5-10.3-25.5-10.3s1.6,30.7,49.3,81.1l0,0
	c-11.1,8.5-15.9,13.2-18.5,18.5l0,0c37.4-3.7,50.9,0,50.9,0s-6.9,13.2-4.8,31.8l0,0c13.2-10.6,50.9-21.7,50.9-21.7
	s37.6,11.1,50.9,21.7l0,0c2.1-18.6-4.8-31.8-4.8-31.8s13.5-3.7,50.9,0l0,0C599,132,594.3,127.2,583.2,118.8z M538.3,130.3
	c1.2,2.2,2.2,4.5,3.1,6.9c2.1,5.6,3.6,11.5,4.4,17.5c-14.2-9.9-41-16.6-41-16.6s-26.8,6.7-41,16.6c0.8-6,2.3-11.9,4.4-17.5
	c0.9-2.4,1.9-4.7,3.1-6.9c0,0-25-6.2-39.2-3.5c3.4-2.9,7.2-5.4,11.3-7.4c-0.1-0.1-8.7-7.6-19.4-19.2s-23.7-27.4-32.5-44l-4.3-7.6
	c35.4,14.5,51.5,25,51.5,25s14.8,7.9,19.4,11.1l7.1,4.3c-1.7-19-1.4-28.6,3.5-42.7l2.8,2.5c16.2,14.8,33.4,46,33.4,46.1
	s17.2-31.3,33.4-46.1l2.8-2.5c4.9,14.1,5.3,23.7,3.5,42.7l7.1-4.3c4.6-3.2,19.4-11.1,19.4-11.1s16.2-10.5,51.5-25l-4.3,7.6
	c-8.8,16.6-21.8,32.3-32.5,44s-19.3,19.2-19.4,19.2c4.1,2,7.9,4.5,11.3,7.4C563.2,124.1,538.2,130.3,538.3,130.3L538.3,130.3z"/>
<path class="st1" d="M9.5,150.9c0,2.3-1,3.3-3.3,3.3s-3.5-1-3.5-3.3V43c0-2.8,1.6-4.2,4.4-4.2s4.7,1.6,6.7,4.5l68.7,100.3V42.1
	c0-2.3,1.1-3.3,3.3-3.3s3.5,1,3.5,3.3v108c0,2.8-1.4,4.2-4,4.2s-4.4-1.6-6.5-4.7L9.5,48.9V150.9z"/>
<path class="st1" d="M161.3,90.6c2.3,0,3.3,1,3.3,3.1s-1.1,3.3-3.3,3.3h-45.2v50.1h53.6c2.3,0,3.3,1.1,3.3,3.2s-1,3.2-3.3,3.2H113
	c-2.6,0-3.9-1.2-3.9-3.9V43.5c0-2.6,1.2-3.9,3.9-3.9h54.8c2.3,0,3.3,1,3.3,3.1s-1.1,3.2-3.3,3.2h-51.7v44.7H161.3z"/>
<path class="st1" d="M226.2,150.2c-1,2.8-1.9,4.2-5.1,4.2s-4.4-1.4-5.1-4.2L187.3,43.8c-0.2-0.9-0.4-1.7-0.5-2.6
	c0-1.4,0.7-2.5,3.3-2.5s3.7,1,4.2,3.9l27.1,102l32.7-96.4c0.7-2.6,1.9-3.9,4.7-3.9s4,1.2,4.9,3.9l31.5,96.4l28.2-102
	c0.5-2.6,1.4-3.9,3.9-3.9s3.1,1,3.1,2.5c0,0.9-0.1,1.7-0.3,2.6l-29.7,106.4c-0.7,2.8-1.8,4.2-4.9,4.2s-4.2-1.4-5.1-4.2l-31.5-96.4
	L226.2,150.2z"/>
<path class="st1" d="M72.2,284.9c0,18.4-14,31.3-46.4,31.3c-6,0.1-12.1-0.4-18-1.4c-5.1-1-5.1-2.8-5.1-6.1V207.5
	c0-3.5,0-5.1,5.1-6.1s11.6-1.4,18-1.4c28.2,0,42,10.8,42,28.2c0,13.3-7.9,23.3-25.2,27C61.5,258.3,72.2,269,72.2,284.9z M9.7,207.4
	v45h17.2c6.8,0,12.8-0.9,17.2-2.5c11.1-3.9,16-11.9,16-21.2c0-13.5-10.1-22.4-34.8-22.4C20.1,206.3,14.9,206.7,9.7,207.4z
	 M64.5,284.9c0-10.5-5.4-19.6-18.7-23.8c-6-1.8-12.3-2.7-18.6-2.6H9.7v50.4c5.3,0.7,10.7,1,16.1,1C54.5,309.9,64.5,299.4,64.5,284.9
	z"/>
<path class="st1" d="M143.9,252.2c2.3,0,3.3,1,3.3,3.2c0,2.2-1.1,3.3-3.3,3.3H98.8v50.1h53.6c2.3,0,3.3,1,3.3,3.1s-1,3.2-3.3,3.2
	H95.6c-2.6,0-3.9-1.2-3.9-3.8V205.1c0-2.6,1.2-3.8,3.9-3.8h54.8c2.3,0,3.3,1,3.3,3.2s-1.1,3.1-3.3,3.1H98.8v44.6L143.9,252.2z"/>
<path class="st1" d="M223.7,267.4c-2.3,0-3.3-1-3.3-3.2s1.1-3.3,3.3-3.3h29.9c2.6,0,3.9,1.2,3.9,3.9v39.4c0,3.2-1.1,4.6-5.8,6.5
	c-9.4,3.7-19.3,5.6-29.4,5.6c-34,0-55.8-22.9-55.8-58.8s21.7-58.3,54.8-58.3c11.9,0,21.9,3,30.3,8.2c4.2,2.6,6,4.5,6,6.1
	c-0.1,1.7-1.5,3.1-3.2,3.2c-1.4,0-3.1-1.7-7-4.2c-6.8-4.4-15.6-7-26.1-7c-28.5,0-47.3,19.6-47.3,51.8s18.4,52.7,48.8,52.7
	c9.5,0,20.3-2.3,27.7-5.8v-36.8H223.7z"/>
<path class="st1" d="M292.7,312.5c0,2.3-1,3.3-3.3,3.3s-3.7-1-3.7-3.3V203.7c0-2.3,1.1-3.3,3.3-3.3s3.7,1,3.7,3.3V312.5z"/>
<path class="st1" d="M329.1,312.5c0,2.3-1,3.3-3.3,3.3s-3.5-1-3.5-3.3v-108c0-2.8,1.6-4.2,4.4-4.2s4.7,1.6,6.7,4.5L402,305.2V203.7
	c0-2.3,1.1-3.3,3.3-3.3s3.5,1,3.5,3.3v108c0,2.8-1.4,4.2-4,4.2s-4.4-1.6-6.5-4.7l-69.2-100.7V312.5z"/>
<path class="st1" d="M445.1,312.5c0,2.3-1,3.3-3.3,3.3s-3.5-1-3.5-3.3v-108c0-2.8,1.6-4.2,4.4-4.2s4.7,1.6,6.7,4.5l68.8,100.3V203.7
	c0-2.3,1.1-3.3,3.3-3.3s3.5,1,3.5,3.3v108c0,2.8-1.4,4.2-4,4.2s-4.4-1.6-6.5-4.7l-69.4-100.7V312.5z"/>
<path class="st1" d="M561.3,312.5c0,2.3-1,3.3-3.3,3.3s-3.7-1-3.7-3.3V203.7c0-2.3,1.1-3.3,3.3-3.3s3.7,1,3.7,3.3V312.5z"/>
<path class="st1" d="M597.7,312.5c0,2.3-1,3.3-3.3,3.3s-3.5-1-3.5-3.3v-108c0-2.8,1.6-4.2,4.4-4.2s4.7,1.6,6.7,4.5l68.8,100.3V203.7
	c0-2.3,1.1-3.3,3.3-3.3s3.5,1,3.5,3.3v108c0,2.8-1.4,4.2-4,4.2s-4.4-1.6-6.5-4.7l-69.4-100.7V312.5z"/>
<path class="st1" d="M758.2,267.4c-2.3,0-3.3-1-3.3-3.2s1.1-3.3,3.3-3.3h29.9c2.6,0,3.9,1.2,3.9,3.9v39.4c0,3.2-1.1,4.6-5.8,6.5
	c-9.4,3.7-19.3,5.6-29.4,5.6c-34,0-55.8-22.9-55.8-58.8s21.7-58.3,54.8-58.3c11.9,0,21.9,3,30.3,8.2c4.2,2.6,6,4.5,6,6.1
	c-0.1,1.7-1.5,3.1-3.2,3.2c-1.4,0-3.1-1.7-7-4.2c-6.8-4.4-15.6-7-26.1-7c-28.5,0-47.3,19.6-47.3,51.8s18.4,52.7,48.8,52.7
	c9.5,0,20.3-2.3,27.7-5.8v-36.8H758.2z"/>
<path class="st1" d="M816.3,227c0-17,13.7-27.8,34.5-27.8c8.8,0,18.4,2.1,26.1,7.2c3.7,2.5,5.3,4.2,5.3,5.8
	c-0.1,1.7-1.5,3.2-3.2,3.3c-1.2,0-2.8-1.4-5.6-3.1c-6.7-4.5-14.7-6.9-22.8-6.8c-16.6,0-27,8.6-27,21c0,29.9,60.9,21.9,60.9,59.5
	c0,19.8-16.6,31.2-37.6,31.2c-10.4,0.2-20.6-3.1-28.9-9.5c-3.1-2.3-4.9-4.2-4.9-5.8c0-1.7,1.4-3.1,3.1-3.3c1.8,0,2.5,1.4,6.5,4.2
	c7,5.3,15.5,8.1,24.3,8c17,0,30.1-9.5,30.1-24.3C877.2,254.3,816.3,262.5,816.3,227z"/>
</svg>
