<svg id="Layer_1" data-name="Layer 1" xmlns="http://www.w3.org/2000/svg" width="64" height="64" viewBox="0 0 64 64"><title>logo-64</title><path d="M51.7,40.2h0C63.6,27.6,64,19.9,64,19.9s-2.7,1-6.4,2.6a89.6,89.6,0,0,0-11.9,6.2c4.6-5.7,5-13.9,5-13.9a33,33,0,0,0-5.2,2.2c-2.9,1.5-6.3,3.8-8.3,7a19.5,19.5,0,0,0-2.6-9.1A19.7,19.7,0,0,0,32,11.2a19.7,19.7,0,0,0-2.5,3.6,19.5,19.5,0,0,0-2.6,9.1c-2.1-3.2-5.4-5.5-8.3-7a33,33,0,0,0-5.2-2.2s.4,8.2,5,13.9A89.6,89.6,0,0,0,6.4,22.5C2.7,20.9,0,19.9,0,19.9s.4,7.7,12.3,20.3h0c-2.8,2.1-4,3.3-4.6,4.6h0c9.4-.9,12.7,0,12.7,0a15,15,0,0,0-1.2,8h0C22.6,50.2,32,47.4,32,47.4s9.4,2.8,12.7,5.4h0a15,15,0,0,0-1.2-8s3.4-.9,12.7,0h0C55.6,43.5,54.4,42.4,51.7,40.2ZM40.4,43.1a14.7,14.7,0,0,1,.8,1.7,19.3,19.3,0,0,1,1.1,4.4C38.7,46.7,32,45.1,32,45.1s-6.7,1.7-10.3,4.2a19.3,19.3,0,0,1,1.1-4.4,14.7,14.7,0,0,1,.8-1.7s-6.3-1.5-9.8-.9a13.4,13.4,0,0,1,2.8-1.9s-2.2-1.9-4.9-4.8a55.4,55.4,0,0,1-8.1-11L2.5,22.6a85.9,85.9,0,0,1,12.9,6.3s3.7,2,4.9,2.8L22,32.8c-.4-4.8-.3-7.2.9-10.7l.7.6C27.7,26.4,32,34.2,32,34.3s4.3-7.8,8.4-11.5l.7-.6c1.2,3.5,1.3,5.9.9,10.7l1.8-1.1c1.2-.8,4.9-2.8,4.9-2.8a85.9,85.9,0,0,1,12.9-6.3l-1.1,1.9a55.4,55.4,0,0,1-8.1,11c-2.7,2.9-4.8,4.8-4.9,4.8a13.4,13.4,0,0,1,2.8,1.9C46.7,41.6,40.4,43.1,40.4,43.1Z" fill="#f9a43e"/></svg>