<svg id="Layer_1" data-name="Layer 1" xmlns="http://www.w3.org/2000/svg" width="32" height="32" viewBox="0 0 32 32"><title>logo-32</title><path d="M25.8,20.1h0C31.8,13.8,32,10,32,10l-3.2,1.3a44.8,44.8,0,0,0-6,3.1,13.5,13.5,0,0,0,2.5-7,16.5,16.5,0,0,0-2.6,1.1,11,11,0,0,0-4.2,3.5,9.7,9.7,0,0,0-1.3-4.6A9.9,9.9,0,0,0,16,5.6a9.9,9.9,0,0,0-1.3,1.8,9.7,9.7,0,0,0-1.3,4.6A11,11,0,0,0,9.3,8.5,16.5,16.5,0,0,0,6.6,7.4a13.5,13.5,0,0,0,2.5,7,44.8,44.8,0,0,0-6-3.1L0,10s.2,3.8,6.2,10.2h0a7.3,7.3,0,0,0-2.3,2.3h0c4.7-.5,6.4,0,6.4,0a7.5,7.5,0,0,0-.6,4h0c1.7-1.3,6.4-2.7,6.4-2.7s4.7,1.4,6.4,2.7h0a7.5,7.5,0,0,0-.6-4s1.7-.5,6.4,0h0A7.3,7.3,0,0,0,25.8,20.1Zm-5.6,1.4.4.9a9.6,9.6,0,0,1,.5,2.2A19.6,19.6,0,0,0,16,22.5a19.6,19.6,0,0,0-5.1,2.1,9.7,9.7,0,0,1,.5-2.2l.4-.9a15.5,15.5,0,0,0-4.9-.4,6.7,6.7,0,0,1,1.4-.9s-1.1-1-2.4-2.4a27.7,27.7,0,0,1-4.1-5.5l-.5-.9a42.9,42.9,0,0,1,6.5,3.1l2.4,1.4.9.5a11,11,0,0,1,.4-5.3l.3.3A28.2,28.2,0,0,1,16,17.1a28.2,28.2,0,0,1,4.2-5.8l.3-.3a11,11,0,0,1,.4,5.3l.9-.5,2.4-1.4a42.9,42.9,0,0,1,6.5-3.1l-.5.9a27.7,27.7,0,0,1-4.1,5.5c-1.3,1.5-2.4,2.4-2.4,2.4a6.7,6.7,0,0,1,1.4.9A15.5,15.5,0,0,0,20.2,21.6Z" fill="#f9a43e"/></svg>